<svg xmlns="http://www.w3.org/2000/svg" width="75" height="80" viewBox="0 0 75 80"><g transform="translate(-64.667 -46.636)"><g transform="translate(64.707 97.334)"><path d="M66.348,382.426H64.917V364.2h1.431Z" transform="translate(-64.917 -363.94)" fill="#fff"/><path d="M169.906,381.361a6.286,6.286,0,0,1-5.589-3.275l1.112-.793a5.375,5.375,0,0,0,4.609,2.826c2.357,0,4.265-1.452,4.265-3.829s-2.437-3.275-3.5-3.7-2.251-.924-2.993-1.32a4.741,4.741,0,0,1-2.649-4.225c0-2.641,2.3-4.49,5.377-4.49a5.766,5.766,0,0,1,4.768,2.377l-1.007.872a4.587,4.587,0,0,0-3.868-1.981c-2.119,0-3.814,1.109-3.814,3.169s1.43,2.878,2.728,3.433,3.338,1.4,3.761,1.637a4.827,4.827,0,0,1,2.649,4.225C175.76,379.063,173.456,381.361,169.906,381.361Z" transform="translate(-148.317 -362.557)" fill="#fff"/><path d="M323.993,382.426h-7.947V364.2h1.431v16.928h6.516Z" transform="translate(-275.623 -363.94)" fill="#fff"/><path d="M443.552,382.149h-1.669l-2.251-5.467h-8.715l-2.278,5.467h-1.51l7.814-18.275h.795Zm-4.476-6.787-3.815-9.322-3.814,9.322Z" transform="translate(-368.826 -363.663)" fill="#fff"/></g><g transform="translate(65.906 46.636)"><path d="M263.458,150.349a1.6,1.6,0,0,1,1.395-.593l.012.332-.588.251-.587.249Zm2.313,1.784a1.217,1.217,0,0,0-.612.143,1.59,1.59,0,0,1-.151.551l-.19-.089a1.4,1.4,0,0,0,.128-.455,1.083,1.083,0,0,0-.306.224.332.332,0,0,0-.518-.2.594.594,0,0,0-.269-.4s.4.042.526-.234a.236.236,0,0,0,.4.035.541.541,0,0,0,.173.335,1.293,1.293,0,0,0-.282-.662c-.951.369-.948-.672-.948-.672l.607-.258.6-.256s.708.665-.064,1.1a1.5,1.5,0,0,1,.3.726.869.869,0,0,0-.01-.4.237.237,0,0,0,.279-.283c.274.125.548-.165.548-.165a.6.6,0,0,0,.062.482A.329.329,0,0,0,265.771,152.133Zm3.4-1.218s1.607.236.551.857c-.708.657-.726-.057-.681-.5a2.963,2.963,0,0,0-.089,1.386l-.2.057a3.349,3.349,0,0,1,.128-1.652c-.3.258-.968.724-.869-.226-.151-1.282.918-.13,1.015-.025a.008.008,0,0,0,.005,0c-.02-.143-.19-1.536.7-.729,1.012.608-.331.783-.575.81,0,0,0,.017-.015.044Zm4.071.79a.238.238,0,0,0,.4-.035c.129.276.526.234.526.234a.594.594,0,0,0-.269.4.332.332,0,0,0-.518.2,1.063,1.063,0,0,0-.309-.224,1.412,1.412,0,0,0,.131.455l-.19.089a1.588,1.588,0,0,1-.153-.551,1.2,1.2,0,0,0-.61-.143.329.329,0,0,0-.262-.487.594.594,0,0,0,.059-.482s.274.29.553.165a.235.235,0,0,0,.276.283.892.892,0,0,0-.012.4,1.5,1.5,0,0,1,.3-.726c-.773-.431-.066-1.1-.066-1.1l.6.256.607.258s0,1.041-.948.672a1.3,1.3,0,0,0-.281.662A.53.53,0,0,0,273.24,151.705Zm1.086-1.118-.588-.249-.588-.251.012-.332a1.6,1.6,0,0,1,1.395.593Z" transform="translate(-232.699 -133.2)" fill="none"/><path d="M268.456,204.8l-2.732-2.718-1.366-1.359c-.5-.409-.988-.828-1.5-1.228.4.506.824.993,1.235,1.49l1.366,1.359,2.732,2.718.078.078.262-.261Z" transform="translate(-232.199 -174.967)" fill="#ad7e15"/><path d="M300.5,237.309l1.365,1.36c.494.415.988.829,1.5,1.227-.4-.507-.817-1-1.234-1.491l-1.367-1.358-2.391-2.379-.262.261Z" transform="translate(-261.771 -204.494)" fill="#ad7e15"/><path d="M301.179,202.347l1.367-1.358c.417-.491.833-.983,1.234-1.491-.51.4-1,.813-1.5,1.227l-1.365,1.36-2.732,2.718-.079.078.262.261.078-.078Z" transform="translate(-261.771 -174.967)" fill="#ad7e15"/><path d="M268.065,237.048l-1.366,1.359c-.411.5-.833.984-1.235,1.49.508-.4,1-.819,1.5-1.228l1.366-1.359,2.392-2.379-.262-.261Z" transform="translate(-234.382 -204.494)" fill="#ad7e15"/><path d="M296.478,233.3l.262.261L297,233.3l-.262-.261Z" transform="translate(-260.404 -203.13)" fill="#ad7e15"/><path d="M264.276,150.339l.587-.25-.012-.332a1.587,1.587,0,0,0-1.395.593l.232.238Z" transform="translate(-232.698 -133.201)" fill="#c48e18"/><path d="M265.067,153.03s0,1.042.947.673a1.275,1.275,0,0,1,.282.663.532.532,0,0,1-.172-.334.237.237,0,0,1-.4-.034c-.128.275-.525.234-.525.234a.594.594,0,0,1,.269.4.331.331,0,0,1,.517.2,1.042,1.042,0,0,1,.308-.225,1.39,1.39,0,0,1-.13.454l.191.09a1.583,1.583,0,0,0,.152-.552,1.217,1.217,0,0,1,.611-.143.329.329,0,0,1,.262-.487.593.593,0,0,1-.06-.481s-.274.29-.55.163a.238.238,0,0,1-.279.285.863.863,0,0,1,.012.4,1.5,1.5,0,0,0-.3-.727c.772-.432.065-1.095.065-1.095l-.6.255Z" transform="translate(-234.049 -135.526)" fill="#c48e18"/><path d="M324.856,150.589l.232-.238a1.586,1.586,0,0,0-1.395-.593l-.012.332.587.25Z" transform="translate(-283.229 -133.201)" fill="#c48e18"/><path d="M316.687,154.458a1.218,1.218,0,0,1,.611.143,1.576,1.576,0,0,0,.152.552l.191-.09a1.379,1.379,0,0,1-.131-.455,1.062,1.062,0,0,1,.308.226.331.331,0,0,1,.517-.2.593.593,0,0,1,.27-.4s-.4.041-.526-.234a.238.238,0,0,1-.4.034.531.531,0,0,1-.172.334,1.3,1.3,0,0,1,.282-.663c.951.369.947-.673.947-.673l-.606-.258-.6-.255s-.707.663.065,1.095a1.5,1.5,0,0,0-.3.727.862.862,0,0,1,.012-.4.237.237,0,0,1-.277-.285c-.278.127-.551-.163-.551-.163a.6.6,0,0,1-.059.481A.329.329,0,0,1,316.687,154.458Z" transform="translate(-277.141 -135.526)" fill="#c48e18"/><path d="M298.727,157.882c1.058-.619-.55-.856-.55-.856l-.032.023c-.021.061-.059.181-.1.336C298,157.825,298.02,158.539,298.727,157.882Z" transform="translate(-261.708 -139.31)" fill="#c48e18"/><path d="M298.009,151.3c0,.007,0,.011-.007.017l.049.018c.244-.026,1.588-.2.576-.81-.889-.806-.718.587-.7.73a.052.052,0,0,1,.025-.01A.055.055,0,0,1,298.009,151.3Z" transform="translate(-261.599 -133.647)" fill="#c48e18"/><path d="M292.525,153.63c.041-.139.074-.231.078-.244l.05.018a.05.05,0,0,1,.017-.025c-.1-.105-1.164-1.259-1.013.024C291.558,154.355,292.221,153.889,292.525,153.63Z" transform="translate(-256.347 -135.766)" fill="#c48e18"/><path d="M298.067,156.456h0v.024l.049.018Z" transform="translate(-261.736 -138.831)" fill="#c48e18"/><path d="M298.032,156.384l-.006,0,.007.008Z" transform="translate(-261.703 -138.772)" fill="#c48e18"/><path d="M298.065,156.34h0l.048.041.024.008c0-.006.007-.011.007-.017a.055.055,0,0,0-.055-.055.053.053,0,0,0-.025.01l0,.011Z" transform="translate(-261.734 -138.717)" fill="#c48e18"/><path d="M297.922,156.424l.023.008v-.024h0l-.007-.008A.051.051,0,0,0,297.922,156.424Z" transform="translate(-261.615 -138.785)" fill="#c48e18"/><path d="M298.072,156.45h0Z" transform="translate(-261.742 -138.827)" fill="#c48e18"/><path d="M296.361,156.823a.045.045,0,0,1-.072.018v.031s-.06.058-.148.133a3.372,3.372,0,0,0-.129,1.652l.2-.056a2.961,2.961,0,0,1,.088-1.387c.016-.167.042-.3.042-.3l.057-.04.016-.046h0l-.037,0Z" transform="translate(-259.962 -139.141)" fill="#c48e18"/><path d="M298.119,157.5c.04-.155.078-.274.1-.336l-.057.04S298.135,157.336,298.119,157.5Z" transform="translate(-261.781 -139.429)" fill="#c48e18"/><path d="M298.5,156.778l.015.013.037,0-.049-.018Z" transform="translate(-262.098 -139.096)" fill="#c48e18"/><path d="M297.274,156.519a.052.052,0,0,1-.028-.044c0-.007,0-.011.007-.017l-.05-.018c0,.013-.037.1-.078.244.088-.075.148-.133.148-.133Z" transform="translate(-260.947 -138.819)" fill="#c48e18"/><path d="M298.078,156.669a.052.052,0,0,0,.045-.029l-.02-.017-.049-.018,0,.053A.053.053,0,0,0,298.078,156.669Z" transform="translate(-261.724 -138.958)" fill="#c48e18"/><path d="M298.4,156.726l-.024-.008.02.017A.056.056,0,0,0,298.4,156.726Z" transform="translate(-261.993 -139.052)" fill="#c48e18"/><path d="M297.9,156.614l0-.053-.023-.008c0,.006-.007.011-.007.017A.052.052,0,0,0,297.9,156.614Z" transform="translate(-261.578 -138.914)" fill="#c48e18"/><path d="M425.3,174.149c.114-.057.22-.116.321-.175C425.519,174.033,425.411,174.09,425.3,174.149Z" transform="translate(-368.488 -153.539)" fill="none"/><path d="M447.279,207.825c-.025.133-.057.271-.094.414A4.1,4.1,0,0,0,447.279,207.825Z" transform="translate(-386.853 -181.958)" fill="none"/><path d="M155.717,237.483c-.007-.047-.02-.1-.035-.163C155.694,237.382,155.707,237.438,155.717,237.483Z" transform="translate(-142.271 -206.72)" fill="none"/><path d="M447.967,203.037a2.194,2.194,0,0,0,0-.672A2.271,2.271,0,0,1,447.967,203.037Z" transform="translate(-387.509 -177.374)" fill="none"/><path d="M410.839,82.877a.3.3,0,0,0-.185-.165,2.921,2.921,0,0,0-.412-.126c-.074-.017-.148-.037-.222-.059a1.521,1.521,0,0,0,.412.81.779.779,0,0,0,.175.123.667.667,0,0,0,.1.042l.03.01.094.032L411,83.6c-.022-.081-.042-.165-.062-.249C410.9,83.194,410.867,83.037,410.839,82.877Z" transform="translate(-355.67 -76.767)" fill="none"/><path d="M420.788,94.682a.565.565,0,0,1-.03-.15.671.671,0,0,1-.005-.121,1.06,1.06,0,0,1,.027-.219.941.941,0,0,1,.03-.091c.012-.034.02-.069.032-.1-.086-.022-.17-.049-.254-.076,0,.057.007.116.012.18.017.241.032.5.052.591l.141,0Z" transform="translate(-364.537 -86.335)" fill="none"/><path d="M372.247,152.648c.015-.165.035-.327.057-.483a4.984,4.984,0,0,1,.17-.9l-1.272-.19-.007,1.669,1.013.457C372.215,153.012,372.229,152.827,372.247,152.648Z" transform="translate(-323.094 -134.317)" fill="#c48e18"/><path d="M217.456,150.517l.876-.448.027-.022v-1.353l-1.213.222a6.059,6.059,0,0,1,.307,1.6Z" transform="translate(-193.842 -132.316)" fill="#ad7e15"/><path d="M228.4,140.959h21.316v2.314l.593.256v-3.161H227.8v2.439l.593-.3Z" transform="translate(-202.783 -125.326)" fill="#ad7e15"/><path d="M249.712,183.56a6.823,6.823,0,0,1-1.353,3.3c-1.222,1.809-3.824,4.537-9.278,7.281-5.483-2.744-8.1-5.472-9.325-7.281a6.791,6.791,0,0,1-1.36-3.306V172.983h1.792l-.081-.3-.081-.3H228.4v-.367l-.343.342-.027.025-.01.01-.212.2V183.56c0,.229.126,5.708,11.147,11.18l.133.064.131-.064c10.962-5.472,11.09-10.951,11.09-11.18v-9.981l-.593-.571Z" transform="translate(-202.783 -151.904)" fill="#ad7e15"/><path d="M259.455,174.9H271.4l.151-.3.153-.3H259.154l.151.3Z" transform="translate(-229.087 -153.822)" fill="#ad7e15"/><path d="M353.014,174.617l-.01-.01-.3-.3h-1.237l-.081.3-.081.3h2Z" transform="translate(-306.406 -153.822)" fill="#ad7e15"/><path d="M195.721,47.191l-5.7,7.9.964.449Z" transform="translate(-171.086 -47.102)" fill="#ad7e15"/><path d="M137.827,107.811l.861-.8-.378,1.109a6.627,6.627,0,0,1-1.368,2.291,1.068,1.068,0,0,0,.732-.273l.588-.614-.078.844a2.953,2.953,0,0,1-1.16,1.952,1.853,1.853,0,0,0,.97-.033,1.129,1.129,0,0,0,.651-.64l.325-.716.229.753a1.96,1.96,0,0,1-.967,2.082c-.286.209-.1.984.186,1.659l1.406-2.815.08.836a2.764,2.764,0,0,0,.157-3.5c.831-.046.951.343.968.444a2.3,2.3,0,0,0-1.841-2.356,2.909,2.909,0,0,0,.8-.907c.323-.8-.125-1.105-.125-1.105-.717-.684-.032-1.621.346-2.039a3.87,3.87,0,0,0-2.2,1.861,9.018,9.018,0,0,0-.651,1.374,2.9,2.9,0,0,1-.675,1.135A1.545,1.545,0,0,0,137.827,107.811Z" transform="translate(-126.33 -94.781)" fill="#c48e18"/><path d="M215.149,160.7l.042-.007-.042.007Z" transform="translate(-192.166 -142.388)" fill="#c48e18"/><path d="M80.595,174.85a1.632,1.632,0,0,1,1.047-.426c-.086,1.044-.173,1.639-.173,1.639a8.043,8.043,0,0,0,.812-.064c-.084.49.086,1.322.77,1.487s.447-.443.447-.443a7.872,7.872,0,0,0,.951.753,1.359,1.359,0,0,1-.106-.241,2.752,2.752,0,0,1,.286-1.957A2.277,2.277,0,0,1,83,175.412l-.338-.222.314-.256a2.392,2.392,0,0,0,.793-1.77,1.411,1.411,0,0,1-.7.143l-.363-.015.086-.352a2.573,2.573,0,0,0-.674-2.466,1.389,1.389,0,0,1-.314,1.393l-.259.2-.175-.278c-.047-.071-.987-1.534-2.153-1.344A2.134,2.134,0,0,1,80.3,171.8l.032.254C81.414,172.571,80.595,174.85,80.595,174.85Z" transform="translate(-78.118 -150.566)" fill="#c48e18"/><path d="M174.451,231.285h-3.907l-.675-1.234.779-2.792-.02-.015c-.689.238-2.369,1.22-1.661,5.01l.022.036h4.862l.415,1.507h1.913l-.4-1.184Z" transform="translate(-153.274 -198.26)" fill="#c48e18"/><path d="M134.951,106.625s1.049,1.612,4.73-1.573c.19-.165.388-.342.593-.534l.072-.064.471-.19s1.674,1.157,2.548.746l-.217-.514-1.691-.96-.264-.15-.918.47-.593.3-.2.1-1.012.519-.753.13-1.82.315-.1-.561h0s0,0,0,0l0-.02.047-.007c.531-.313.469-1.344.469-1.344A6.217,6.217,0,0,0,134.2,99.63a5.12,5.12,0,0,0-1.755-.852l-.274.047-1.254-1.295.425-.409c-1.431-2.468,1.23-2.3,1.23-2.3a.454.454,0,0,0-.057.586c.235.423,1.471.239,1.471.239a4.913,4.913,0,0,1-.346.4,1.075,1.075,0,0,1-1.094.234c-.062.684.188.854.563.967.259.079,1.247.418,1.607-.153.5-.79,1.052-.455,1.052-.455s1.032.866,1.351.571c.5-.458-.077-.9-.39-1.09l-5.6-2.575v.894l-1.822-.894v1.285c0,.037,0,.076,0,.118,0,.768.133,2.508.765,3.02,1.326,1.068,1.536,1.644,1.563,1.75l.143.527-.521-.17a6.153,6.153,0,0,0-1.025-.224c.913.726,2.4,2.087,2.36,3.271l-.025.743-.494-.556a1.641,1.641,0,0,0-.736-.443c.5,1.044.852,2.713-.407,3.727l-.378.308-.1-.477a10.531,10.531,0,0,0-.526-1.728,12.235,12.235,0,0,0-.726,2.873l-.076,1.063-.484-.95a14.289,14.289,0,0,1-.788-1.9l-1.1,2.2-.272-.5c-.032-.059-.081-.153-.141-.276-.864.908-3.059,3.377-3.535,5.44h0a3.734,3.734,0,0,0,2.767,3.98l-.393,1.524-.264,1-.141.534a2.237,2.237,0,0,0,.59,1.607,41.275,41.275,0,0,1,3.987,4.6,1.138,1.138,0,0,0,1.19.544l-1.486-2.021-2.489-2.754-.035-1.514,2.392-2.769-.476-2.739-.007,0-.037-.266-.037-.212,0,0-.23-1.541a1.208,1.208,0,0,0-.533-.662c-.118-.069-.247-.138-.378-.2-.049-.027-.1-.052-.146-.074-.185-.094-.363-.175-.5-.234l-.116-.052c-.057-.027-.1-.044-.116-.052a6.266,6.266,0,0,0,.662.143c.062.01.123.02.185.027s.138.02.2.025.124.012.185.015a5.9,5.9,0,0,0,2.726-.418,15.125,15.125,0,0,0,2.659-1.5c.361-.389.121-.605.017-.674l-.03,0v-.02h0l-.012-.276-.01-.3.027,0A3.58,3.58,0,0,0,134.951,106.625Zm-7.224,7.308c.089.692.178,1.351.252,1.876,0,.049.012.1.02.143s.012.094.02.138.012.089.017.13c.049.335.084.576.1.672a.107.107,0,0,0,0,.012v.01s0-.007,0-.012v0c-.007-.027-.015-.069-.027-.123s-.022-.1-.035-.163-.034-.162-.057-.258c-.007-.032-.015-.066-.025-.1l-.007-.037c-.01-.034-.017-.069-.027-.108a.26.26,0,0,0-.01-.042c-.007-.037-.017-.074-.027-.111-.017-.071-.034-.145-.054-.222-.044-.172-.1-.359-.151-.549-.091-.322-.2-.66-.316-.99-.017-.049-.035-.1-.052-.145a8.382,8.382,0,0,0-.425-.985,1.781,1.781,0,0,0-.089-.165,3.039,3.039,0,0,0-.383-.559,1.407,1.407,0,0,0-.1-.108S127.525,112.343,127.727,113.933Zm5.53-7.908s1.958-2.119,0-6.213c0,0,2.943,2.577,1.4,5.634C134.66,105.446,134.025,106.3,133.258,106.024Z" transform="translate(-114.662 -86.013)" fill="#c48e18"/><path d="M152.914,105.765s.448.307.125,1.105a2.908,2.908,0,0,1-.8.907,2.3,2.3,0,0,1,1.841,2.356.221.221,0,0,1,0,.024c0-.008,0-.015,0-.024-.017-.1-.137-.49-.968-.444a2.764,2.764,0,0,1-.157,3.5l.019.194a6.533,6.533,0,0,0,.51,1.649,18.03,18.03,0,0,1,.848-2.66l.21-.507.31.454a7.068,7.068,0,0,1,.774,1.945c.812-1.2-.31-3.018-.323-3.038l-.23-.365.424-.082a1.676,1.676,0,0,1,1.028.134,9.273,9.273,0,0,0-2.581-2.569l-.492-.336.566-.188a2.972,2.972,0,0,1,1.365,0c-.1-.114-.23-.246-.389-.394s-.348-.314-.574-.5c-.828-.667-.964-2.465-.983-3.256-.053.013-.113.03-.176.049C152.883,104.144,152.2,105.081,152.914,105.765Z" transform="translate(-139.382 -94.523)" fill="#ad7e15"/><path d="M163.675,143.913c0,.008,0,.015,0,.024A.222.222,0,0,0,163.675,143.913Z" transform="translate(-148.977 -128.302)" fill="#ad7e15"/><path d="M179.631,103.885c-.319.3-1.351-.571-1.351-.571s-.553-.335-1.052.455c-.361.571-1.348.231-1.607.153-.375-.113-.625-.283-.563-.967a1.075,1.075,0,0,0,1.094-.234,4.925,4.925,0,0,0,.346-.4s-1.237.185-1.471-.239a.454.454,0,0,1,.057-.586s-2.649-.1-1.212,2.284l.01.047-.027-.027,1.037,1.068,2.257-.389,1.481.463a1.224,1.224,0,0,0,1.126-.106,2.185,2.185,0,0,0,.6-1.526l-1.111-.517C179.554,102.984,180.127,103.427,179.631,103.885Z" transform="translate(-157.174 -92.693)" fill="#ad7e15"/><path d="M173.8,103.773c-1.437-2.388,1.212-2.284,1.212-2.284s-2.661-.164-1.23,2.3l.027.027Z" transform="translate(-157.106 -92.685)" fill="#ad7e15"/><path d="M137.182,262.622a41.288,41.288,0,0,0-3.987-4.6,2.236,2.236,0,0,1-.59-1.607l-.5,1.893,3.661,3.365,1.368,1.807v1.546h2.17l-.6-1.413-.331-.448A1.138,1.138,0,0,1,137.182,262.622Z" transform="translate(-122.492 -222.752)" fill="#ad7e15"/><path d="M80.508,185.676a3.1,3.1,0,0,0-.094.807l.007.3H79.226l-.064-.027a1.134,1.134,0,0,1-.467-.478,7.871,7.871,0,0,1-.951-.753s.235.608-.447.443-.854-1-.77-1.487a8.037,8.037,0,0,1-.812.064s.086-.6.173-1.639a1.632,1.632,0,0,0-1.047.426s.82-2.279-.264-2.8l.01.074-1.388.01a2.786,2.786,0,0,1,1.143,1.159.6.6,0,0,1-.059.487l-.113.19-.215-.057a3.6,3.6,0,0,0-1.59-.079,2.368,2.368,0,0,1,1.121.99.682.682,0,0,1-.025.569l-.015.03c-.022.034-.193.362.491.82l.481.318-.541.2a3.425,3.425,0,0,1-1.1.207c.2.322.765.827,2.338,1.157l1.01.212-.968.354a4.989,4.989,0,0,0-.474.212,6.66,6.66,0,0,0,2.225-.076,1.694,1.694,0,0,1,1.034-.012l.175.044a6.718,6.718,0,0,0,1.151.148H80.4l.057,1.349c.171,1.439,2.143,2.24,2.165,2.245l.259.091.393-1.524A3.734,3.734,0,0,1,80.508,185.676Z" transform="translate(-72.365 -159.051)" fill="#ad7e15"/><path d="M125.566,216.528a3.734,3.734,0,0,1-2.766-3.98h0A3.734,3.734,0,0,0,125.566,216.528Z" transform="translate(-114.656 -185.923)" fill="#ad7e15"/><path d="M151.644,189.838a15.125,15.125,0,0,1-2.659,1.5,5.9,5.9,0,0,1-2.726.418c-.062,0-.123-.01-.185-.015s-.136-.012-.2-.025-.123-.017-.185-.027a6.261,6.261,0,0,1-.662-.143c.017.007.059.025.116.052l.116.052c.133.059.311.14.5.234.049.022.1.047.146.074.131.066.259.135.378.2a1.208,1.208,0,0,1,.533.662l.23,1.541,6.879-5.282-2.254.081C151.765,189.232,152,189.449,151.644,189.838Z" transform="translate(-133.327 -166.223)" fill="#ad7e15"/><path d="M157.782,223.593l-.044-.261.037.266Z" transform="translate(-143.996 -194.976)" fill="#ad7e15"/><path d="M203.635,162.856v0s0,0,0,0Z" transform="translate(-182.501 -144.204)" fill="#ad7e15"/><path d="M186.71,129.87s.062,1.031-.469,1.344l1.8-.313.032-.113a5.352,5.352,0,0,0-.3-1.489c-.054-.155-.114-.3-.178-.448a8.23,8.23,0,0,0-3.755-3.653h0l-1,.158a5.118,5.118,0,0,1,1.755.852A6.217,6.217,0,0,1,186.71,129.87Z" transform="translate(-165.063 -112.591)" fill="#ad7e15"/><path d="M215.191,160.137c0-.035-.007-.069-.01-.106l-.032.113Z" transform="translate(-192.166 -141.834)" fill="#ad7e15"/><path d="M164.52,219.673l-1.857-1.447-1.147.86.546,3.135-.4.513,1.2,1.95C162.151,220.893,163.831,219.911,164.52,219.673Z" transform="translate(-147.166 -190.69)" fill="#ad7e15"/><path d="M193.416,161.408l.6-.6,1.353.733.289,1.061.081.3.081.3h1.684l-.153-.3-.151-.3-.373-.726-.323-.766c-.874.411-2.548-.746-2.548-.746l-.471.189-.072.064c-.2.192-.4.369-.592.534-3.681,3.185-4.73,1.573-4.73,1.573a3.581,3.581,0,0,1-1.98,1.738l4.308-.158,2.237-2.151.165-.165Z" transform="translate(-167.804 -142.118)" fill="#ad7e15"/><path d="M189.3,138.256c1.541-3.057-1.4-5.634-1.4-5.634,1.958,4.093,0,6.213,0,6.213C188.661,139.115,189.3,138.256,189.3,138.256Z" transform="translate(-169.297 -118.823)" fill="#ad7e15"/><path d="M145.077,210.127a3.036,3.036,0,0,1,.383.559,1.772,1.772,0,0,1,.089.165,8.363,8.363,0,0,1,.425.984c.017.047.035.1.052.145.118.33.225.667.316.99.054.189.106.377.151.549.02.076.037.15.054.222.01.037.02.074.027.111a.274.274,0,0,1,.01.042c.01.039.017.074.027.108l.007.037c.01.037.017.071.025.1.022.1.042.182.057.258s.027.116.035.163.02.1.027.123v-.007c-.015-.1-.049-.337-.1-.672,0-.042-.01-.086-.017-.13s-.012-.091-.02-.138-.015-.093-.02-.143c-.074-.524-.163-1.184-.252-1.876-.2-1.59-1.378-1.7-1.378-1.7A1.372,1.372,0,0,1,145.077,210.127Z" transform="translate(-133.288 -183.8)" fill="#ad7e15"/><path d="M156.068,239.127v-.01a0,0,0,0,1,0,0C156.066,239.12,156.068,239.122,156.068,239.127Z" transform="translate(-142.593 -208.227)" fill="#ad7e15"/><path d="M156.066,239.064a0,0,0,0,0,0,0,.108.108,0,0,1,0-.012v.01Z" transform="translate(-142.593 -208.175)" fill="#ad7e15"/><path d="M389.569,241.406l-.617,1.769h-3.573l-1.332,1.328-.4,1.185h1.913l.415-1.507h4.441A4.524,4.524,0,0,0,389.569,241.406Z" transform="translate(-333.545 -210.15)" fill="#c48e18"/><path d="M479.857,211.516l.745-.586a2.969,2.969,0,0,0-2.331-.143l-.074.027h.015C479.193,211.484,479.593,211.555,479.857,211.516Z" transform="translate(-412.874 -184.29)" fill="#c48e18"/><path d="M471.269,231.737l-.464.554A3.813,3.813,0,0,0,471.269,231.737Z" transform="translate(-406.671 -202.033)" fill="#c48e18"/><path d="M401.721,127.962l-.065.007-.048.035-.013.01Z" transform="translate(-348.602 -114.911)" fill="#c48e18"/><path d="M360.824,77.364c3.027-.561,3.494-4.311,3.61-5.453a12.478,12.478,0,0,0-2.558-3.57,6.447,6.447,0,0,0-3.817-1.083c-.067,0-.134,0-.2,0-.175.007-.343.02-.5.034l-.106.012c-.106.012-.207.025-.3.039l-.094.015c-.294.049-.536.1-.709.148l-.057.015c-.1.027-.178.049-.215.062.286-.113.538-.226.763-.342.114-.059.222-.116.321-.175s.2-.116.282-.175.165-.111.239-.167c0,0,.005,0,.005,0,.074-.054.141-.111.2-.165a1.829,1.829,0,0,0,.738-1.216l-.012-.039c-.37-1.233-.017-2.7-.035-3.813a21.1,21.1,0,0,0-.54-4.8c-.064-.19-.181-.779-.181-.779V54.163l-1,.818-.019-.186,0,0h0s0-.012,0-.017a.116.116,0,0,1,0-.042.5.5,0,0,1,.015-.1,1.112,1.112,0,0,1,.1-.219,1.756,1.756,0,0,1,.358-.419,3.622,3.622,0,0,1,.472-.354c.17-.1.358-.2.548-.3.042-.02.084-.044.126-.064a6.064,6.064,0,0,0,2.029-1.536,4.569,4.569,0,0,0,.854-1.77,3.978,3.978,0,0,0,.432-.079,1.765,1.765,0,0,0,.523-.229,1.689,1.689,0,0,0,.617-.9,4.735,4.735,0,0,0,.173-1.024c.01-.17.01-.34.017-.51l-.01-.51-.047.5c-.025.167-.045.335-.074.5a4.524,4.524,0,0,1-.271.955,1.4,1.4,0,0,1-.583.7,1.644,1.644,0,0,1-.691.153c.015-.1.027-.194.037-.29.015-.192.02-.382.02-.569a2.062,2.062,0,0,0,.2-.216,1.742,1.742,0,0,0,.183-.266,1.085,1.085,0,0,0,.158-.6,1.012,1.012,0,0,1-.286.51,1.975,1.975,0,0,1-.22.187.557.557,0,0,0-.049.032,7.076,7.076,0,0,0-.316-1.676c.012.409.017.815.01,1.218a3.014,3.014,0,0,1-.852-.3.854.854,0,0,1-.333-.347c-.079-.148-.136-.315-.23-.46.072.158.1.325.155.492a.978.978,0,0,0,.314.441,3.344,3.344,0,0,0,.933.485c-.007.108-.01.219-.02.327-.017.231-.042.46-.079.689-.017.118-.042.236-.067.352h0v.015a4.149,4.149,0,0,1-.906,1.846,4.6,4.6,0,0,1-.83.729,2.09,2.09,0,0,0,.044-.217,3.127,3.127,0,0,0,.01-.758,7.829,7.829,0,0,0-.269-1.428,7.9,7.9,0,0,1,.032,1.43,2.632,2.632,0,0,1-.126.67c-.037.1-.084.2-.136.32a1.412,1.412,0,0,0-.094.322q-.318.177-.652.34c-.192.1-.39.195-.592.315a3.953,3.953,0,0,0-.338.241,3.479,3.479,0,0,1-.3-.925,7.748,7.748,0,0,1-.141-1.381v0h-.005v0a8.063,8.063,0,0,0-.1,1.408,4.212,4.212,0,0,0,.072.721,2.68,2.68,0,0,0,.133.48,2.44,2.44,0,0,0-.165.19c-.2-.057-.412-.121-.622-.185-.1-.03-.195-.059-.291-.091l-.035-.012-.3-.1-.173-.057-.094-.032-.03-.01a.66.66,0,0,1-.1-.042.776.776,0,0,1-.175-.123,1.522,1.522,0,0,1-.412-.81c0-.015-.01-.032-.012-.047-.022-.1-.037-.2-.052-.31a5.383,5.383,0,0,1-.042-.751,3.263,3.263,0,0,0-.134.709c-.007.106-.012.209-.01.315,0,.022,0,.044,0,.066a1.872,1.872,0,0,0,.306,1.012c.022.032.044.064.069.094a1.251,1.251,0,0,0,.22.187l.03.022a1.021,1.021,0,0,0,.143.079l.128.056c.168.074.333.148.506.209.044.017.091.032.136.049.136.049.274.094.415.138.084.027.168.054.254.076-.012.032-.02.066-.032.1a.906.906,0,0,0-.03.091,1.067,1.067,0,0,0-.027.219.671.671,0,0,0,.005.121.578.578,0,0,0,.03.15l0,.01-.141,0-.511,0-.175,0h-.005l-.094,0c-.153,0-.162-.1-.164-.254v-.1l-.007-.487-4.712,3.586c-.272.586-.679,1.7.175,1.659s.155-.876.155-.876a1.833,1.833,0,0,1,1.627.327c.511.445,1.526.094,1.773-.01.98-.416,1.276-1.511.422-1.477-.22.01-.5.3-.884.025-.109-.076-.417-.359-.417-.359s1.365.256,1.736-.593c.18-.411.77.337.77.337.815,1.551.045,2.178.045,2.178l-.015,0-.378.453-.358.426-1.245.177-.012.005c-.148.116-.731.564-1.313.984-.83.6-1.39,1.221-1.906,3.188a1.638,1.638,0,0,0-.007.8,1.223,1.223,0,0,0,.383.623,1.483,1.483,0,0,0,.257.185l-.022.054-.067.586-1.834-.2-1.81-.78-.592-.256-1.358-.586-1.773,1-.161.536.02-.032c.746.381,2.217-.635,2.217-.635l.407.162c.225.214.442.409.647.583s.4.337.592.48c2.629,2,3.4.807,3.4.807a2.98,2.98,0,0,0,1.595,1.452l.133,0-.02.591c-.259.182-.977.589,2.536,1.756,2.469.82,4.29.149,4.347-.525a7.482,7.482,0,0,1-.373,2.031l-.331.921-1.449,4.253,2.3,2.661,1.341,1.686-2.56,2.838-.913,1.925a.815.815,0,0,0,1.034-.391c.358-.788.39-1.63,3.318-4.187.393-.345-.247-2.4-.469-3.064l-.4-.692A1.162,1.162,0,0,1,360.824,77.364Zm-9.162-12.127a2.291,2.291,0,0,1-.193-1.607c.007-.035.017-.069.027-.1a2.63,2.63,0,0,1,.113-.325c.012-.032.027-.064.042-.1.022-.049.047-.1.072-.148a3.86,3.86,0,0,1,.62-.857.379.379,0,0,1,.032-.032l.032-.032a.1.1,0,0,1,.022-.022.4.4,0,0,1,.042-.039,5.918,5.918,0,0,0-.281.7c-.02.057-.037.116-.052.17s-.03.1-.042.153c-.03.118-.054.231-.072.34-.01.057-.017.111-.025.165s-.015.133-.02.2-.007.128-.01.187c0,.108,0,.209.008.308,0,.071.012.143.022.209a2.811,2.811,0,0,0,.079.372,1.461,1.461,0,0,0,.052.165,2.125,2.125,0,0,0,.138.32c.015.03.03.059.045.084.03.052.059.094.082.128a1.033,1.033,0,0,0,.079.1C352.03,65.734,351.662,65.237,351.662,65.237Zm2.084-3.884c-.057.116-.109.234-.156.352s-.084.219-.118.33c-.02.059-.039.118-.054.177s-.03.1-.042.143l-.044.172c-.04.172-.074.34-.1.5a7.356,7.356,0,0,0-.067,1.918,4.858,4.858,0,0,1-.235-2.5,3.163,3.163,0,0,1,.089-.416,1.685,1.685,0,0,1,.062-.2.1.1,0,0,0,.007-.017c.027-.074.057-.143.089-.209.015-.032.032-.064.049-.1a1.678,1.678,0,0,1,.1-.175q.055-.085.111-.155a.813.813,0,0,1,.057-.071.74.74,0,0,1,.057-.064.715.715,0,0,1,.057-.062.594.594,0,0,1,.057-.056c.02-.02.039-.037.057-.052a.429.429,0,0,1,.054-.047,1.841,1.841,0,0,1,.37-.244l.052-.025a.29.29,0,0,1,.035-.015.019.019,0,0,1,.01,0A4.7,4.7,0,0,0,353.746,61.353ZM360.288,72.3c-.007.066-.02.133-.032.2a4.083,4.083,0,0,1-.094.414.276.276,0,0,1-.01.034c-.039.143-.084.293-.133.443-.027.079-.054.157-.081.239-.015.039-.03.079-.044.121s-.03.079-.044.12-.032.079-.047.121c-.027.066-.054.135-.081.2-.049.118-.1.239-.151.359-.025.057-.049.111-.074.167-.012.025-.022.047-.032.071-.037.081-.074.16-.109.239-.057.118-.111.234-.165.35-.02.039-.039.079-.057.116-.03.059-.057.116-.086.172-.02.037-.037.076-.057.113-.138.276-.274.534-.4.77-.03.054-.057.106-.084.155-.039.071-.076.138-.111.2l-.079.14c-.119.212-.22.384-.291.51-.01.015-.017.03-.027.044l-.025.044-.037.061c-.017.027-.027.047-.035.057s0,.007,0,.01a.2.2,0,0,1,.01-.03.04.04,0,0,1,.007-.02c0-.02.015-.044.025-.074.03-.079.069-.2.121-.34.012-.035.027-.071.039-.111.089-.246.2-.554.318-.889.032-.089.064-.18.1-.271.138-.381.284-.785.422-1.162.04-.106.077-.212.116-.313.057-.157.111-.305.163-.44.025-.066.049-.13.072-.192s.044-.113.064-.165a11.14,11.14,0,0,0,.551-2.735.6.6,0,0,1,.19.138.745.745,0,0,1,.131.2.936.936,0,0,1,.074.249A2.193,2.193,0,0,1,360.288,72.3Z" transform="translate(-299.83 -46.636)" fill="#c48e18"/><path d="M455.993,244.269l-.343.147Z" transform="translate(-393.955 -212.554)" fill="#c48e18"/><path d="M422.37,164.422c-.062.054-.129.111-.2.165,0,0,0,0,0,.005-.074.057-.153.113-.239.167s-.18.118-.282.175-.207.118-.321.175c-.225.116-.477.229-.763.342.037-.012.111-.035.215-.062l.057-.015c.173-.044.415-.1.709-.148l.094-.015c.1-.015.2-.027.3-.039l.106-.012c.158-.015.326-.027.5-.035.064,0,.131,0,.2,0a6.447,6.447,0,0,1,3.817,1.083,34.6,34.6,0,0,0-3.355-2.885l-.094-.113A1.829,1.829,0,0,1,422.37,164.422Z" transform="translate(-364.512 -144.499)" fill="#ad7e15"/><path d="M456.625,206.284l-.508-.177.022-.02c-.264.039-.664-.032-1.645-.7h-.015l-.133.044-.01,0-.185.062-.079-.45a4.185,4.185,0,0,0-.314-.91c-.116,1.142-.583,4.892-3.61,5.453a1.162,1.162,0,0,0,.017,1.425l.522-.225.161-.067.343-.147a8.839,8.839,0,0,0,2.1-1.457l.464-.554a2.184,2.184,0,0,0,.353-1.112v-.015l.057-1.354h.133l.146,0h.027a1.465,1.465,0,0,1,1.4,1.026l.007.037c.077.465.63.615,1,.667a.607.607,0,0,1,.076-.2,1.576,1.576,0,0,1,1.047-.556A4.568,4.568,0,0,0,456.625,206.284Z" transform="translate(-389.155 -178.861)" fill="#ad7e15"/><path d="M451.4,245.474l.684-.292-.161.067Z" transform="translate(-390.392 -213.32)" fill="#ad7e15"/><path d="M417.646,222.74h.377l.472-1.33-1.031-1.192,1.373-4.026-.733-.324-2.005,1.587.888,1.956-.194.555A4.524,4.524,0,0,1,417.646,222.74Z" transform="translate(-360.771 -188.71)" fill="#ad7e15"/><path d="M396.966,190.589c-.057.674-1.536,1.6-4.005.777-3.513-1.167-3.905-1.845-3.646-2.028l.768.02-1.78-.047a6.478,6.478,0,0,0,.715.958l7.245,3.271.331-.921A7.485,7.485,0,0,0,396.966,190.589Z" transform="translate(-337.448 -166.415)" fill="#ad7e15"/><path d="M397.9,191.5c2.469.82,3.949-.1,4.005-.777-.057.674-1.879,1.345-4.347.525-3.513-1.167-2.8-1.574-2.536-1.756l-.768-.02C394,189.659,394.387,190.338,397.9,191.5Z" transform="translate(-342.388 -166.554)" fill="#ad7e15"/><path d="M382.448,135.673a1.223,1.223,0,0,1-.383-.623,1.64,1.64,0,0,1,.008-.8c.516-1.967,1.076-2.587,1.906-3.187.582-.421,1.165-.869,1.313-.985,0,0-1.208.475-1.594.67a3.137,3.137,0,0,0-.549.327,3.831,3.831,0,0,0-1.288,1.528,3.911,3.911,0,0,0-.2.445,6.957,6.957,0,0,0-.43,1.7c-.022.155-.037.318-.052.485s-.022.337-.025.514l1.528.17.022-.054A1.487,1.487,0,0,1,382.448,135.673Z" transform="translate(-331.45 -116.686)" fill="#ad7e15"/><path d="M393.677,145.594c-.015-.025-.03-.054-.045-.084a2.112,2.112,0,0,1-.138-.32,1.486,1.486,0,0,1-.052-.165,2.779,2.779,0,0,1-.079-.372c-.01-.066-.017-.138-.022-.209-.008-.1-.01-.2-.008-.308,0-.059.005-.123.01-.187s.01-.13.02-.2.015-.108.025-.165c.017-.108.042-.221.072-.34.012-.049.027-.1.042-.153s.032-.113.052-.17a5.914,5.914,0,0,1,.281-.7.386.386,0,0,0-.042.039.1.1,0,0,0-.022.022l-.032.032a.377.377,0,0,0-.032.032,3.856,3.856,0,0,0-.62.857c-.025.049-.05.1-.072.148-.015.032-.03.064-.042.1a2.608,2.608,0,0,0-.114.325c-.01.034-.02.069-.027.1a2.29,2.29,0,0,0,.193,1.607s.368.5.812.337a1.029,1.029,0,0,1-.079-.1A1.491,1.491,0,0,1,393.677,145.594Z" transform="translate(-341.193 -126.884)" fill="#ad7e15"/><path d="M398.425,163.222a1.5,1.5,0,0,0,.082.128C398.484,163.316,398.455,163.274,398.425,163.222Z" transform="translate(-345.941 -144.513)" fill="#ad7e15"/><path d="M386.345,107.466s-.59-.748-.77-.337c-.37.849-1.736.593-1.736.593s.309.283.417.359c.388.276.664-.015.884-.025.854-.035.558,1.061-.422,1.477-.247.1-1.262.455-1.773.01a1.832,1.832,0,0,0-1.627-.327s.684.834-.155.876-.447-1.073-.175-1.659l-.914.716a2,2,0,0,0,.38,1.349,1.9,1.9,0,0,0,1.4.623l.39-.163.007,0,1.276-.534,0,0h0l.014-.01.047-.036.064-.007.578-.241,1.094-.155.588-.7.457.379.015,0S387.159,109.017,386.345,107.466Z" transform="translate(-330.54 -97.318)" fill="#ad7e15"/><path d="M401.593,128.237l.013-.01-.014.01Z" transform="translate(-348.598 -115.134)" fill="#ad7e15"/><path d="M429.431,254.373c-2.928,2.557-2.96,3.4-3.318,4.187a.815.815,0,0,1-1.034.391l-.279.591-.622,1.2h2.131l-.015-1.455.75-1.664,3.662-3.365-1.743-2.946C429.184,251.976,429.824,254.029,429.431,254.373Z" transform="translate(-367.548 -218.464)" fill="#ad7e15"/><path d="M347.32,166.206s-.775,1.191-3.4-.807q-.281-.214-.592-.48c-.2-.175-.422-.369-.647-.583l-.407-.163s-1.472,1.017-2.217.635l-.02.032-.19.633-.168.327-.151.3-.151.3h1.309l.079-.3.081-.3.175-.642,1.207-.655,1.1,1.088.094.091.5.482,1.415,1.361,3.585.133A2.979,2.979,0,0,1,347.32,166.206Z" transform="translate(-296.394 -145.311)" fill="#ad7e15"/><path d="M435.515,199.3a.937.937,0,0,0-.074-.249.741.741,0,0,0-.131-.2.6.6,0,0,0-.19-.138,11.139,11.139,0,0,1-.551,2.735c-.02.052-.042.106-.064.165s-.047.125-.072.192c-.052.135-.106.283-.163.441-.039.1-.077.207-.116.313-.138.377-.284.78-.422,1.162-.032.091-.064.182-.1.271-.121.335-.23.643-.319.889-.012.039-.027.076-.039.111-.052.143-.091.261-.121.34-.01.03-.02.054-.025.074a.04.04,0,0,0-.007.02.076.076,0,0,0,0,.02c.007-.01.017-.03.035-.057l.037-.062c.008-.012.015-.027.025-.044s.017-.03.027-.044c.072-.126.173-.3.291-.51.025-.044.052-.091.079-.14s.072-.13.111-.2c.027-.049.054-.1.084-.155.128-.236.264-.495.4-.771.02-.037.037-.076.057-.113.03-.057.057-.113.087-.172.017-.037.037-.076.057-.116.054-.116.109-.231.165-.35.035-.079.072-.157.109-.239.01-.025.02-.047.032-.071.025-.057.05-.111.074-.167.052-.12.1-.241.151-.359.027-.069.054-.138.081-.2.015-.042.032-.081.047-.121s.03-.081.045-.12.029-.081.044-.121c.027-.081.054-.16.081-.239.049-.15.094-.3.133-.443a.226.226,0,0,0,.01-.035c.037-.143.069-.281.094-.413.012-.071.025-.138.032-.2A2.271,2.271,0,0,0,435.515,199.3Z" transform="translate(-375.052 -174.309)" fill="#ad7e15"/><path d="M433.089,240.556s0,0,0-.01a.075.075,0,0,1,0-.02A.2.2,0,0,0,433.089,240.556Z" transform="translate(-375.026 -209.411)" fill="#ad7e15"/><path d="M403.212,133.314l-.052.025a1.841,1.841,0,0,0-.37.244.421.421,0,0,0-.054.047c-.017.015-.037.032-.057.052a.613.613,0,0,0-.057.057.737.737,0,0,0-.057.062.723.723,0,0,0-.057.064.814.814,0,0,0-.057.071q-.055.07-.111.155a1.713,1.713,0,0,0-.1.175c-.017.032-.034.064-.049.1-.032.066-.062.135-.089.209a.108.108,0,0,1-.007.017,1.669,1.669,0,0,0-.062.2,3.167,3.167,0,0,0-.089.416,4.857,4.857,0,0,0,.235,2.5,7.36,7.36,0,0,1,.067-1.918c.027-.162.059-.33.1-.5.015-.056.03-.116.045-.172s.025-.094.042-.143.034-.118.054-.177c.035-.111.074-.222.119-.33s.1-.236.156-.352a4.7,4.7,0,0,1,.5-.81.019.019,0,0,0-.01,0A.308.308,0,0,0,403.212,133.314Z" transform="translate(-348.842 -119.39)" fill="#ad7e15"/><path d="M404.216,145.659c-.042.172-.074.34-.1.5C404.142,146,404.177,145.831,404.216,145.659Z" transform="translate(-350.715 -129.768)" fill="#ad7e15"/><path d="M403.027,71.087a.565.565,0,0,1-.165-.089,1.785,1.785,0,0,1-.479-.714,5.167,5.167,0,0,1-.276-.871,5.241,5.241,0,0,0,.16.911,2.543,2.543,0,0,0,.158.445,1.376,1.376,0,0,0,.274.414.9.9,0,0,0,.22.16,2.016,2.016,0,0,0,.212.091c0-.106,0-.209.01-.315C403.1,71.109,403.064,71.1,403.027,71.087Z" transform="translate(-349.03 -65.758)" fill="#ad7e15"/><path d="M402.005,77.351c-.141-.044-.279-.089-.415-.138-.044-.017-.091-.032-.136-.049-.173-.061-.338-.135-.506-.209l-.128-.056a1.027,1.027,0,0,1-.143-.079l-.03-.022a1.249,1.249,0,0,1-.22-.187c-.025-.03-.047-.062-.069-.094-.131-.025-.259-.052-.388-.084q-.145-.037-.282-.081c-.047-.017-.094-.032-.138-.049l-.116-.057a1.968,1.968,0,0,1-.664-.911,5.757,5.757,0,0,1-.331-1.152,5.868,5.868,0,0,0,.215,1.194,2.134,2.134,0,0,0,.642,1.073l.148.091c.049.027.1.047.143.069.1.042.193.081.289.116.195.071.392.133.592.187l.022.007.568.145c.1.025.19.052.279.079a.97.97,0,0,1,.111.039,7.421,7.421,0,0,1,.1.943l.52,0c-.02-.094-.035-.35-.052-.591C402.013,77.467,402.008,77.408,402.005,77.351Z" transform="translate(-345.953 -69.762)" fill="#ad7e15"/><path d="M408.772,52.408c.074.022.148.042.222.059a2.925,2.925,0,0,1,.412.125.3.3,0,0,1,.185.165c.027.16.062.318.1.475.02.084.039.167.062.249l.3.1.035.012c.1.032.193.062.291.091-.017-.071-.037-.145-.052-.217a7.579,7.579,0,0,1-.21-.95,5.146,5.146,0,0,1,.017-1.885,3.591,3.591,0,0,1,.138-.453c.017-.052.035-.1.049-.153l.057-.076a1.873,1.873,0,0,1,.659-.583.885.885,0,0,1,.2-.079l.126-.037a1.089,1.089,0,0,0,.151-.052,1.46,1.46,0,0,0,.481-.352,2.821,2.821,0,0,0,.553-.94,4.636,4.636,0,0,0,.262-1.021,6.889,6.889,0,0,1-.449.93,3.432,3.432,0,0,1-.449.608,1.75,1.75,0,0,1,.136-.839,1.873,1.873,0,0,0-.37,1.041,1.107,1.107,0,0,1-.318.167c-.035.007-.067.02-.1.025l-.128.022a1.463,1.463,0,0,0-.291.086,1.593,1.593,0,0,0-.3.16c.022-.138.044-.276.059-.416a10.62,10.62,0,0,0,.032-2.018c-.042.332-.084.665-.143.992s-.114.655-.19.975a9.666,9.666,0,0,1-.269.945.219.219,0,0,1-.012.037c-.022.032-.042.061-.062.1l-.01.015a4.5,4.5,0,0,1-.583-1.182A5,5,0,0,1,409.1,46.9a5.147,5.147,0,0,0,.037,1.684c0,.007,0,.012,0,.017a1.178,1.178,0,0,1-.607-.382,1.257,1.257,0,0,0,.625.628l.039.017a5.62,5.62,0,0,0,.158.551,5.871,5.871,0,0,0,.348.8l.034.066c-.027.074-.052.145-.076.219a4.69,4.69,0,0,0-.146,1.674,3.361,3.361,0,0,0-.452-.074c-.124-.015-.24-.032-.356-.054.015.106.03.209.052.31C408.762,52.376,408.769,52.393,408.772,52.408Z" transform="translate(-354.421 -46.649)" fill="#ad7e15"/><path d="M425.269,97.469v0h0Z" transform="translate(-368.462 -89.31)" fill="#c28c16"/><g transform="translate(35.704 23.651)"><path d="M295.4,194.014a.019.019,0,0,1,.022.022v.115a.019.019,0,0,1-.022.022l-.377.037a.019.019,0,0,0-.022.021v2.549a.019.019,0,0,0,.022.022l.377.035c.014,0,.022.008.022.024v.115a.019.019,0,0,1-.022.022h-1.2a.019.019,0,0,1-.022-.022v-.115c0-.016.007-.024.022-.024l.378-.035a.019.019,0,0,0,.022-.022V194.23a.019.019,0,0,0-.022-.021l-.378-.037a.019.019,0,0,1-.022-.022v-.115a.019.019,0,0,1,.022-.022Z" transform="translate(-294.18 -194.014)" fill="#c28c16"/></g><g transform="translate(34.767 33.422)"><path d="M290.3,257.963a.019.019,0,0,1-.022-.022v-.115c0-.016.007-.024.022-.024l.347-.035a.018.018,0,0,0,.017-.009.028.028,0,0,0,0-.022l-.33-.87c-.006-.009-.012-.013-.017-.013h-.968a.026.026,0,0,0-.017.013l-.351.878c-.007.019,0,.029.022.03l.334.026a.021.021,0,0,1,.022.024v.115a.019.019,0,0,1-.022.022h-.961a.019.019,0,0,1-.022-.022v-.115c0-.016.007-.024.022-.024l.365-.035a.026.026,0,0,0,.017-.013l1.13-2.836c.006-.009.012-.013.017-.013h.111a.026.026,0,0,1,.017.013l1.039,2.832a.019.019,0,0,0,.02.013l.354.039c.013,0,.02.008.02.024v.115c0,.014-.008.022-.024.022Zm-.432-2.384c-.006-.009-.012-.013-.017-.013a.017.017,0,0,0-.017.013l-.419,1.06c-.009.02,0,.03.02.03h.8c.023,0,.031-.01.024-.03Z" transform="translate(-288.358 -254.906)" fill="#c28c16"/></g><g transform="translate(30.272 28.125)"><path d="M261.928,222.717c-.014,0-.022-.006-.022-.017l-.089-.5c0-.009-.006-.016-.019-.022a1.009,1.009,0,0,0-.412-.084.63.63,0,0,0-.391.121.425.425,0,0,0-.178.357.481.481,0,0,0,.158.363,1.341,1.341,0,0,0,.347.21l.289.132a1.644,1.644,0,0,1,.493.316.693.693,0,0,1,.193.5.8.8,0,0,1-.343.692,1.28,1.28,0,0,1-.768.221,2.516,2.516,0,0,1-.545-.069,1.068,1.068,0,0,1-.158-.047q-.022-.009-.022-.022V224.2a.019.019,0,0,1,.022-.021h.182c.014,0,.022.01.022.017l.089.5a.021.021,0,0,0,.009.011l.011.013a.99.99,0,0,0,.434.078.786.786,0,0,0,.458-.128.466.466,0,0,0,.21-.407q0-.363-.486-.59l-.293-.136a1.691,1.691,0,0,1-.477-.305.662.662,0,0,1-.206-.485.776.776,0,0,1,.171-.5.9.9,0,0,1,.438-.3,1.183,1.183,0,0,1,.367-.056,2.351,2.351,0,0,1,.529.063c.049.012.1.026.16.043.015,0,.022.01.022.022v.671a.019.019,0,0,1-.022.021Z" transform="translate(-260.435 -221.897)" fill="#c28c16"/></g><g transform="translate(40.312 28.192)"><path d="M322.809,222.337a.019.019,0,0,1,.022-.022h1.2a.019.019,0,0,1,.021.022v.115a.019.019,0,0,1-.021.022l-.4.037a.019.019,0,0,0-.022.022v2.54a.019.019,0,0,0,.022.022h1.031c.014,0,.022-.006.022-.017l.089-.493c0-.012.007-.017.022-.017h.165a.019.019,0,0,1,.022.022v.688a.019.019,0,0,1-.022.022h-2.133a.019.019,0,0,1-.022-.022v-.115c0-.016.007-.024.022-.024l.373-.035a.019.019,0,0,0,.022-.021v-2.549a.019.019,0,0,0-.022-.022l-.373-.037a.019.019,0,0,1-.022-.022Z" transform="translate(-322.809 -222.315)" fill="#c28c16"/></g></g><g transform="translate(64.667 122.213)"><path d="M65.926,517.947H64.667v4.3h1.259a2.224,2.224,0,0,0,1.57-.595,2.173,2.173,0,0,0,0-3.107A2.225,2.225,0,0,0,65.926,517.947Zm-.625.6h.6a1.581,1.581,0,0,1,1.1.383,1.6,1.6,0,0,1,0,2.329,1.577,1.577,0,0,1-1.1.377h-.6Z" transform="translate(-64.667 -517.889)" fill="#fff"/><path d="M107.463,520.273h1.751v-.6h-1.751V518.55h1.855v-.6h-2.489v4.3h2.53v-.6h-1.9Z" transform="translate(-100.042 -517.889)" fill="#fff"/><path d="M143.942,521.088l-1.129-3.142h-.684l1.567,4.3h.468l1.574-4.3h-.667Z" transform="translate(-129.661 -517.889)" fill="#fff"/><path d="M186.1,520.273h1.751v-.6H186.1V518.55h1.855v-.6h-2.489v4.3h2.53v-.6h-1.9Z" transform="translate(-166.02 -517.889)" fill="#fff"/><path d="M224.7,517.947h-.634v4.3h2.056v-.6H224.7Z" transform="translate(-198.407 -517.889)" fill="#fff"/><path d="M257.558,517.587a2.212,2.212,0,1,0,2.184,2.212A2.128,2.128,0,0,0,257.558,517.587Zm0,3.809a1.607,1.607,0,1,1,1.538-1.6A1.517,1.517,0,0,1,257.558,521.4Z" transform="translate(-224.677 -517.587)" fill="#fff"/><path d="M307.311,518.263h0a1.5,1.5,0,0,0-1.025-.316h-1.074v4.3h.634v-1.855h.44a1.5,1.5,0,0,0,1.025-.316,1.185,1.185,0,0,0,0-1.809Zm-.444,1.374a.961.961,0,0,1-.57.148h-.452V518.55h.452a.959.959,0,0,1,.569.147.57.57,0,0,1,.212.47A.579.579,0,0,1,306.868,519.637Z" transform="translate(-266.493 -517.889)" fill="#fff"/><path d="M345.488,517.947l-1.266,3.125-1.261-3.125h-.612l-.437,4.3h.637l.282-2.965,1.273,3.034h.243l1.269-3.031.293,2.962h.636l-.437-4.3Z" transform="translate(-297.284 -517.889)" fill="#fff"/><path d="M394.176,520.273h1.751v-.6h-1.751V518.55h1.855v-.6h-2.489v4.3h2.53v-.6h-1.9Z" transform="translate(-340.605 -517.889)" fill="#fff"/><path d="M435.083,521.061l-2.389-3.114h-.553v4.3h.634v-3.17l2.418,3.17h.524v-4.3h-.634Z" transform="translate(-372.992 -517.889)" fill="#fff"/><path d="M475.877,518.55h1.185v3.693h.634V518.55h1.185v-.6h-3Z" transform="translate(-409.687 -517.889)" fill="#fff"/><path d="M515.011,519.684l-.082.138.079-.14h0c-.073-.041-.292-.135-.618-.272l-.218-.093c-.307-.131-.5-.277-.5-.6,0-.392.346-.531.671-.531a.843.843,0,0,1,.717.371l.1.132.449-.389-.069-.115a1.4,1.4,0,0,0-1.178-.6,1.207,1.207,0,0,0-1.334,1.14,1.17,1.17,0,0,0,.663,1.063,7.116,7.116,0,0,0,.669.3l.02.008c.224.089.641.254.641.649a.692.692,0,0,1-.769.675,1.012,1.012,0,0,1-.864-.533l-.087-.16-.506.36.067.125a1.524,1.524,0,0,0,1.361.8,1.331,1.331,0,0,0,1.438-1.267A1.189,1.189,0,0,0,515.011,519.684Z" transform="translate(-440.668 -517.587)" fill="#fff"/></g></g></svg>