<svg xmlns="http://www.w3.org/2000/svg" xmlns:xlink="http://www.w3.org/1999/xlink" width="112" height="120" viewBox="0 0 112 120"><defs><clipPath id="a"><rect width="54.823" height="30.694" fill="none"/></clipPath></defs><g transform="translate(-1600.349 -419.643)"><rect width="112" height="120" transform="translate(1600.349 419.643)" fill="#666565"/><rect width="102.884" height="102.782" transform="translate(1604.909 423.636)" fill="#ea5938"/><rect width="49.814" height="0.765" transform="translate(1631.865 529.471)" fill="#c3c3c3"/><rect width="49.814" height="0.765" transform="translate(1631.865 534.882)" fill="#c3c3c3"/><rect width="6.979" height="0.765" transform="translate(1631.862 532.175)" fill="#c3c3c3"/><rect width="7.152" height="0.765" transform="translate(1652.87 532.175)" fill="#c3c3c3"/><rect width="7.152" height="0.765" transform="translate(1674.806 532.175)" fill="#c3c3c3"/><path d="M1609.07,465.434c-.43,0-.646-.16-.646-.478V463.3c0-.315.216-.47.646-.47h5.793c.435,0,.654.158.654.48v1.644c0,.318-.219.478-.654.478Zm.265-.778h5.272v-1.047h-5.272Z" transform="translate(12.469 66.584)" fill="#c3c3c3"/><path d="M1609.76,467.047v-.4h-1.336v-.757h1.336v-1.744h.631l5.124,1.319v.808h-.041l-4.814-1.238v.854h2.135v.757h-2.135v.4Z" transform="translate(12.47 68.605)" fill="#c3c3c3"/><path d="M1635.589,464.157a1.777,1.777,0,0,1,.743.191l3.394,1.612v-1.794h.929v2.844H1640l-4.214-1.985h-1.308v1.068h1.315v.857h-1.575c-.427,0-.641-.181-.641-.534v-1.721c0-.358.214-.536.641-.536Z" transform="translate(51.311 68.629)" fill="#c3c3c3"/><path d="M1635.589,462.827a1.739,1.739,0,0,1,.743.191l3.394,1.611v-1.795h.929v2.842H1640l-4.214-1.985h-1.308v1.068h1.315v.859h-1.575c-.427,0-.641-.18-.641-.536v-1.718c0-.358.214-.536.641-.536Z" transform="translate(51.311 66.578)" fill="#c3c3c3"/><rect width="13.011" height="1.474" transform="translate(1604.98 529.412)" fill="#c3c3c3"/><rect width="13.011" height="1.472" transform="translate(1604.98 531.789)" fill="#c3c3c3"/><rect width="13.011" height="1.474" transform="translate(1604.98 534.165)" fill="#c3c3c3"/><rect width="13.011" height="1.474" transform="translate(1694.71 529.412)" fill="#c3c3c3"/><rect width="13.011" height="1.472" transform="translate(1694.71 531.789)" fill="#c3c3c3"/><rect width="13.011" height="1.474" transform="translate(1694.71 534.165)" fill="#c3c3c3"/><rect width="11.915" height="1.474" transform="translate(1694.876 529.412)" fill="#c3c3c3"/><rect width="11.915" height="1.472" transform="translate(1694.876 531.789)" fill="#c3c3c3"/><rect width="11.915" height="1.474" transform="translate(1694.876 534.165)" fill="#c3c3c3"/><path d="M1643.366,437.657h-3.241V427.579h-7.389v-3.6h18.016v17.276h-3.244V427.579h-4.143Z" transform="translate(50.013 6.686)" fill="#fff"/><path d="M1641.6,455.5h9.368v3.6H1641.6c-5.19,0-9.009-3.67-9.009-8.637s3.819-8.639,9.009-8.639h9.368v3.6H1641.6c-3.242,0-5.585,2.125-5.585,5.04s2.343,5.038,5.585,5.038" transform="translate(49.793 34.191)" fill="#fff"/><path d="M1650.752,450.884v12.958a5.1,5.1,0,0,1-5.4,5.4,4.976,4.976,0,0,1-5.187-4.712,6.15,6.15,0,0,1-.866.646l-6.559,4.067v-4.067l7.388-4.57v-6.12h-7.388v-3.6Zm-7.386,12.958a1.7,1.7,0,0,0,1.8,1.8h.54a1.7,1.7,0,0,0,1.8-1.8v-9.359h-4.142Z" transform="translate(50.013 48.165)" fill="#fff"/><path d="M1606.539,432.8h16.935v2.88l-12.07,11.88h12.429v3.238h-17.655v-2.882l12.035-11.877h-11.673Z" transform="translate(9 20.277)" fill="#1d1d1b"/><path d="M1618.631,436.034v4.141h10.45v3.238h-10.45v4.14h14.052v3.241h-17.655v-18h17.655v3.238Z" transform="translate(22.667 20.278)" fill="#1d1d1b"/><path d="M1623.878,432.8h12.97a5.1,5.1,0,0,1,5.4,5.4,4.977,4.977,0,0,1-4.72,5.183,6.1,6.1,0,0,1,.649.864l4.071,6.553h-4.071l-4.574-7.381h-6.127v7.381h-3.6Zm12.97,7.379a1.7,1.7,0,0,0,1.8-1.8v-.541a1.7,1.7,0,0,0-1.8-1.8h-9.368v4.14Z" transform="translate(36.334 20.277)" fill="#1d1d1b"/><g transform="translate(1615.256 486.889)"><g clip-path="url(#a)"><path d="M1606.811,456.03c0-6.019,4.277-9.93,12.05-9.93,7.409,0,12.049,3.612,12.049,9.328,0,4.334-2.651,6.86-10.182,9.811-4.518,1.746-7.592,3.851-7.592,6.138h18.374v5.416h-25.3v-4.212c0-4.939,4.4-9.45,12.23-12.521,4.76-1.866,6.144-2.89,6.144-4.633,0-2.349-1.987-3.612-5.722-3.612s-5.725,1.866-5.725,4.214Z" transform="translate(-1606.209 -446.099)" fill="#c3c3c3"/><path d="M1618.417,456.03c0-6.019,4.277-9.93,12.05-9.93,7.406,0,12.049,3.612,12.049,9.328,0,4.334-2.651,6.86-10.184,9.811-4.519,1.746-7.589,3.851-7.589,6.138h18.371v5.416h-25.3v-4.212c0-4.939,4.4-9.45,12.23-12.521,4.758-1.866,6.147-2.89,6.147-4.633,0-2.349-1.99-3.612-5.722-3.612s-5.724,1.866-5.724,4.214Z" transform="translate(-1588.291 -446.099)" fill="#c3c3c3"/></g></g><path d="M1646.472,440.472c0,3.238-2.522,5.579-5.944,5.579a6.111,6.111,0,0,1-4.437-1.749l-2.567,2.567a9.3,9.3,0,0,0,7,2.961,9.082,9.082,0,0,0,9.365-9.359,9.285,9.285,0,0,0-2.964-7l-2.61,2.605a5.363,5.363,0,0,1,2.152,4.392" transform="translate(51.23 21.326)" fill="#1d1d1b"/><path d="M1637.529,445.733a5.4,5.4,0,0,1-1.511-3.83c0-3.238,2.522-5.579,5.946-5.579a6.3,6.3,0,0,1,3.794,1.19l2.608-2.608a9.4,9.4,0,0,0-6.4-2.359,9.082,9.082,0,0,0-9.368,9.356,9.4,9.4,0,0,0,2.364,6.4Z" transform="translate(49.795 19.895)" fill="#fff"/></g></svg>