<svg xmlns="http://www.w3.org/2000/svg" xmlns:xlink="http://www.w3.org/1999/xlink" width="75" height="80" viewBox="0 0 75 80"><defs><clipPath id="a"><rect width="36.712" height="20.463" fill="none"/></clipPath></defs><g transform="translate(-1600.349 -419.643)"><rect width="75" height="80" transform="translate(1600.349 419.643)" fill="#666565"/><rect width="68.896" height="68.522" transform="translate(1603.403 422.305)" fill="#ea5938"/><rect width="33.357" height="0.51" transform="translate(1621.453 492.861)" fill="#c3c3c3"/><rect width="33.357" height="0.51" transform="translate(1621.453 496.469)" fill="#c3c3c3"/><rect width="4.673" height="0.51" transform="translate(1621.452 494.664)" fill="#c3c3c3"/><rect width="4.789" height="0.51" transform="translate(1635.52 494.664)" fill="#c3c3c3"/><rect width="4.789" height="0.51" transform="translate(1650.209 494.664)" fill="#c3c3c3"/><path d="M1608.856,464.566c-.288,0-.433-.107-.433-.319v-1.1c0-.21.145-.313.433-.313h3.88c.291,0,.438.105.438.32v1.1c0,.212-.146.319-.438.319Zm.177-.518h3.53v-.7h-3.53Z" transform="translate(5.683 29.994)" fill="#c3c3c3"/><path d="M1609.319,466.078v-.269h-.895v-.5h.895v-1.162h.422l3.431.879v.539h-.027l-3.224-.825v.569h1.429v.5h-1.429v.269Z" transform="translate(5.683 30.904)" fill="#c3c3c3"/><path d="M1634.924,464.157a1.194,1.194,0,0,1,.5.127l2.273,1.074v-1.2h.622v1.9h-.44l-2.822-1.323h-.876v.712h.881v.571h-1.055c-.286,0-.429-.12-.429-.356v-1.147c0-.239.143-.357.429-.357Z" transform="translate(23.383 30.914)" fill="#c3c3c3"/><path d="M1634.924,462.827a1.169,1.169,0,0,1,.5.127l2.273,1.074v-1.2h.622v1.894h-.44l-2.822-1.323h-.876v.712h.881v.573h-1.055c-.286,0-.429-.12-.429-.358v-1.145c0-.239.143-.358.429-.358Z" transform="translate(23.383 29.991)" fill="#c3c3c3"/><rect width="8.713" height="0.983" transform="translate(1603.45 492.823)" fill="#c3c3c3"/><rect width="8.713" height="0.981" transform="translate(1603.45 494.407)" fill="#c3c3c3"/><rect width="8.713" height="0.983" transform="translate(1603.45 495.991)" fill="#c3c3c3"/><rect width="8.713" height="0.983" transform="translate(1663.537 492.823)" fill="#c3c3c3"/><rect width="8.713" height="0.981" transform="translate(1663.537 494.407)" fill="#c3c3c3"/><rect width="8.713" height="0.983" transform="translate(1663.537 495.991)" fill="#c3c3c3"/><rect width="7.979" height="0.983" transform="translate(1663.648 492.823)" fill="#c3c3c3"/><rect width="7.979" height="0.981" transform="translate(1663.648 494.407)" fill="#c3c3c3"/><rect width="7.979" height="0.983" transform="translate(1663.648 495.991)" fill="#c3c3c3"/><path d="M1639.854,433.1h-2.17v-6.719h-4.948v-2.4H1644.8V435.5h-2.172v-9.118h-2.774Z" transform="translate(22.792 3.012)" fill="#fff"/><path d="M1638.627,450.938h6.273v2.4h-6.273a5.765,5.765,0,1,1,0-11.517h6.273v2.4h-6.273a3.379,3.379,0,1,0,0,6.719" transform="translate(22.692 15.402)" fill="#fff"/><path d="M1644.8,450.884v8.638a3.41,3.41,0,0,1-3.619,3.6,3.326,3.326,0,0,1-3.474-3.142,4.12,4.12,0,0,1-.58.43l-4.392,2.711V460.41l4.948-3.047v-4.08h-4.948v-2.4Zm-4.946,8.638a1.136,1.136,0,0,0,1.206,1.2h.361a1.136,1.136,0,0,0,1.206-1.2v-6.239h-2.774Z" transform="translate(22.792 21.697)" fill="#fff"/><path d="M1606.42,432.8h11.34v1.92l-8.083,7.92H1618v2.159h-11.822v-1.922l8.059-7.918h-7.817Z" transform="translate(4.102 9.134)" fill="#1d1d1b"/><path d="M1617.44,434.954v2.76h7v2.159h-7v2.76h9.41v2.16h-11.823v-12h11.823v2.159Z" transform="translate(10.33 9.134)" fill="#1d1d1b"/><path d="M1623.878,432.8h8.686a3.409,3.409,0,0,1,3.619,3.6,3.324,3.324,0,0,1-3.16,3.455,4.05,4.05,0,0,1,.434.576l2.726,4.368h-2.726l-3.063-4.921h-4.1v4.921h-2.412Zm8.686,4.919a1.136,1.136,0,0,0,1.206-1.2v-.361a1.136,1.136,0,0,0-1.206-1.2h-6.273v2.76Z" transform="translate(16.558 9.134)" fill="#1d1d1b"/><g transform="translate(1610.332 464.474)"><g clip-path="url(#a)"><path d="M1606.612,452.72c0-4.013,2.864-6.62,8.069-6.62,4.961,0,8.069,2.408,8.069,6.219,0,2.889-1.775,4.573-6.818,6.541-3.026,1.164-5.084,2.567-5.084,4.092h12.3v3.611h-16.943v-2.808c0-3.292,2.946-6.3,8.19-8.347,3.188-1.244,4.115-1.927,4.115-3.089,0-1.566-1.331-2.408-3.832-2.408s-3.833,1.244-3.833,2.809Z" transform="translate(-1606.208 -446.1)" fill="#c3c3c3"/><path d="M1618.216,452.72c0-4.013,2.864-6.62,8.069-6.62,4.959,0,8.069,2.408,8.069,6.219,0,2.889-1.775,4.573-6.82,6.541-3.026,1.164-5.082,2.567-5.082,4.092h12.3v3.611h-16.943v-2.808c0-3.292,2.946-6.3,8.19-8.347,3.186-1.244,4.116-1.927,4.116-3.089,0-1.566-1.333-2.408-3.832-2.408s-3.833,1.244-3.833,2.809Z" transform="translate(-1598.043 -446.1)" fill="#c3c3c3"/></g></g><path d="M1642.194,438.14a3.736,3.736,0,0,1-3.98,3.719,4.1,4.1,0,0,1-2.971-1.166l-1.719,1.711a6.243,6.243,0,0,0,4.69,1.974,6.068,6.068,0,0,0,6.272-6.239,6.178,6.178,0,0,0-1.985-4.665l-1.748,1.737a3.569,3.569,0,0,1,1.441,2.928" transform="translate(23.346 9.606)" fill="#1d1d1b"/><path d="M1635.9,441.338a3.591,3.591,0,0,1-1.012-2.554,3.736,3.736,0,0,1,3.982-3.719,4.233,4.233,0,0,1,2.54.793l1.746-1.739a6.314,6.314,0,0,0-4.287-1.573,6.068,6.068,0,0,0-6.273,6.237,6.248,6.248,0,0,0,1.583,4.265Z" transform="translate(22.692 8.962)" fill="#fff"/></g></svg>