<svg xmlns="http://www.w3.org/2000/svg" width="76.001" height="87.997" viewBox="0 0 76.001 87.997"><g transform="translate(-931 -4868)"><g transform="translate(930.983 4868.01)" opacity="0.08"><path d="M111.976,63.141a4.465,4.465,0,0,0-.632,2.056,4.644,4.644,0,0,1-.159,1.043c-.009.056-.052.142-.1.155-.546.159-.731.683-1.067,1.052-.151.163-.206.416-.546.378-.1-.009-.232.365-.378.614.473.043.374.249.2.5a1.684,1.684,0,0,1-1.11.743c-.142.026-.31-.082-.563-.159-.456.21-1.054.481-1.742.8a1.217,1.217,0,0,0,1.019-.189,3.131,3.131,0,0,1,.323-.15,1.727,1.727,0,0,1,.09.348c.013.3,0,.6,0,.906h-.12c.069.013.138.021.241.039a1.569,1.569,0,0,1-.185.279c-.133.129-.3.219-.417.356a.944.944,0,0,1-1.045.3c-.168-.039-.292-.086-.439.142-.1.146-.443.12-.68.172-.413.09-.413.086-.512.558.125-.129.241-.361.366-.365a7.64,7.64,0,0,1,1.29.086c.077.009.146.163.185.266.013.026-.116.159-.142.146-.391-.155-.581.279-.942.275a.629.629,0,0,0,.963-.1c.163-.185.348-.395.727-.206.3.15.684.124.865.545-.09.082-.189.172-.292.262a.9.9,0,0,0,.017.094c.249-.082.5-.176.748-.236.409-.094.822-.172,1.23-.245.323-.056.645-.082.968-.137.2-.034.452-.176.5.15.034.249-.021.515-.387.5-.022,0-.047.021-.1.051.086.253.176.507.254.764a1.123,1.123,0,0,1-.869,1.515,7.135,7.135,0,0,0-1.179.459c-.533.27-.645.627-.5,1.545a8.242,8.242,0,0,0-.92-.137c-.2-.009-.5,0-.6.124a2.488,2.488,0,0,1-1.647.828,1.813,1.813,0,0,0-1.222.824c-.194.27-.37.3-.692.18a19.3,19.3,0,0,0-2.275-.7,3.075,3.075,0,0,0-1.041.069c-.258.034-.512.107-.77.155a15.964,15.964,0,0,0-1.613.318c-.215.064-.379.313-.589.5-.215-.146-.477-.331-.74-.511.034-.163.073-.348.108-.532a.812.812,0,0,0-.1-.021c-.009.082-.017.163-.022.24-.03.009-.056.021-.086.03l-.258-.451c.043.3.073.494.1.657-.4.039-.817.107-1.234.112-.142,0-.292-.146-.43-.24a12.977,12.977,0,0,0-1.247-.811c.185.219.366.438.628.751-.34.167-.658.318-.972.476-.2.1-.383.223-.581.318a.684.684,0,0,1-.37.082c-.335-.069-.662-.292-.981.06-.047.052-.228-.034-.34-.013a2.2,2.2,0,0,0-.7.189.389.389,0,0,0-.129.614c.052.077-.1.288-.172.481a2.184,2.184,0,0,0-.3.026c-.1.021-.189.077-.258.009-.4-.094-.8-.193-1.2-.279-.254-.056-.52-.077-.77-.15-.331-.094-.585-.086-.662.322a.474.474,0,0,1-.082.142c-.589-.4-1.166-.833-1.781-1.2a3.822,3.822,0,0,0-.968-.318c-.069-.017-.163.052-.245.073-.258.073-.516.15-.774.21a8.3,8.3,0,0,0-1.234.266,3.076,3.076,0,0,0-.714.554c-.039.03-.086.094-.12.086-.572-.112-.632.4-.817.713a2.264,2.264,0,0,0-.1.8c-.159.026-.439.069-.284.489q.135.045.361.116a1.066,1.066,0,0,1-.572.743.81.81,0,0,0-.5,1.009l-.46.193a.37.37,0,0,1,0-.069,1.361,1.361,0,0,1-.482-.034.839.839,0,0,1-.443-.361.774.774,0,0,0-.985-.549.8.8,0,0,1-.7-.356c-.039-.1-.086-.193-.129-.292-.1.082-.215.155-.31.245a.9.9,0,0,0-.129.223,1.176,1.176,0,0,0-1.63-.352,1.443,1.443,0,0,1-.628.155c-.262.026-.529,0-.809,0-.017-.052-.047-.133-.077-.206-.779.069-.413.841-.71,1.137-.731-.09-1.105.322-1.454.957-.06-.335-.1-.537-.133-.743a.165.165,0,0,1-.065-.009c-.017.06-.039.124-.056.185a2.5,2.5,0,0,1-.129.408c-.112.206-.237.382-.069.64a.5.5,0,0,1-.4.73c-.176.039-.314.24-.542.429a1.533,1.533,0,0,1-.3-.5c-.108-.605-.28-.837-.83-.987-.138-.039-.262-.12-.4-.163a.842.842,0,0,0-.4-.077c-.06.013-.069.21-.12.309-.06.12-.12.279-.224.331a1.562,1.562,0,0,1-.632.172c-.116,0-.237-.155-.374-.253.077-.107.181-.193.168-.245-.237-.914.654-.871,1.058-1.228a.462.462,0,0,1,.452.043c.258.279.391.06.477-.107s.168-.133.3-.18a2.964,2.964,0,0,0,.744-.468,1.854,1.854,0,0,0,.37-.386c.108-.146.172-.322.275-.468s.219-.361.361-.386a.413.413,0,0,0,.387-.4c.047-.292.09-.584.133-.88.318.026.641-.172.658-.412.645.09.886-.06,1.084-.665a.268.268,0,0,1,.043-.107c.366-.322.736-.631,1.093-.962a.757.757,0,0,0,.258-.395c.086-.708.142-1.417.215-2.254a6,6,0,0,1,.877.309.52.52,0,0,0,.753-.116c.159-.185.344-.348.512-.519-.073-.21-.168-.485-.241-.7.082-.112.224-.223.206-.3-.069-.283.082-.326.3-.352.714-.09,1.424-.206,2.138-.27a7,7,0,0,1,.985.069,5.71,5.71,0,0,1,.718.009,1.892,1.892,0,0,1,.83.283,1.263,1.263,0,0,0,1.136.2,2.9,2.9,0,0,1,1.217-.176c.305.064.434-.21.379-.545a1.5,1.5,0,0,1,.082-.64,1.729,1.729,0,0,1,.336-.635c.163-.155.34-.292.486-.459a1.5,1.5,0,0,1,.877-.657c.176-.034.3-.361.447-.558.327-.442.649-.884.976-1.322.082-.107.168-.215.249-.322-.039-.034-.082-.069-.12-.1a8.522,8.522,0,0,1-1.273,1.3,2.086,2.086,0,0,1-1.716.571c-.086-.021-.206.086-.31.137-.477.245-.929.494-1.028,1.112-.017.1-.366.159-.568.215a3.246,3.246,0,0,1-1.776-.129c-.254-.073-.422-.434-.628-.657-.047-.052-.12-.15-.159-.137-.413.116-.439-.223-.551-.455a6.034,6.034,0,0,0-.3-.627.7.7,0,0,0-1-.266c-.1.056-.129.24-.219.429-.181-.017-.452-.043-.727-.064a.294.294,0,0,0-.185.034c-.486.378-.843.253-.955-.335-.009-.051-.026-.1-.039-.15.125-.107.241-.206.387-.326a.6.6,0,0,0,.8-.06,2.437,2.437,0,0,0-.422-.275.752.752,0,0,0-.413-.026c-.5.1-.779-.15-.744-.67a2.585,2.585,0,0,0-.043-.352c-.357.661-.908.3-1.363.348-.344.034-.628.017-.649.489-.013.283-.447.485-.731.442-.151-.021-.4-.026-.46.06-.284.442-.619.266-.963.133l-.211-.09c.2-.365-.129-.425-.374-.532.013-.034.021-.069.034-.1L70,70.481v-.056c-.4-.069-.813-.142-1.213-.21-.052.124-.09.223-.138.339-.155-.2-.288-.369-.439-.558.241-.137.508-.288.839-.472.151-.665-.09-1.009-1.226-.837.009-.236-.047-.446.3-.541a5.567,5.567,0,0,0,1.032-.468c.065-.034.086-.163.12-.249.056-.129.125-.378.159-.369a2.914,2.914,0,0,1,.589.18V67.4c.142-.094.28-.185.465-.309.1.03.323.249.357-.137.43-.017.546-.468.882-.657a1.738,1.738,0,0,1,1.136-.206c.129.013.271-.219.426-.313.4-.24.787-.481,1.2-.691a2.568,2.568,0,0,0,1.161-1.614c.138-.386.206-.8.31-1.223.155-.056.353-.124.611-.215-.1-.047-.12-.064-.142-.064-.215,0-.443.27-.641,0a.924.924,0,0,1-.047-1.193c.1-.129.206-.262.305-.391-.2-.318-.391-.61-.572-.91a.306.306,0,0,1-.039-.185c.039-.266.086-.532.142-.858l.211-.026c0-.026.022-.06.013-.064a.56.56,0,0,0-.211-.112,2.789,2.789,0,0,1-.456.034,2.255,2.255,0,0,0-1.738.652,2.02,2.02,0,0,0-.138.507s-.1.064-.181.12c-.129-.155-.258-.313-.348-.421-.37.133-.662.245-.959.335-.022,0-.142-.163-.12-.193a2.863,2.863,0,0,1,1.437-1.378c.482-.167.826-.725,1.23-1.107a.041.041,0,0,0,.009-.039c-.12-.442.108-.713.473-.931-.314.047-.594.343-.886,0-.2-.228-.555-.318-.581-.691a.173.173,0,0,0-.086-.129,2.672,2.672,0,0,1-.8-.579,1.918,1.918,0,0,1-.194-.258c.1-.039.206-.124.284-.1a2.34,2.34,0,0,1,.439.253c.026-.339.052-.7.077-1.086,1.277-.421,1.738-.361,2.211,1.146a1.766,1.766,0,0,1,.456-.2,2.043,2.043,0,0,1,.52.069c-.2.266-.366.494-.555.747.705.2,1.118-.485,1.785-.558-.086-.176-.151-.3-.241-.489a2.673,2.673,0,0,1,.8.318,1.024,1.024,0,0,0,1.093.137c.361-.12.7-.3,1.058-.416.228-.077.426-.146.658.146a6.693,6.693,0,0,0,1.157.949,1.431,1.431,0,0,0-.361-1.056c-.344-.369-.314-.468.133-.678.189-.09.37-.193.572-.3.056.086.112.167.185.275.017-.056.043-.094.034-.116-.151-.343-.318-.678-.456-1.026-.056-.146-.12-.356-.056-.468.314-.545.667-1.069.994-1.584-.039,0-.155-.009-.267-.017a.439.439,0,0,1-.465-.511c.026-.459.052-.914.082-1.438.284-.056.589-.12.89-.176.159-.03.228-.3.116-.476-.3-.468-.262-.6.219-.9a.33.33,0,0,0,.112-.549,3.676,3.676,0,0,1-.292-.64l-.723.7c-.056-.326-.1-.588-.142-.841-.262.455-.529.914-.753,1.3-.267-.082-.452-.142-.688-.215-.022-.1-.056-.262-.1-.468l.219.107c-.034-.124-.06-.21-.082-.3l.108.039.284-.786c-.052-.021-.108-.039-.159-.06-.065.159-.125.322-.211.537-.241.077-.443.026-.606-.3a2.928,2.928,0,0,1-.391-1.03,2.088,2.088,0,0,0-.409-.824c-.215-.326-.473-.618-.7-.936-.047-.069-.086-.223-.047-.27a2.5,2.5,0,0,0,.37-1.168,2.686,2.686,0,0,1,.542-.97,1.02,1.02,0,0,0,.292-.635A2.321,2.321,0,0,1,80.6,38.4c.034-.064.211-.056.323-.073a.665.665,0,0,0,.327-.086c-.086-.043-.172-.09-.258-.133a.593.593,0,0,1,.8-.335c.391.245.391.245.516-.15.009-.034.043-.06.069-.09H81.366c-.176,0-.357-.056-.529-.043-.305.026-.611-.172-.92.056-.073.052-.284-.09-.49-.159a4.915,4.915,0,0,0,.034.61.337.337,0,0,1-.383.442c-.237-.017-.482-.124-.688.133-.043.056-.254-.017-.387-.034-.03.094-.073.24-.146.476a5.18,5.18,0,0,1-.7.4.8.8,0,0,1-.529,0c-.06-.021-.043-.262-.077-.532l-.232.554c-.443-.043-.611-.391-.731-.786-.366.146-.624.017-.985-.476a.392.392,0,0,0,.06.691c.189.107.262.18.159.421-.082.189,0,.434-.03.652a.542.542,0,0,1-.142.331c-.056.047-.215.017-.305-.03a2.111,2.111,0,0,1-.963-.858c-.163-.279-.559-.429-.852-.631-.073-.052-.206-.06-.232-.12-.129-.3-.292-.309-.546-.142s-.555.27-.378.683a7.415,7.415,0,0,1,.335.987,1.463,1.463,0,0,1-.022.451c-.443-.056-.447-.18-.473-.627a1.806,1.806,0,0,0-.611-1.193,1.634,1.634,0,0,1-.576-1.537c.073-.421.077-.421.6-.549.026.232.043.451.073.67a.655.655,0,0,0,.073.3c.047.073.159.1.241.155.026-.09.09-.189.073-.266a2.961,2.961,0,0,0-.215-.592.871.871,0,0,1,.077-.82,4.9,4.9,0,0,1,1-1.455.617.617,0,0,0,.142-.4c0-.537.447-.884.568-1.374a.585.585,0,0,1,.323-.309c.606-.253.7-.661.331-1.15a1.474,1.474,0,0,0-.1-.485.61.61,0,0,0-.353-.3c-.469-.086-.538-.571-.847-.807-.043-.03.03-.219.056-.335a3.6,3.6,0,0,0,.129-.6c.022-.485-.013-.974.022-1.459.017-.253.417-.309.714-.193.409.159.834.262,1.226.382-.456-.326-.908-.652-1.407-1.013.043.107.069.172.1.24-.383.167-.383.167-.684-.721a1.721,1.721,0,0,0-.043.361,3.107,3.107,0,0,1-.482,1.528.231.231,0,0,1-.211.082.327.327,0,0,1-.181-.2c-.06-.249-.09-.507-.142-.833-.155.275.185.558-.172.7.073.159.1.386.228.468.327.219.194.549.254.828a1.436,1.436,0,0,1-.1.511c-.594-.545-.632-1.361-1.183-1.949.073.292.133.532.219.871-.284-.206-.559-.309-.662-.5a1.844,1.844,0,0,1,.422-2.082c.232-.3.391-.708.856-.777.06-.009.116-.1.159-.163.159-.232.31-.468.452-.687-.275-.021-.456.159-.551.485-.034.116-.12.275-.215.3-.632.18-.83.764-1.161,1.215-.206.283-.366.365-.615.06a3.142,3.142,0,0,0,.3,1.773c.077.137.172.262.241.4.12.258.116.442-.211.584-.589.253-.68.837-.714,1.378a4.728,4.728,0,0,1-.37,1.382,4.172,4.172,0,0,1-.275.507c.086.24.262.472.224.661a.666.666,0,0,1-.615.567,2.569,2.569,0,0,0-.563.112c-.305.09-.465-.03-.465-.348,0-.416.022-.811.465-1.043.073-.039.108-.206.116-.313.03-.352.009-.708.065-1.052.039-.249.237-.476.258-.721.047-.584.5-.914.757-1.4-.1.047-.189.086-.254.116-.731-.61-.138-1.1.159-1.7-.2.155-.348.27-.49.382-.4-.7.077-1.193.4-1.713a2.083,2.083,0,0,1,.4-.373c-.228-.236.013-.489.133-.786-.129.142-.262.283-.391.429a.471.471,0,0,0-.065-.034c.181-.391.366-.786.542-1.163-.434-.069-.486-.026-.619.567a.366.366,0,0,0-.1.009,4.864,4.864,0,0,1,0-.614,1.233,1.233,0,0,1,.159-.588,2.377,2.377,0,0,1,.611-.391c-.12-.137-.206-.24-.31-.365a2.648,2.648,0,0,1,.262-.206c.249-.155.52-.283.757-.455.056-.043.03-.2.052-.378-.146.086-.215.124-.284.163-.022-.017-.047-.03-.069-.047.1-.163.189-.331.249-.438.168.052.305.1.443.142a.506.506,0,0,1-.211-.781c.2-.2.456-.292.52-.644.026-.142.426-.219.662-.331-.116-.064-.224-.12-.409-.223a5.438,5.438,0,0,0-1.5,1.276,4.3,4.3,0,0,1-.409.472.621.621,0,0,1-.89.1,3.5,3.5,0,0,0-.705-.318,1.307,1.307,0,0,1-.714-1.065c.194-.06.4-.12.611-.189-.017-.017-.052-.073-.09-.082a4.4,4.4,0,0,0-1.131-.193c-.267.017-.49.009-.529-.223-.026-.133.176-.348.323-.464.108-.082.3-.052.447-.069l.787-.086.228.262c.043-.124.073-.215.1-.3.082.013.163.026.327.047-.28-.155-.292-.455-.086-.545a1.376,1.376,0,0,1,.271-.034c.073-.017.146-.052.155-.052.043-.176.073-.3.112-.472-.271.03-.572.06-.873.094a1.142,1.142,0,0,1-.034-.12c.1-.056.2-.107.3-.163a.673.673,0,0,1,0-.206,2.982,2.982,0,0,1,.2-.579c.056-.112.176-.258.275-.266a.9.9,0,0,1,.447.155,1.946,1.946,0,0,0,.413.236c-.095-.185-.194-.369-.3-.575-.142-.052-.344-.12-.546-.193l-.039-.167c.258-.18.5-.464.783-.507.254-.039.546.189.83.3-.2-.24-.288-.567-.731-.554-.237,0-.245-.249-.077-.408a1.576,1.576,0,0,1,.374-.206l-.142-.18a.621.621,0,0,0-.181.077,3.319,3.319,0,0,1-.232.253,3.851,3.851,0,0,0-.6.584c-.344.356-.533.962-1.17,1.017-.327-.3,0-.545.09-.786a3.7,3.7,0,0,1,.434-.691h-.3c-.047-.116-.1-.232-.155-.373-.142.266-.271.5-.46.858-.039-.215-.056-.318-.077-.421s-.039-.193-.056-.292a1.671,1.671,0,0,1-.271.09c-.271.039-.542.064-.839.1.069-.112.133-.215.237-.378-.159.06-.254.094-.413.159-.052-.172-.1-.326-.159-.519-.331.017-.331-.4-.43-.665-.039-.1.232-.322.327-.446-.172-.18-.374-.386-.637-.657-.069.223-.138.434-.2.644-1.024-.4-1.32-1.163-.684-1.854.155.27.305.532.49.858.163-.326-.288-.725.348-.893-.189-.142-.3-.228-.43-.326.043-.163.09-.348.151-.579.09.086.219.15.224.219.009.386.37.5.551.751a.379.379,0,0,0,.344.112c.082-.039.12-.215.146-.335a1.587,1.587,0,0,0-.1-.944c-.022-.052.112-.167.181-.249s.194-.146.219-.236c.077-.262.185-.21.327-.069a2.685,2.685,0,0,1,.675,2.575,1.48,1.48,0,0,1-.189.378c.546-.013.009.481.275.674.176.124.241.408.361.635a.543.543,0,0,0,.125-.116c.06-.09.108-.193.159-.288.125.082.288.142.361.258.039.06-.086.219-.146.356.056.047.176.137.335.258.262-.1.563-.223.865-.343a.732.732,0,0,0,1.084.112l-1.093-.1c.065-.459.344-.648.865-.6-.125-.137-.2-.219-.288-.313.065-.064.129-.124.219-.21-.073-.017-.12-.047-.142-.034a4.587,4.587,0,0,1-.525.343.531.531,0,0,1-.422.043c-.1-.06-.133-.253-.155-.391-.03-.189.189-.421-.138-.562-.06-.026-.069-.249-.047-.373.065-.339.159-.67.224-.931.379-.167.4.6.779.155.039.142.077.4.116.4a5.462,5.462,0,0,0,.791-.1,1.752,1.752,0,0,0-.581-.146,1.329,1.329,0,0,1-.336-.159c-.181-.292-.357-.579-.576-.936.138-.528.2-.579.744-.507-.1-.082-.176-.206-.288-.24-.284-.086-.452-.2-.379-.545a4.093,4.093,0,0,0,.009-.8c.219-.034.422-.069.632-.1.1.365.194.7.305,1.116.133-.27.224-.446.305-.614-.443-.416-.465-.592-.073-1.073.108.159.189.3.292.429.12.146.254.283.413.455.116-.245.189-.408.288-.614.314.228.606.442.9.652.022-.03.043-.06.065-.086l-.871-.71c.017-.039.039-.077.056-.116.1.043.2.082.292.129s.163.133.224.12a4.014,4.014,0,0,0,.538-.193c-.12-.142-.237-.283-.366-.416a2.969,2.969,0,0,0-.245-.219,5.8,5.8,0,0,0-.49-.425.555.555,0,0,1-.056-.713c.215.133.434.266.731.446.034-.326.06-.571.09-.858a4.159,4.159,0,0,1-.568-1.1l.112-.077c.116.09.219.228.348.258.077.021.194-.12.288-.185h.817c-.254-.549-.452-1.013-.09-1.5l.331.172c-.267-.249-.224-.459.077-.657-.426-.382-.305-.622.112-.91.185-.129.215-.485.323-.755.3.223.916-.064.985.6.09-.06.172-.116.258-.176a2.339,2.339,0,0,0,.4.313c.314.15.151.279.022.438-.112.137-.206.288-.31.434.034.026.065.056.1.082.112-.107.2-.236.305-.356a2.174,2.174,0,0,0,.434-.687C75,.55,75.4.726,75.58.911a.768.768,0,0,1,.159.507c0,.129-.125.258-.138.421a5.784,5.784,0,0,1,.456-.562c.09-.086.28-.185.361-.142.335.167.559-.03.8-.18.043-.026.112-.069.142-.056.318.18.387-.12.469-.215a2.079,2.079,0,0,0,.645.262c.344,0,.727.077,1.006-.253.232-.275.581-.236.9-.262.052,0,.112.124.125.137.344.03.645.052.994.082a4.767,4.767,0,0,1-.3-.528c-.011-.042.1-.132.1-.132a9.641,9.641,0,0,0,1.974.283c-.172.382-.34.73-.49,1.082a.813.813,0,0,0-.1.455c.021.082.237.116.4.18a2.9,2.9,0,0,1-.925,1.665.553.553,0,0,1-.219.077,1.673,1.673,0,0,0-1.071.794,5.686,5.686,0,0,1-1.746,1.545c-.1.077-.267.133-.3.232a1.007,1.007,0,0,1-.693.622.678.678,0,0,0-.284.416,4.193,4.193,0,0,0-.095.73l-1.316-.077c.374.167.748.339,1.14.515.228-.137.456-.416.766-.069.034.039.284-.09.417-.167.073-.043.116-.146.211-.275a3.55,3.55,0,0,1-1.282,1.82c0,.1.034.223-.009.3-.155.275-.284.67-.525.764-.4.159-.426.571-.71.755-.133.086-.374.021-.563.009a3.2,3.2,0,0,1-.4-.056c.155.425.46.228.688.253a1.832,1.832,0,0,0,.482-.03.43.43,0,0,0,.219-.112,4.9,4.9,0,0,1,.43-.416c.194-.129.262-.245,0-.494.292.017.5.013.688.043a.858.858,0,0,0,.834-.245,1.289,1.289,0,0,1,1.161-.438c.275.056.409-.06.589-.3.155-.2.559-.223.86-.283a.852.852,0,0,1,.391.12c.387.155.77.335,1.166.459a.542.542,0,0,0,.426-.129c.34-.288.7-.167,1.067-.107.667.107,1.342.193,2.013.258.129.013.275-.094.409-.146.034-.013.082-.069.086-.064.525.391,1.037-.249,1.536-.03a2.871,2.871,0,0,1,.8.515c.456.412.232,1.009.585,1.417.073.086-.022.382-.116.532-.232.386-.542.725-.761,1.116a15.148,15.148,0,0,0-.748,1.58c-.052.124.047.309.06.468a.69.69,0,0,1-.026.326c-.228.455-.477.9-.71,1.348a.745.745,0,0,0-.069.292A2.1,2.1,0,0,1,86.5,19.3c-.163.107-.215.4-.31.6-.017.034.047.129.03.142-.49.412-.163,1.292-.946,1.571-.305.107-.516.472-.761.708-.237.009-.508.021-.779.034,0,.06-.009.116-.013.176.125.034.254.064.465.12-.086.258-.176.524-.271.816.159.073.43.18.688.318s.5.3.774.472a2.743,2.743,0,0,1-1.368.953c-.086.034-.245-.043-.331-.116a.389.389,0,0,0-.589.021c-.28.258-.563.507-.834.768-.069.069-.159.167-.155.249.009.27-.172.3-.366.365-.3.09-.585.21-.882.3a.63.63,0,0,1-.34.06,2.5,2.5,0,0,0-1.394-.309c-.073.013-.163-.069-.245-.107a1.112,1.112,0,0,0-.073.086,1.71,1.71,0,0,0,.465.343,7.976,7.976,0,0,0,1.157.219c.473.064.955.086,1.428.15a.788.788,0,0,1,.391.206.559.559,0,0,0,.688.107c.361-.167.727-.3.852-.773a.521.521,0,0,1,.637-.3c.4.073.779.06.968.5.022.052.129.073.194.107.288.155.572.313.869.455a3.6,3.6,0,0,0,.809.318c.288.06.538.043.731.369.4.691.895,1.335,1.346,2a2.157,2.157,0,0,0,.31.489,3.871,3.871,0,0,0,.641.318.881.881,0,0,1,.546.7c.03.245.194.476.219.717a5.794,5.794,0,0,1-.052.9c0,.064-.03.163,0,.189.482.4.013,1.077.447,1.507.1.094.013.361.052.537a3.21,3.21,0,0,0,.232.755c.206.416.5.794.675,1.219.1.232.009.541.082.794.206.725.219,1.558.981,1.923.047.313.086.571.116.747a3.948,3.948,0,0,1,.662.112c.473.155.938.335,1.4.519a4.4,4.4,0,0,1,.662.343,3.625,3.625,0,0,1,1.045.747c.383.532.6,1.18.946,1.747.155.253.624.4.645.631.047.446.318.515.619.64.215.086.417.2.684.331-.12.077-.181.146-.254.163a.693.693,0,0,0-.572.927,6.425,6.425,0,0,0,1.308,2.49c.335.446.624.931.929,1.4.009.017,0,.047-.013.116a.866.866,0,0,0-1.114-.167.584.584,0,0,1-.486-.12,3.955,3.955,0,0,1-.688-.7.471.471,0,0,0-.611-.172c-.383.12-.779.21-1.17.292a.414.414,0,0,1-.284-.082c-.284-.206-.482-.077-.667.163a.983.983,0,0,1,.753.077,1.964,1.964,0,0,0,1.1-.133c.409-.129.649-.1.882.313a1.83,1.83,0,0,0,1.08.889.428.428,0,0,1,.206.176,1.489,1.489,0,0,0,1,.657c.082.009.176.12.215.206.4.893.839,1.773,1.179,2.687a2.088,2.088,0,0,1-.026,1.077c-.034.159-.275.283-.434.4a3.66,3.66,0,0,0-1.269,1.644,2,2,0,0,1,.366.133,1.525,1.525,0,0,1,.525.408.532.532,0,0,0,.594.326,1.383,1.383,0,0,1,.452.09,2.268,2.268,0,0,0,.7-1.335.629.629,0,0,1,.594-.472,7.327,7.327,0,0,1,1.733-.039c.8.06,1.6.1,2.4.232a3.058,3.058,0,0,1,1.1.5c.409.262.766.6,1.148.9a2.442,2.442,0,0,1,.985,2.12,2.43,2.43,0,0,0,.069.455C111.976,62.192,111.976,62.669,111.976,63.141Z" transform="translate(-35.959)" fill="#fff"/><path d="M1.085,114.234a3.366,3.366,0,0,1,1.905-.9c.142-.026.254-.224.387-.348.026.022.1.082.194.151.073-.224.138-.417.181-.555.3-.039.555-.069.813-.1a1.067,1.067,0,0,1,.013-.112c-.357-.06-.714-.12-1.11-.189.017.194.026.292.034.4a.415.415,0,0,1-.077,0c-.116-.335-.391-.292-.624-.215a2.269,2.269,0,0,1-1.252.116,1.642,1.642,0,0,1-.331-.172c.013.108.017.172.034.3-.176-.06-.331-.112-.482-.159.009.026.022.056.03.082-.224.052-.443.108-.667.159a2.358,2.358,0,0,1-.116-.606,2.135,2.135,0,0,1,.232-.568c.142.155.224.241.344.37.159-.869.826-1.058,1.518-1.3v.572c.641,0,.886-.219.809-.757.065.069.181.129.194.206.073.5.318.727.813.662.323-.039.637-.125.976-.194-.129-.314-.417-.211-.658-.237a1.564,1.564,0,0,1-.271-.069,1.426,1.426,0,0,0,.138-.267,3.037,3.037,0,0,0,.146-.723c0-.073-.215-.146-.327-.228s-.206-.155-.314-.237a1.248,1.248,0,0,1,.357-.159,1.652,1.652,0,0,0,1.058-.426c.12-.116.348-.129.512-.181a.5.5,0,0,1-.06-.736c.12-.151.43-.168.658-.2.284-.039.572-.026.86-.039.129,0,.28-.077.383-.03.757.327,1.308-.327,1.983-.387a1.85,1.85,0,0,0,.31-.043.86.86,0,0,0,.37-.133,1.243,1.243,0,0,1,1.161-.327.583.583,0,0,0,.172.034c.03,0,.056-.047.2-.176l-1.247-.129c-.03-.249-.06-.538-.1-.856a.686.686,0,0,0-.516.465,5.083,5.083,0,0,1-.736,1.058c-.034.043-.116.052-.176.073-.245.1-.49.2-.74.284a1.6,1.6,0,0,1-.292.034c-.039-.047-.073-.1-.112-.146.142-.06.284-.116.426-.176l-.065-.09a3.411,3.411,0,0,1-.972.163c-.318-.039-.74-.073-.822-.589-.013.447-.3.49-.606.581-.271.077-.49.327-.761.413a8.408,8.408,0,0,1-1.1.189c-.017-.034-.034-.065-.052-.1.086-.073.159-.181.258-.215a4.187,4.187,0,0,0,1.811-1.523c.1-.125.323-.146.486-.224.125-.06.31-.1.353-.206a4.666,4.666,0,0,1,.886-1.677.876.876,0,0,0,.108-.185H6.849c.314-.568.606-1.105.908-1.639.1-.189.232-.366.323-.563.1-.215.194-.267.422-.146a2.293,2.293,0,0,0,.645.163c.026,0,.073-.1.151-.228.31,0,.736-.52,1.08.125.034-.254.06-.469.09-.693-.12-.03-.28-.073-.49-.129l.4-.482a.366.366,0,0,0-.009-.1c-.409.077-.817.181-1.23.228-.8.086-1.6.138-2.4.2-.331.026-.4-.219-.443-.589-.039.181-.034.267-.073.314a.966.966,0,0,1-.228.155c-.026-.086-.1-.2-.069-.249.146-.271-.03-.654.292-.865.013-.009-.03-.108-.052-.172-.146.108-.275.2-.4.288a.713.713,0,0,0-.056-.06c.052-.142.1-.284.151-.426-.043-.026-.086-.056-.125-.082a3.653,3.653,0,0,0-.383.477c-.232.409-.379.456-.779.237a1.855,1.855,0,0,0-.43-.12c-.013-.31-.013-.31.662-.744-.065-.086-.125-.168-.185-.245l-.335.176v-.271l-.159-.133a1.21,1.21,0,0,1-.133.323c-.095.112-.241.267-.353.258-.159-.013-.31-.159-.465-.254-.09-.056-.163-.151-.258-.172a1.467,1.467,0,0,0-.327.03c-.095.009-.185,0-.28,0,.039-.529.439-.383.774-.426-.361-.3-.305-.9-.865-1.1l1.14-.206c-.052-.1-.1-.185-.206-.366h.551c.16,0,.335-.026.5-.039-.017-.142-.047-.284-.052-.43a2.611,2.611,0,0,1,.047-1.07c.086-.185.508-.267.787-.305a10.924,10.924,0,0,1,1.127-.021,1.376,1.376,0,0,0,.366-.133c-.335-.2-.632-.37-.194-.7.069-.052.039-.245.056-.4a8.1,8.1,0,0,0-1.1-.039,4.983,4.983,0,0,0-.71.271c-.194.056-.452.237-.538-.176-.017-.082-.258-.125-.4-.176a.522.522,0,0,1-.353-.714c-.469-.047-.9-.086-1.4-.133a3.222,3.222,0,0,1,2.056-.529c.056.391.116.787.163,1.127.112-.112.241-.348.374-.353.172,0,.344.181.576.323-.09-.138-.172-.262-.258-.391A2.99,2.99,0,0,1,4.27,91.5c-.047-.181.146-.426.237-.641a.523.523,0,0,0,.069-.323,3.312,3.312,0,0,1-.232.258c-.116.108-.241.2-.366.3-.086-.116-.176-.228-.292-.383.185-.086.31-.146.465-.219-.374-.254.1-.92-.542-1.045-.065.443-.7.714-.361,1.286-.275.082-.46.017-.4-.249A10.544,10.544,0,0,1,3.192,89.4c-.03-.021-.108-.073-.249-.172.254-.262.49-.508.675-.7.228.151.422.262.6.4a.248.248,0,0,1,.095.194.318.318,0,0,1-.163.2.933.933,0,0,1-.31-.009c.237.254.559.237.589-.06.034-.366.185-.52.611-.426-.017-.039-.034-.077-.047-.112-.069-.039-.142-.073-.206-.116s-.211-.12-.206-.172a.307.307,0,0,1,.172-.228c.185-.039.434-.108.555-.022.417.3.895.116,1.329.237a3.3,3.3,0,0,0,.8.082,1.4,1.4,0,0,0,.508-.082c.714.224.972.615.8,1.118.172.189.331.361.486.533.116-.267.249-.585.387-.908a.717.717,0,0,1,1.1-.3.857.857,0,0,0,.817.142c.228-.06.71-.219.908.284a.524.524,0,0,0,.632.323l-.486-.5c.009-.047.022-.1.03-.146.249-.03.5-.056.843-.1l-.568-.361c.009-.017.017-.039.026-.056l.353.056c-.275-.305-.409-.318-.869-.1-.206-.237-.3-.426.125-.551a1.731,1.731,0,0,0,.658-.361,2.294,2.294,0,0,0,.357-.555c.374-.086.757-.168,1.136-.258a.193.193,0,0,0,.112-.1c.237-.452.469-.9.7-1.351.1.03.176.056.292.09-.009-.1,0-.168-.022-.185-.1-.06-.228-.168-.305-.142a7.622,7.622,0,0,0-.783.361c.009-.163.013-.271.026-.49-.387.335-.71.611-1.028.89-.03-.026-.056-.052-.086-.077.146-.146.288-.3.465-.473a.5.5,0,0,0-.155-.043,3.98,3.98,0,0,1-1.462,0,1.634,1.634,0,0,1-.68-.31,2.2,2.2,0,0,1-.379-.546c.1.065.206.129.31.189a4.589,4.589,0,0,1,.288-.684c.318-.5.783-.366,1.234-.237a.619.619,0,0,0,.361.034l-.391-.206c.009-.026.022-.052.03-.077.211.082.417.163.628.249.009-.013.017-.022.026-.034-.275-.211-.546-.422-.933-.723.512-.056.92-.1,1.312-.146a.217.217,0,0,1-.1-.069.317.317,0,0,1-.047-.163,4.263,4.263,0,0,1,.443-.163c-.133-.06-.249-.168-.335-.146-.4.086-.538,0-.52-.417.116-.034.237-.073.361-.112-.129-.2-.245-.379-.344-.529.275-.327.538-.619.774-.929.056-.073.026-.215.026-.323a.472.472,0,0,1,.555-.5,2.708,2.708,0,0,0,.572-.1.685.685,0,0,1-.013.151.52.52,0,0,0-.026.146c.318-.348.869-.473.912-1.075.039.009.073.013.112.021.241.314.486.628.74.963a.387.387,0,0,0,.069-.559c-.2-.237-.232-.361.095-.473.056-.017.077-.155.112-.232.043.034.086.069.129.1a1.358,1.358,0,0,1-.056.237c-.112.254-.155.409.232.477.215.039.383.323.568.5a2.049,2.049,0,0,0,0-.4,5.308,5.308,0,0,0-.211-.628V78.9c-.06.022-.09.043-.1.034-.516-.413-.5-.447.138-.761a2.273,2.273,0,0,0,.422-.379c.069.194.189.361.159.5-.086.4.168.619.357.9.318.473.3.559-.138.938-.09.077-.181.151-.275.228.12.056.241.116.361.172-.086.1-.181.206-.262.314a1.082,1.082,0,0,0-.2.366L19.8,80.4c.026-.022.056-.077.043-.1-.185-.443.095-1.019-.348-1.376-.232-.189-.168-.353-.12-.581.073-.344.138-.641.6-.563a.411.411,0,0,0,.28-.129c.194-.185.31-.215.422.082.03.073.228.086.379.133-.292-.37-.542-.688-.8-1.011a1.5,1.5,0,0,1,1.325.37c.28.555.817.645,1.3.843a1.8,1.8,0,0,1,.271.172c-.069.1-.112.237-.2.3-.314.211-.645.4-.972.589a2.138,2.138,0,0,0-.8,1.08c.34.047.606.133.886.176A.476.476,0,0,0,22.625,80c.133-.417.28-.83.422-1.239a4.506,4.506,0,0,0,.731.159,1.307,1.307,0,0,0,.839-.237,2.946,2.946,0,0,1,1.252-.594,2.258,2.258,0,0,1,1.475.215.572.572,0,0,0,.43.043.745.745,0,0,1,1.011.757c-.013.288-.043.572-.065.86.606.129.606.129.473.8a2.74,2.74,0,0,1,1.118,1.7c.017.108.168.194.254.288l.09-.077c-.077-.12-.151-.241-.288-.465.215.039.348.022.434.082a.787.787,0,0,1,.314.873,1,1,0,0,1-.495.538c-.361.185-.71.357-.813.787a2.578,2.578,0,0,0-.03.447l.1.026c.065-.09.129-.185.2-.275a.979.979,0,0,1,1-.482.73.73,0,0,0,.344-.039c.4-.125.645.043.779.447.176.529.413,1.037.619,1.553a.347.347,0,0,1,.034.185c-.1.469-.2.933-.323,1.4-.017.06-.142.09-.267.168a1.364,1.364,0,0,1-.606,1.041,8.281,8.281,0,0,0-.994.009c-.387.047-.482.237-.46.624a1.3,1.3,0,0,1-.5,1.282c-.2.129-.361.314-.559.434a.506.506,0,0,1-.366.026c-.039-.009-.043-.176-.056-.245-.318-.138-.628-.271-.938-.409-.022.039-.039.077-.06.116.245.2.5.383.736.589a.454.454,0,0,1,.172.28.278.278,0,0,1-.189.206,1.344,1.344,0,0,1-.525-.017,6.09,6.09,0,0,1-.7-.288,9.668,9.668,0,0,0-.2.951.6.6,0,0,0,.538.705c.224.043.31.116.305.387a9.41,9.41,0,0,0,.12,1.591,1.631,1.631,0,0,0,.748,1.062.581.581,0,0,1,.275.787c-.1.331-.4.645-.189,1.028a3.962,3.962,0,0,0,.353.46c.034-.017.073-.03.108-.047-.034.09-.069.176-.1.271-.426-.288-.426-.288-1.028.185.241.206.469.391.688.589a.588.588,0,0,1,.185.254c.116.443.224.89.323,1.338a5.091,5.091,0,0,1,.163.908c.009.353-.108.71.224.989a.213.213,0,0,1,.039.2,14.61,14.61,0,0,0-.637,1.338c-.262.735-.465,1.5-.688,2.25a.1.1,0,0,0,.009.077c.374.753-.09,1.29-.456,1.875a11.215,11.215,0,0,0-.555,1.161c-.047.013-.206.047-.366.086a2.811,2.811,0,0,0,.129.422c.009.017.163-.03.168-.03a6.167,6.167,0,0,0,.379.6c.129.163.017.8-.189.852-.056.013-.142-.1-.284-.206h-.5c-.142.069-.409.194-.662.318-.439-.374-.43-.477-1.432-.374.082-.159.151-.3.241-.477-.267.155-.43.3-.383.615.017.1-.129.245-.228.344-.159.163-.34.3-.538.473a2.169,2.169,0,0,0,.151-.675,1.121,1.121,0,0,0-.37-.615v.68a.628.628,0,0,1-.817.512c0-.12.013-.254.017-.318-.327.129-.632.361-.92.344a3.68,3.68,0,0,0-2.164.5c-.095.056-.249.022-.434.112l.439.318c-.206.344-.331.856-.959.826-.039,0-.1.017-.108.034-.09.43-.422.335-.684.28-.426-.09-.439.323-.667.486.056.082.116.159.181.254-.254.31-.994-.069-.9.723-.46.077-.925.168-1.394.224-.082.009-.2-.112-.262-.2a1.816,1.816,0,0,1-.138-.4c.112-.176.215-.185.512.056.065-.112.129-.219.224-.379-.387.065-.71.116-1.006.168a2.3,2.3,0,0,1,.194.83,1.178,1.178,0,0,1-.422.8,1.7,1.7,0,0,1-1.144.361l-.142.68c-.228-.043-.525-.2-.718-.112s-.254.409-.409.688a5.8,5.8,0,0,0-.731-.172.524.524,0,0,0-.357.129,6.483,6.483,0,0,0-.52.516c-.138-.409-.383-.46-.727-.366-.146.039-.331-.06-.525-.1.181.37.06.533-.361.551-.1,0-.194.241-.305.4a.52.52,0,0,0-.692.021c-.077.069-.318.1-.348.056a2.282,2.282,0,0,1-.245-.563,1.308,1.308,0,0,1-.039-.267c-.495.219-.916.409-1.355.6l-.194-.245c-.129.09-.335.155-.366.267-.116.447-.473.34-.779.417l-.138-.331q.942-.671,1.884-1.346c-.022-.034-.039-.073-.06-.108l-1.828.8a4.442,4.442,0,0,1,2.112-1.329c.4-.133.452-.2.525-.624-.409.249-.495-.086-.615-.417a1.031,1.031,0,0,1-.994.908,10.078,10.078,0,0,0-1.385.262c-.2.056-.353.28-.555.348a6.266,6.266,0,0,1-.856.163,1.117,1.117,0,0,1-.452.052,1.366,1.366,0,0,1,.305-.245c.46-.181.469-.185.172-.563.3-.086.6-.176.9-.262-.009-.039-.017-.082-.026-.12-.073-.047-.142-.1-.267-.176a3.122,3.122,0,0,1,.744-.391,1.261,1.261,0,0,0,.654-.327c.232-.245.4-.589.83-.6a1.941,1.941,0,0,0,.581-.237c-.434-.073-.439-.077-1.269.361a10.208,10.208,0,0,1-1.1.314c-.409.163-.791.383-1.153.563l-.68-.4c.237-.112.374-.275.2-.563-.138-.228-.271-.249-.456-.047s-.37.353-.555.525c-.2-.237.232-.684-.353-.68-.013-.667.714-.357.955-.748a5.56,5.56,0,0,1-.329-.514Zm30.926-26.9a5.276,5.276,0,0,0,.056-1.209c-.082-.439-.477-.658-.916-.791a1.792,1.792,0,0,0,.224.761,1.283,1.283,0,0,1-.073,1.557l.709-.314Z" transform="translate(0 -43.956)" fill="#fff"/><path d="M58.583,8.591c.28.292.447.159.628-.082.112-.146.288-.224.34-.439.013-.052.3-.039.512-.06a.826.826,0,0,0-.684-.465.742.742,0,0,1-.594-.422,2.009,2.009,0,0,0-.366-.4,1.13,1.13,0,0,1,.056-.1c.1.034.194.073.292.108s.194.065.292.1c0-.09.026-.211-.017-.271A1.191,1.191,0,0,1,58.9,5.24a.507.507,0,0,0,.022-.133c.077.009.151.022.211.026.043-.181.082-.361.133-.581l.9.37V4.294c.146.2.232.318.318.434l.069-.026a3.473,3.473,0,0,1-.022-.366c0-.077.013-.2.065-.228.318-.172.645-.323.968-.477a2.917,2.917,0,0,0,.482-.228c.422-.314.83-.654,1.243-.985.12-.1.237-.206.357-.318a.963.963,0,0,1,.288,1.2,2.128,2.128,0,0,0-.052.624c-.258.284-.6.662-.92,1.019.516.559.723-.241,1.127-.245a.757.757,0,0,1-.469.744c-.082.039-.249-.1-.409-.172-.108,0-.254.013-.387.022v.572l-.658.361v.043l.516-.1a6.156,6.156,0,0,1,.09.822c0,.073-.043.348-.3.2-.022-.013-.181.116-.185.185-.022.271-.108.486-.387.551A3.9,3.9,0,0,1,61.272,8a2.176,2.176,0,0,1-.31-.017c.06.232.116.434.168.637a.875.875,0,0,1-.056.077c-.206-.172-.409-.348-.615-.52l-.12.065c.1.211.185.422.241.542-.465.34-.9.658-1.342.985-.249-.344-.512-.7-.774-1.062a1,1,0,0,0,.119-.116Z" transform="translate(-33.411 -1.202)" fill="#fff"/><path d="M66.135,46.666c.28-.056.486-.039.68-.267.271-.323.83-.12,1.032.3.052.1.155.2.163.305.052.529.447.6.847.748a4.352,4.352,0,0,1,.989.688c.039.03.03.146.022.224a1.717,1.717,0,0,1-1.148,1.118.751.751,0,0,1-.254-.073c.082-.112.142-.2.232-.323-.1-.009-.172-.034-.211-.013a7.477,7.477,0,0,1-.8.452,3.32,3.32,0,0,1-.7.108,3.612,3.612,0,0,1-.757.125,2.237,2.237,0,0,1-.619-.237c.1-.206.146-.443.288-.538.086-.056.318.1.512.176,0,0,.017-.056.034-.12.559.159,1.26-.047,1.3-.366-.249.065-.5.133-.761.185a.846.846,0,0,1-.271-.03c.039-.112.043-.267.12-.331.245-.206.353-.6.787-.581.1,0,.215-.176.3-.292-1.26.224-1.26.224-1.708-.172.288.034.576.073.912.112a.855.855,0,0,0-.705-.4c-.112,0-.232-.1-.344-.151.056-.1.112-.206.189-.353A2.765,2.765,0,0,1,66.135,46.666Z" transform="translate(-37.521 -26.399)" fill="#fff"/><path d="M63.04,65.662c.022-.116.03-.237.06-.348.1-.37.245-.731.318-1.11.047-.249.1-.4.4-.409.129,0,.254-.172.43-.3-.039.228-.073.409-.12.671A2.057,2.057,0,0,1,65.4,63.12c.03.417.026.809.09,1.183.052.305.206.6.288.9A.808.808,0,0,1,64.76,66.23c-.249.5-.353.546-.847.275a4.869,4.869,0,0,0,.46-.559.471.471,0,0,0,.009-.374,1.833,1.833,0,0,0-.344-.391c.159-.146.331-.3.516-.469-.275-.138-.456-.159-.628.176a5.362,5.362,0,0,1-.675.869C63.178,65.722,63.109,65.692,63.04,65.662Z" transform="translate(-36.048 -36.034)" fill="#fff"/><path d="M84.61,103.768c.12-.426.2-.813.344-1.179.1-.249.151-.52.469-.675a1.2,1.2,0,0,0,.477-.645,1.462,1.462,0,0,1,1.338-1.049c.228.353-.576.968.34,1.153a4.525,4.525,0,0,0-.5.787,2.55,2.55,0,0,1-1.256,1.265c-.138.086-.176.327-.422.249-.034-.013-.125.039-.129.03-.181-.331-.327-.069-.49.017a.546.546,0,0,1-.176.047Z" transform="translate(-48.387 -57.21)" fill="#fff"/><path d="M53.991,23.637c-.056-.069-.1-.176-.172-.206a.389.389,0,0,1-.224-.551c.116-.262.387-.194.611-.116.073.026.129.1.228.181-.026-.168-.043-.288-.052-.366q-.735-.555-1.432-1.075c.215-.374.4-.74.882-.624-.03.06-.073.142-.108.2.237-.056.439-.1.632-.155.108-.03.215-.082.318-.12s.219-.125.262-.095c.086.06.129.189.181.271.12.06.3.1.366.2.052.077-.026.245-.047.413-.215-.159-.353-.267-.495-.37-.03.026-.056.052-.086.082.133.163.271.323.434.52-.284.138.073.865-.645.8.108.009.211.013.344.022-.043.112-.073.2-.112.3l-.267-.069c-.039.125-.073.245-.116.391l.172.1a.623.623,0,0,0,.009.129l-.7.129Z" transform="translate(-30.277 -11.806)" fill="#fff"/><path d="M79.736,70.607c-.108.09-.181.159-.206.181.06.241.12.426.155.619.043.237-.03.348-.31.366-.748.043-.951-.056-1.2-.731a.917.917,0,0,1,0-.305,1.444,1.444,0,0,0-.077-.477c-.258-.5.056-1.325.6-1.359.219-.013.538.275.662.508a1.451,1.451,0,0,1,.043.882C79.5,70.392,79.615,70.5,79.736,70.607Z" transform="translate(-44.601 -39.332)" fill="#fff"/><path d="M129.92,188.158c.138-.477.615-.452.946-.637a2.8,2.8,0,0,1,.533-.288,1.249,1.249,0,0,1,.551-.009c.133.026.249.185.374.185a.825.825,0,0,1,.8.533,2.128,2.128,0,0,0-.258.194c-.138.138-.323.267-.379.434a.648.648,0,0,1-1.019.305,7.256,7.256,0,0,0-1.028-.705C130.311,188.094,130.1,188.158,129.92,188.158Z" transform="translate(-74.305 -106.865)" fill="#fff"/><path d="M69.614,61.881c-.417.009-.7-.073-.736-.49a.981.981,0,0,1,.847-1.179c-.1-.077-.185-.138-.275-.206.335-.847,1.23-1.062,1.742-1.686l.151.065a2.136,2.136,0,0,1-.125.538c-.305.576-.632,1.14-.963,1.7-.125.215-.116.508-.46.611C69.682,61.266,69.674,61.649,69.614,61.881Z" transform="translate(-39.382 -33.294)" fill="#fff"/><path d="M54.365,27.49c.168.194.335.383.52.6-.022.022-.073.069-.133.129.073.129.249.31.211.391a3.929,3.929,0,0,1-.439.637c.026.318.043.589.065.856a.836.836,0,0,1-.1.009c.069.077.176.146.2.237.017.065-.077.224-.125.224A1.417,1.417,0,0,1,54,30.484a.5.5,0,0,1-.275-.318,2.554,2.554,0,0,1,.108-1.738c.12-.215.017-.555.017-.925h.525Z" transform="translate(-30.663 -15.672)" fill="#fff"/><path d="M65.71,36.937a4.029,4.029,0,0,1,.809-.4c.1-.026.344.189.379.331a.72.72,0,0,1-.439.912C66.248,37.535,66.015,37.277,65.71,36.937Z" transform="translate(-37.573 -20.826)" fill="#fff"/><path d="M59.545,48.418H59.2c.013.034.026.065.039.1a1.963,1.963,0,0,0-.417.232,3.043,3.043,0,0,0-.344.447l-.374-.189a.886.886,0,0,1,.009-.353c.065-.138.249-.361.292-.344.357.155.645-.133.972-.112.077,0,.151.073.228.116C59.584,48.345,59.567,48.383,59.545,48.418Z" transform="translate(-33.212 -27.515)" fill="#fff"/><path d="M61.75,46.094c.5-.387.834-.968,1.6-1.174a1.5,1.5,0,0,1-1.6,1.174Z" transform="translate(-35.308 -25.644)" fill="#fff"/><path d="M51.769,36.611c-.047.108-.09.219-.146.323,0,.009-.155-.034-.155-.056a1.013,1.013,0,0,1,.043-.5,4.853,4.853,0,0,1,.52-.555,1.4,1.4,0,0,0,.146-.31c.1.249.185.482.284.744-.185.12-.4.262-.619.409A.516.516,0,0,0,51.769,36.611Z" transform="translate(-29.421 -20.242)" fill="#fff"/><path d="M71.814,26.237c-.043.133-.047.3-.133.391-.237.258-.146.525-.1.809a.922.922,0,0,1-.082.422c-.013.039-.2.056-.2.043a1.78,1.78,0,0,1-.12-.417.564.564,0,0,1,.017-.305c.142-.344.305-.68.46-1.019C71.7,26.186,71.758,26.212,71.814,26.237Z" transform="translate(-40.689 -14.914)" fill="#fff"/><path d="M67.775,58.51c-.258.486-.473.886-.718,1.355C66.785,59.267,67.022,58.837,67.775,58.51Z" transform="translate(-38.28 -33.401)" fill="#fff"/><path d="M11.879,134.053c-.2.125-.2.125-1.329-.469C10.838,133.481,11.015,133.541,11.879,134.053Z" transform="translate(-6.003 -76.226)" fill="#fff"/><path d="M69.316,39.41c.172.142.185.563-.009.645a.324.324,0,0,1-.3-.073.315.315,0,0,1,0-.3,1.352,1.352,0,0,1,.309-.272Z" transform="translate(-39.438 -22.465)" fill="#fff"/><path d="M11.87,130.57c.138-.172.275-.348.413-.52.06.026.12.052.181.082,0,.163.06.422-.013.465a1.5,1.5,0,0,1-.555.09Q11.883,130.622,11.87,130.57Z" transform="translate(-6.755 -74.233)" fill="#fff"/><path d="M76.33,49.669c.28-.271.563-.538.843-.809l.151.151c-.284.262-.568.525-.847.787C76.429,49.759,76.377,49.712,76.33,49.669Z" transform="translate(-43.646 -27.893)" fill="#fff"/><path d="M30.16,86.421c.047-.245.077-.387.112-.551.254.082.434.211.323.469C30.564,86.408,30.341,86.395,30.16,86.421Z" transform="translate(-17.178 -49.017)" fill="#fff"/><path d="M9.129,172.413c-.271.047-.542.1-.813.146l-.026-.129c.224-.275.538-.116.813-.151C9.112,172.323,9.12,172.37,9.129,172.413Z" transform="translate(-4.715 -98.355)" fill="#fff"/><path d="M8.125,116.552c-.219.034-.417.069-.675.112C7.751,116.2,7.915,116.174,8.125,116.552Z" transform="translate(-4.236 -66.379)" fill="#fff"/><path d="M63.7,78.613c-.026-.331-.2-.422-.525-.3.172-.387.409-.181.585-.151.039.009.043.262.06.4A1,1,0,0,1,63.7,78.613Z" transform="translate(-36.125 -44.57)" fill="#fff"/><path d="M74.24,56.57c.034.684.034.684-.37.637C73.986,57,74.1,56.807,74.24,56.57Z" transform="translate(-42.238 -32.294)" fill="#fff"/><path d="M75.51,31.649l1.093.1a.731.731,0,0,1-1.084-.112Z" transform="translate(-43.178 -18.037)" fill="#fff"/><path d="M76.36,24.967a1.4,1.4,0,0,0,.335.159,1.749,1.749,0,0,1,.581.146,6.217,6.217,0,0,1-.791.1c-.039,0-.077-.262-.116-.4C76.369,24.963,76.36,24.967,76.36,24.967Z" transform="translate(-43.663 -14.233)" fill="#fff"/><path d="M73.26,98.64c-.232.1-.439.2-.71.318a1.283,1.283,0,0,0,.073-1.557,1.774,1.774,0,0,1-.224-.761c.439.133.834.353.916.791A5.043,5.043,0,0,1,73.26,98.64Z" transform="translate(-41.398 -55.166)" fill="#fff"/></g><circle cx="3.5" cy="3.5" r="3.5" transform="translate(949 4925)" fill="#b59124"/><circle cx="3.5" cy="3.5" r="3.5" transform="translate(979 4880)" fill="#b59124"/></g></svg>