<svg xmlns="http://www.w3.org/2000/svg" width="319.995" height="370.002" viewBox="0 0 319.995 370.002"><g transform="translate(-523.004 -696)"><g transform="translate(522.982 696.01)" opacity="0.08"><path d="M269.889,265.511c-1.19,2.779-2.848,5.378-2.65,8.645a19.585,19.585,0,0,1-.667,4.386c-.036.235-.216.6-.414.65-2.289.668-3.064,2.87-4.47,4.422-.631.686-.865,1.751-2.289,1.588-.4-.036-.973,1.534-1.586,2.581,1.983.18,1.568,1.047.829,2.094a7.054,7.054,0,0,1-4.65,3.122c-.595.108-1.3-.343-2.361-.668-1.911.884-4.416,2.021-7.3,3.357a5.085,5.085,0,0,0,4.272-.794,13.114,13.114,0,0,1,1.352-.632,7.286,7.286,0,0,1,.379,1.462c.054,1.263.018,2.527.018,3.808-.162,0-.324.018-.5.018.288.054.577.09,1.009.162a6.6,6.6,0,0,1-.775,1.173,22.933,22.933,0,0,0-1.748,1.5,3.95,3.95,0,0,1-4.38,1.245c-.7-.162-1.226-.361-1.839.6-.4.614-1.857.505-2.848.722-1.73.379-1.73.361-2.145,2.346.523-.541,1.009-1.516,1.532-1.534a31.915,31.915,0,0,1,5.407.361c.324.036.613.686.775,1.119.054.108-.487.668-.6.614-1.64-.65-2.433,1.173-3.947,1.155,1.676,1.191,2.884.9,4.038-.415.685-.776,1.46-1.66,3.046-.866,1.262.632,2.866.523,3.623,2.292-.379.343-.793.722-1.226,1.1a3.8,3.8,0,0,0,.072.4c1.046-.343,2.073-.74,3.136-.993,1.712-.4,3.443-.722,5.155-1.029,1.352-.235,2.7-.343,4.056-.578.829-.144,1.893-.74,2.073.632.144,1.047-.09,2.166-1.622,2.112-.09,0-.2.09-.415.216.361,1.065.739,2.13,1.064,3.212.919,3.158-.451,5.414-3.641,6.371a29.84,29.84,0,0,0-4.939,1.931c-2.235,1.137-2.7,2.635-2.109,6.5a34.416,34.416,0,0,0-3.857-.578c-.847-.036-2.109,0-2.523.523-1.8,2.274-4.344,3.05-6.9,3.483a7.6,7.6,0,0,0-5.119,3.465c-.811,1.137-1.55,1.263-2.9.758a80.67,80.67,0,0,0-9.535-2.924c-1.37-.325-2.92.108-4.362.289-1.082.144-2.145.451-3.226.65-2.253.433-4.56.686-6.759,1.336-.9.271-1.586,1.318-2.469,2.112-.9-.614-2-1.39-3.1-2.148.144-.686.306-1.462.451-2.238a3.4,3.4,0,0,0-.415-.09c-.036.343-.072.686-.09,1.011-.126.036-.234.09-.361.126l-1.082-1.9c.18,1.263.306,2.075.4,2.761-1.658.162-3.425.451-5.173.469-.6,0-1.226-.614-1.8-1.011a54.363,54.363,0,0,0-5.227-3.411c.775.92,1.532,1.841,2.632,3.158-1.424.7-2.758,1.336-4.074,2-.829.415-1.6.939-2.433,1.335a2.856,2.856,0,0,1-1.55.343c-1.406-.289-2.776-1.227-4.11.253-.2.217-.955-.144-1.424-.054a9.2,9.2,0,0,0-2.92.794,1.639,1.639,0,0,0-.541,2.581c.216.325-.415,1.209-.721,2.021a9.1,9.1,0,0,0-1.262.108c-.415.09-.793.325-1.081.036-1.676-.4-3.371-.812-5.047-1.173-1.063-.235-2.181-.325-3.226-.632-1.388-.4-2.451-.361-2.776,1.354a1.993,1.993,0,0,1-.343.6c-2.469-1.7-4.885-3.5-7.462-5.053a15.982,15.982,0,0,0-4.056-1.336c-.288-.072-.685.217-1.027.307-1.081.307-2.163.632-3.244.884a34.659,34.659,0,0,0-5.173,1.119c-1.136.433-2,1.534-2.992,2.328-.162.126-.36.4-.5.361-2.4-.469-2.65,1.7-3.425,3-.487.83-.288,2.058-.433,3.357-.667.108-1.838.289-1.19,2.057q.568.19,1.514.487a4.48,4.48,0,0,1-2.4,3.122c-1.893.848-2.415,2.2-2.073,4.241-.649.271-1.28.541-1.929.812a1.557,1.557,0,0,1,.018-.289,5.685,5.685,0,0,1-2.019-.144,3.519,3.519,0,0,1-1.857-1.516c-.685-1.877-2.271-2.906-4.128-2.31a3.358,3.358,0,0,1-2.938-1.5c-.162-.415-.36-.812-.541-1.227-.433.343-.9.65-1.3,1.029a3.782,3.782,0,0,0-.541.938,4.917,4.917,0,0,0-6.831-1.48,6.03,6.03,0,0,1-2.632.65c-1.1.108-2.217.018-3.389.018-.072-.217-.2-.559-.324-.866-3.262.289-1.73,3.537-2.974,4.783-3.064-.379-4.632,1.354-6.092,4.025-.252-1.408-.4-2.256-.559-3.122-.09-.018-.18-.018-.27-.036-.072.253-.162.523-.234.776a10.556,10.556,0,0,1-.541,1.715c-.469.866-.991,1.606-.288,2.689.811,1.281-.2,2.743-1.676,3.068-.739.162-1.316,1.011-2.271,1.8a6.451,6.451,0,0,1-1.262-2.112c-.451-2.545-1.172-3.519-3.479-4.151-.577-.162-1.1-.505-1.658-.686a3.519,3.519,0,0,0-1.676-.325c-.252.054-.288.884-.5,1.3-.252.505-.5,1.173-.937,1.39a6.531,6.531,0,0,1-2.65.722c-.487.018-.991-.65-1.568-1.065.324-.451.757-.812.7-1.029-.991-3.844,2.74-3.664,4.434-5.162a1.932,1.932,0,0,1,1.893.181c1.081,1.173,1.64.253,2-.451.342-.65.7-.56,1.244-.758a12.418,12.418,0,0,0,3.118-1.967,7.785,7.785,0,0,0,1.55-1.624c.451-.614.721-1.354,1.154-1.967s.919-1.516,1.514-1.624a1.735,1.735,0,0,0,1.622-1.678c.2-1.227.379-2.454.559-3.7,1.334.108,2.686-.722,2.758-1.733,2.7.379,3.713-.253,4.542-2.8a1.131,1.131,0,0,1,.18-.451c1.532-1.354,3.082-2.653,4.578-4.043a3.185,3.185,0,0,0,1.081-1.66c.36-2.978.6-5.956.9-9.475a25.083,25.083,0,0,1,3.677,1.3,2.174,2.174,0,0,0,3.154-.487c.667-.776,1.442-1.462,2.145-2.184-.306-.884-.7-2.039-1.009-2.96.342-.469.937-.939.865-1.245-.288-1.191.342-1.372,1.262-1.48,2.992-.379,5.966-.866,8.958-1.137a29.231,29.231,0,0,1,4.128.289,23.855,23.855,0,0,1,3.01.036,7.909,7.909,0,0,1,3.479,1.191c1.532,1.263,3.154,1.137,4.759.83,1.694-.325,3.226-1.137,5.1-.74,1.28.271,1.82-.884,1.586-2.292a6.334,6.334,0,0,1,.343-2.689,7.278,7.278,0,0,1,1.406-2.671c.685-.65,1.424-1.227,2.037-1.931,1.027-1.191,1.875-2.436,3.677-2.761.739-.144,1.262-1.516,1.875-2.346,1.37-1.859,2.722-3.718,4.092-5.559.342-.451.7-.9,1.045-1.354-.162-.144-.342-.289-.5-.433-1.748,1.859-3.262,4.079-5.335,5.487-2.055,1.408-4.272,3.14-7.192,2.4-.36-.09-.865.361-1.3.578-2,1.029-3.893,2.075-4.308,4.674-.072.415-1.532.668-2.379.9a13.559,13.559,0,0,1-7.444-.541c-1.063-.307-1.766-1.823-2.632-2.761-.2-.217-.5-.632-.667-.578-1.73.487-1.839-.939-2.307-1.913a25.4,25.4,0,0,0-1.28-2.635,2.929,2.929,0,0,0-4.2-1.119c-.415.235-.541,1.011-.919,1.8-.757-.072-1.893-.18-3.046-.271a1.229,1.229,0,0,0-.775.144c-2.037,1.588-3.533,1.065-4-1.408-.036-.217-.108-.415-.162-.632.523-.451,1.009-.866,1.622-1.372a2.491,2.491,0,0,0,3.371-.253,10.2,10.2,0,0,0-1.766-1.155,3.141,3.141,0,0,0-1.73-.108c-2.073.415-3.262-.632-3.118-2.815a10.9,10.9,0,0,0-.18-1.48c-1.5,2.779-3.8,1.263-5.714,1.462-1.442.144-2.632.072-2.722,2.057-.054,1.191-1.875,2.039-3.064,1.859-.631-.09-1.694-.108-1.929.253-1.19,1.859-2.6,1.119-4.038.56L91,299.255c.847-1.534-.541-1.787-1.568-2.238.054-.144.09-.289.144-.433l4.416-.217c0-.072-.018-.162-.018-.235-1.694-.289-3.407-.6-5.083-.884-.216.523-.378.939-.577,1.426-.649-.83-1.208-1.552-1.839-2.346,1.009-.578,2.127-1.209,3.515-1.985.631-2.8-.379-4.241-5.137-3.519.036-.993-.2-1.877,1.244-2.274a23.287,23.287,0,0,0,4.326-1.967c.27-.144.361-.686.5-1.047.234-.542.523-1.588.667-1.552a12.171,12.171,0,0,1,2.469.758c0,.217,0,.451.018.668.6-.4,1.172-.776,1.947-1.3.415.126,1.352,1.047,1.5-.578,1.8-.072,2.289-1.967,3.7-2.761a7.264,7.264,0,0,1,4.759-.866c.541.054,1.136-.92,1.784-1.318,1.658-1.011,3.3-2.021,5.029-2.906,2.812-1.426,3.893-4.079,4.867-6.786.577-1.624.865-3.375,1.3-5.144.649-.235,1.478-.523,2.56-.9-.433-.2-.5-.271-.6-.271-.9,0-1.857,1.137-2.686-.018-1.316-1.859-1.334-3.592-.2-5.017.433-.541.865-1.1,1.28-1.642-.847-1.336-1.64-2.563-2.4-3.826a1.292,1.292,0,0,1-.162-.776c.162-1.119.36-2.238.595-3.61-.018,0,.433-.054.883-.108.018-.108.09-.253.054-.271a2.343,2.343,0,0,0-.883-.469,11.647,11.647,0,0,1-1.911.144c-1.965-.4-6.255,1.1-7.282,2.743a8.516,8.516,0,0,0-.577,2.13c-.018.018-.4.271-.757.505-.541-.65-1.081-1.317-1.46-1.769-1.55.559-2.776,1.029-4.02,1.408-.09.018-.6-.686-.5-.812,1.568-2.364,2.9-4.711,6.02-5.793,2.019-.7,3.461-3.05,5.155-4.656a.173.173,0,0,0,.036-.162c-.5-1.859.451-3,1.983-3.916-1.316.2-2.487,1.444-3.713.018-.829-.957-2.325-1.336-2.433-2.906a.726.726,0,0,0-.36-.541,11.2,11.2,0,0,1-3.335-2.436,8.063,8.063,0,0,1-.811-1.083c.4-.162.865-.523,1.19-.415a9.8,9.8,0,0,1,1.839,1.065c.108-1.426.216-2.96.324-4.566,5.353-1.769,7.282-1.516,9.265,4.819a7.388,7.388,0,0,1,1.911-.848,8.536,8.536,0,0,1,2.181.289c-.829,1.119-1.532,2.076-2.325,3.14,2.956.83,4.686-2.039,7.48-2.346-.36-.74-.631-1.263-1.009-2.057,1.262.469,2.523.632,3.335,1.336,1.5,1.281,3.01,1.1,4.578.578,1.514-.505,2.938-1.245,4.434-1.751.955-.325,1.784-.614,2.758.614,1.226,1.552,3.082,2.6,4.849,3.989a6.029,6.029,0,0,0-1.514-4.44c-1.442-1.552-1.316-1.967.559-2.852.793-.379,1.55-.812,2.4-1.263.234.361.469.7.775,1.155.072-.235.18-.4.144-.487-.631-1.444-1.334-2.852-1.911-4.313-.234-.614-.5-1.5-.234-1.967,1.316-2.292,2.794-4.494,4.164-6.66-.162-.018-.649-.036-1.117-.072a1.844,1.844,0,0,1-1.947-2.148c.108-1.931.216-3.844.342-6.046,1.19-.235,2.469-.505,3.731-.74.667-.126.955-1.263.487-2-1.244-1.967-1.1-2.545.919-3.79a1.391,1.391,0,0,0,.469-2.31,15.479,15.479,0,0,1-1.226-2.689c-.9.866-1.929,1.859-3.028,2.924-.234-1.372-.415-2.473-.6-3.537-1.1,1.913-2.217,3.844-3.154,5.487-1.118-.343-1.893-.6-2.884-.9-.09-.415-.234-1.1-.415-1.967.378.18.559.271.919.451-.144-.523-.252-.884-.343-1.263.144.054.306.108.451.162l1.19-3.3c-.216-.09-.451-.162-.667-.253-.27.668-.523,1.354-.883,2.256-1.009.325-1.857.108-2.542-1.281a12.337,12.337,0,0,1-1.64-4.332,8.791,8.791,0,0,0-1.712-3.465c-.9-1.372-1.983-2.6-2.92-3.934-.2-.289-.36-.938-.2-1.137,1.19-1.444,1.172-3.213,1.55-4.909a11.3,11.3,0,0,1,2.271-4.079,4.293,4.293,0,0,0,1.226-2.671,9.775,9.775,0,0,1,1.5-3.754c.144-.271.883-.235,1.352-.307a2.78,2.78,0,0,0,1.37-.361c-.361-.18-.721-.379-1.082-.559.667-1.444,2.289-2.094,3.371-1.408,1.64,1.029,1.64,1.029,2.163-.632.036-.144.18-.253.288-.379-1.442,0-2.83.018-4.218-.018-.739-.018-1.5-.235-2.217-.18-1.28.108-2.56-.722-3.857.235-.306.217-1.19-.379-2.055-.668a20.739,20.739,0,0,0,.144,2.563c.216,1.191-.415,1.949-1.6,1.859-.991-.072-2.019-.523-2.884.559-.18.235-1.063-.072-1.622-.144-.126.4-.306,1.011-.613,2A21.691,21.691,0,0,1,124,165.7a3.337,3.337,0,0,1-2.217,0c-.252-.09-.18-1.1-.324-2.238-.415.993-.685,1.642-.973,2.328-1.857-.18-2.559-1.642-3.064-3.3-1.532.614-2.614.072-4.128-2a1.65,1.65,0,0,0,.252,2.906c.793.451,1.1.758.667,1.769-.342.794-.018,1.823-.126,2.743a2.281,2.281,0,0,1-.6,1.39c-.234.2-.9.072-1.28-.126a8.857,8.857,0,0,1-4.038-3.61c-.685-1.173-2.343-1.8-3.569-2.653-.306-.217-.865-.253-.973-.505-.541-1.263-1.226-1.3-2.289-.6-1.081.7-2.325,1.137-1.586,2.87a31.247,31.247,0,0,1,1.406,4.151,6.174,6.174,0,0,1-.09,1.9c-1.857-.235-1.875-.758-1.983-2.635a7.6,7.6,0,0,0-2.56-5.017,6.882,6.882,0,0,1-2.415-6.461c.306-1.769.324-1.769,2.5-2.31.108.975.18,1.9.306,2.815a2.764,2.764,0,0,0,.306,1.245c.2.307.667.433,1.009.65.108-.379.379-.794.306-1.119a12.478,12.478,0,0,0-.9-2.491c-.649-1.263-.18-2.274.324-3.447a20.615,20.615,0,0,1,4.182-6.118,2.6,2.6,0,0,0,.595-1.66c0-2.256,1.875-3.718,2.379-5.775a2.455,2.455,0,0,1,1.352-1.3c2.542-1.065,2.938-2.779,1.388-4.837a6.215,6.215,0,0,0-.4-2.039,2.556,2.556,0,0,0-1.478-1.245c-1.965-.361-2.253-2.4-3.551-3.393-.18-.126.126-.92.234-1.408a15.19,15.19,0,0,0,.541-2.509c.09-2.039-.054-4.1.09-6.136.072-1.065,1.748-1.3,2.992-.812,1.712.668,3.5,1.1,5.137,1.606-1.911-1.372-3.8-2.743-5.894-4.259.18.451.288.722.415,1.011-1.6.7-1.6.7-2.866-3.032a7.256,7.256,0,0,0-.18,1.516c.252,2.436-1.154,4.35-2.019,6.425a.964.964,0,0,1-.883.343,1.374,1.374,0,0,1-.757-.83c-.252-1.047-.378-2.13-.595-3.5-.649,1.155.775,2.346-.721,2.942.306.668.433,1.624.955,1.967,1.37.92.811,2.31,1.064,3.483a6.054,6.054,0,0,1-.433,2.148c-2.487-2.292-2.65-5.721-4.957-8.194.306,1.227.559,2.238.919,3.664-1.19-.866-2.343-1.3-2.776-2.112-1.694-3.3-.234-6.154,1.766-8.753.973-1.281,1.64-2.978,3.587-3.267.252-.036.487-.433.667-.686.667-.975,1.3-1.967,1.893-2.888-1.154-.09-1.911.668-2.307,2.039-.144.487-.5,1.155-.9,1.263-2.65.758-3.479,3.213-4.867,5.108-.865,1.191-1.532,1.534-2.578.253a13.249,13.249,0,0,0,1.262,7.454c.324.578.721,1.1,1.009,1.7.5,1.083.487,1.859-.883,2.454-2.469,1.065-2.848,3.519-2.992,5.793a19.931,19.931,0,0,1-1.55,5.811,17.557,17.557,0,0,1-1.154,2.13c.361,1.011,1.1,1.985.937,2.779a2.793,2.793,0,0,1-2.578,2.382,10.737,10.737,0,0,0-2.361.469c-1.28.379-1.947-.126-1.947-1.462.018-1.751.09-3.411,1.947-4.386.306-.162.451-.866.487-1.317.126-1.48.036-2.978.27-4.422.162-1.047.991-2,1.081-3.032.2-2.455,2.091-3.844,3.172-5.866-.415.2-.793.361-1.063.487-3.064-2.563-.577-4.62.667-7.147-.829.65-1.46,1.137-2.055,1.606-1.694-2.96.324-5.017,1.658-7.2a8.742,8.742,0,0,1,1.658-1.57c-.955-.993.054-2.057.559-3.3-.541.6-1.1,1.191-1.64,1.8a1.966,1.966,0,0,0-.27-.144c.757-1.642,1.532-3.3,2.271-4.891-1.821-.289-2.037-.108-2.6,2.382-.144.018-.288.018-.433.036a20.52,20.52,0,0,1,.018-2.581,5.2,5.2,0,0,1,.667-2.473,9.957,9.957,0,0,1,2.56-1.642c-.5-.578-.865-1.011-1.3-1.534a11.1,11.1,0,0,1,1.1-.866c1.045-.65,2.181-1.191,3.172-1.913.234-.18.126-.83.216-1.588-.613.361-.9.523-1.19.686-.09-.072-.2-.126-.288-.2.4-.686.793-1.39,1.045-1.841.7.217,1.28.415,1.857.6-1.226-.614-1.893-2.292-.883-3.285.847-.83,1.911-1.227,2.181-2.707.108-.6,1.784-.92,2.776-1.39-.487-.271-.937-.5-1.712-.939A22.81,22.81,0,0,0,89.389,87.2a18.039,18.039,0,0,1-1.712,1.985c-1.1,1.029-2.253,1.5-3.731.415a14.639,14.639,0,0,0-2.956-1.336A5.5,5.5,0,0,1,78,83.786c.811-.253,1.658-.5,2.56-.794-.072-.072-.216-.307-.378-.343a18.4,18.4,0,0,0-4.741-.812c-1.118.072-2.055.036-2.217-.938-.108-.559.739-1.462,1.352-1.949.451-.343,1.244-.217,1.875-.289,1.009-.108,2.019-.217,3.3-.361.126.144.469.541.955,1.1.18-.523.306-.9.415-1.281.343.054.685.108,1.37.2-1.172-.65-1.226-1.913-.36-2.292a5.748,5.748,0,0,1,1.136-.144c.306-.072.613-.217.649-.217.18-.74.306-1.263.469-1.985-1.136.126-2.4.253-3.659.4-.054-.162-.108-.343-.144-.5.415-.235.829-.451,1.262-.686a2.839,2.839,0,0,1,.018-.866,12.571,12.571,0,0,1,.847-2.436c.234-.469.739-1.083,1.154-1.119a3.781,3.781,0,0,1,1.875.65,8.148,8.148,0,0,0,1.73.993c-.4-.776-.811-1.552-1.262-2.418-.6-.217-1.442-.5-2.289-.812l-.162-.7c1.081-.758,2.109-1.949,3.28-2.13,1.063-.162,2.289.794,3.479,1.263-.829-1.011-1.208-2.382-3.064-2.328-.991.018-1.027-1.047-.324-1.715a6.6,6.6,0,0,1,1.568-.866l-.6-.758a2.6,2.6,0,0,0-.757.325,13.933,13.933,0,0,1-.973,1.065,16.163,16.163,0,0,0-2.5,2.455c-1.442,1.5-2.235,4.043-4.9,4.277-1.37-1.245.018-2.292.379-3.3a15.582,15.582,0,0,1,1.82-2.906H79.89c-.2-.487-.4-.975-.649-1.57-.6,1.119-1.136,2.112-1.929,3.61-.162-.9-.234-1.336-.324-1.769-.072-.415-.162-.812-.234-1.227a6.988,6.988,0,0,1-1.136.379c-1.136.162-2.271.271-3.515.415.288-.469.559-.9.991-1.588-.667.253-1.063.4-1.73.668-.216-.722-.415-1.372-.667-2.184-1.388.072-1.388-1.7-1.8-2.8-.162-.433.973-1.354,1.37-1.877C69.546,52.863,68.7,52,67.6,50.86c-.288.938-.577,1.823-.847,2.707-4.29-1.7-5.534-4.891-2.866-7.8.649,1.137,1.28,2.238,2.055,3.61.685-1.372-1.208-3.05,1.46-3.754-.793-.6-1.262-.957-1.8-1.372.18-.686.379-1.462.631-2.436.379.361.919.632.937.92.036,1.624,1.55,2.112,2.307,3.158a1.587,1.587,0,0,0,1.442.469c.342-.162.5-.9.613-1.408a6.692,6.692,0,0,0-.415-3.971c-.09-.217.469-.7.757-1.047.306-.343.811-.614.919-.993.324-1.1.775-.884,1.37-.289,3.046,3.05,3.6,6.786,2.83,10.829a6.231,6.231,0,0,1-.793,1.588c2.289-.054.036,2.021,1.154,2.834.739.523,1.009,1.715,1.514,2.671a2.278,2.278,0,0,0,.523-.487c.252-.379.451-.812.667-1.209.523.343,1.208.6,1.514,1.083.162.253-.36.92-.613,1.5.234.2.739.578,1.406,1.083,1.1-.433,2.361-.938,3.623-1.444,1.55,1.534,2.668,1.642,4.542.469q-2.25-.216-4.578-.433c.27-1.931,1.442-2.725,3.623-2.545-.523-.578-.829-.92-1.208-1.317.27-.271.541-.523.919-.884-.306-.072-.5-.2-.6-.144a19.221,19.221,0,0,1-2.2,1.444,2.221,2.221,0,0,1-1.767.18c-.415-.253-.559-1.065-.649-1.642-.126-.794.793-1.769-.577-2.364-.252-.108-.288-1.047-.2-1.57.27-1.426.667-2.815.937-3.916,1.586-.7,1.658,2.527,3.262.65.162.6.324,1.7.487,1.7A22.82,22.82,0,0,0,91.3,46.3a7.322,7.322,0,0,0-2.433-.614,5.564,5.564,0,0,1-1.406-.668c-.757-1.227-1.5-2.436-2.415-3.934.577-2.22.847-2.436,3.118-2.13-.4-.343-.739-.866-1.208-1.011-1.19-.361-1.893-.83-1.586-2.292a17.265,17.265,0,0,0,.036-3.357c.919-.144,1.766-.289,2.65-.415.415,1.534.811,2.942,1.28,4.692.559-1.137.937-1.877,1.28-2.581-1.857-1.751-1.947-2.491-.306-4.512.451.668.793,1.263,1.226,1.8.5.614,1.063,1.191,1.73,1.913.487-1.029.793-1.715,1.208-2.581,1.316.957,2.542,1.859,3.767,2.743.09-.126.18-.253.27-.361l-3.677-2.978c.072-.162.162-.325.234-.487.415.18.829.343,1.226.541.324.162.685.559.937.5a16.783,16.783,0,0,0,2.253-.812c-.5-.6-.991-1.191-1.532-1.751a12.445,12.445,0,0,0-1.027-.92A24.3,24.3,0,0,0,94.87,25.3a2.337,2.337,0,0,1-.234-3c.9.559,1.821,1.119,3.064,1.877l.379-3.61A17.508,17.508,0,0,1,95.7,15.944c.162-.108.306-.217.469-.325.487.379.919.957,1.46,1.083.324.09.811-.5,1.208-.776h3.425c-1.063-2.31-1.893-4.259-.378-6.317l1.388.722c-1.118-1.047-.937-1.931.324-2.761-1.784-1.606-1.28-2.617.469-3.826.775-.541.9-2.039,1.352-3.176,1.244.938,3.839-.271,4.128,2.527.379-.253.721-.487,1.081-.74A9.8,9.8,0,0,0,112.3,3.672c1.316.632.631,1.173.09,1.841-.469.578-.865,1.209-1.3,1.823.144.108.27.235.415.343.468-.451.847-.992,1.28-1.5a9.145,9.145,0,0,0,1.821-2.888c.36-.975,2.037-.235,2.776.541a3.236,3.236,0,0,1,.667,2.13c0,.541-.523,1.083-.577,1.769a24.309,24.309,0,0,1,1.911-2.364c.379-.361,1.172-.776,1.514-.6,1.406.7,2.343-.126,3.371-.758.18-.108.469-.289.6-.235,1.334.758,1.622-.5,1.965-.9,1.027.433,1.875,1.1,2.7,1.1,1.442,0,3.046.325,4.218-1.065.973-1.155,2.433-.993,3.767-1.1.216-.018.469.523.523.578,1.442.126,2.7.217,4.164.343A20.074,20.074,0,0,1,140.94.513c-.072-.144.4-.523.4-.523,2.686,1.029,5.281.7,8.273,1.191-.721,1.606-1.424,3.068-2.055,4.548a3.427,3.427,0,0,0-.415,1.913c.09.343.991.487,1.658.758a12.2,12.2,0,0,1-3.875,7,2.314,2.314,0,0,1-.919.325,7.013,7.013,0,0,0-4.488,3.339c-1.676,3-4.723,4.494-7.318,6.5-.415.325-1.118.559-1.244.975-.469,1.516-1.586,2.057-2.9,2.617a2.851,2.851,0,0,0-1.19,1.751,17.682,17.682,0,0,0-.4,3.068c-1.911-.108-3.731-.217-5.516-.325,1.568.7,3.136,1.426,4.777,2.166.955-.578,1.911-1.751,3.208-.289.144.162,1.19-.379,1.748-.7.306-.18.487-.614.883-1.155,0,1.913-4.11,7.418-5.371,7.652,0,.433.144.939-.036,1.263-.649,1.155-1.19,2.815-2.2,3.213-1.694.668-1.784,2.4-2.974,3.176-.559.361-1.568.09-2.361.036-.5-.018-1.027-.144-1.694-.235.649,1.787,1.929.957,2.884,1.065a7.652,7.652,0,0,0,2.019-.126,1.8,1.8,0,0,0,.919-.469,20.565,20.565,0,0,1,1.8-1.751c.811-.541,1.1-1.029,0-2.076,1.226.072,2.073.054,2.884.18a3.588,3.588,0,0,0,3.5-1.029A5.393,5.393,0,0,1,135.8,42.73c1.154.235,1.712-.253,2.469-1.263.649-.83,2.343-.938,3.6-1.191.5-.09,1.1.289,1.64.505,1.622.65,3.226,1.408,4.885,1.931a2.268,2.268,0,0,0,1.784-.541c1.424-1.209,2.92-.7,4.47-.451,2.794.451,5.624.812,8.436,1.083.541.054,1.154-.4,1.712-.614.144-.054.342-.289.361-.271,2.2,1.642,4.344-1.047,6.435-.126a12.026,12.026,0,0,1,3.371,2.166c1.911,1.733.973,4.241,2.451,5.956.306.361-.09,1.606-.487,2.238-.973,1.624-2.271,3.05-3.19,4.692a63.8,63.8,0,0,0-3.136,6.642c-.216.523.2,1.3.252,1.967a2.911,2.911,0,0,1-.108,1.372c-.955,1.913-2,3.772-2.974,5.667a3.142,3.142,0,0,0-.288,1.227,8.814,8.814,0,0,1-4.344,7.472c-.685.451-.9,1.66-1.3,2.545-.072.144.2.541.126.6-2.055,1.733-.685,5.432-3.965,6.606-1.28.451-2.163,1.985-3.19,2.978-.991.036-2.127.09-3.262.144-.018.253-.036.487-.054.74.523.144,1.063.271,1.947.5-.361,1.083-.739,2.2-1.136,3.429.667.307,1.8.758,2.884,1.336s2.091,1.281,3.245,1.985a11.5,11.5,0,0,1-5.732,4.007c-.36.144-1.027-.18-1.388-.487a1.625,1.625,0,0,0-2.469.09c-1.172,1.083-2.361,2.13-3.5,3.231-.288.289-.667.7-.649,1.047.036,1.137-.721,1.281-1.532,1.534-1.244.379-2.451.884-3.7,1.281-.469.144-1.027.4-1.424.253-1.893-.7-3.677-1.733-5.84-1.3-.306.054-.685-.289-1.027-.451-.108.126-.216.235-.306.361a7.167,7.167,0,0,0,1.947,1.444,33.325,33.325,0,0,0,4.849.92c1.983.271,4,.361,5.984.632a3.3,3.3,0,0,1,1.64.866,2.336,2.336,0,0,0,2.884.451c1.514-.7,3.046-1.263,3.569-3.249a2.182,2.182,0,0,1,2.668-1.263c1.658.307,3.262.253,4.056,2.112.09.217.541.307.811.451,1.208.65,2.4,1.317,3.641,1.913a15.038,15.038,0,0,0,3.389,1.336c1.208.253,2.253.18,3.064,1.552,1.694,2.906,3.749,5.613,5.642,8.41a9.075,9.075,0,0,0,1.3,2.057A16.2,16.2,0,0,0,179,130.593a3.7,3.7,0,0,1,2.289,2.942c.126,1.029.811,2,.919,3.014a24.441,24.441,0,0,1-.216,3.79c-.018.271-.126.686,0,.794,2.019,1.678.054,4.53,1.875,6.335.415.4.054,1.516.216,2.256a13.527,13.527,0,0,0,.973,3.176c.865,1.751,2.073,3.339,2.83,5.126.415.975.036,2.274.342,3.339.865,3.05.919,6.551,4.11,8.085.2,1.317.36,2.4.487,3.14a16.491,16.491,0,0,1,2.776.469c1.983.65,3.929,1.408,5.858,2.184a18.424,18.424,0,0,1,2.776,1.444c1.514.975,3.389,1.751,4.38,3.14,1.6,2.238,2.523,4.963,3.965,7.346.649,1.065,2.614,1.7,2.7,2.653.2,1.877,1.334,2.166,2.6,2.689.9.361,1.748.848,2.866,1.39-.5.325-.757.614-1.063.686-2.037.523-2.848,1.769-2.4,3.9.829,4.007,3.1,7.255,5.48,10.468,1.406,1.877,2.613,3.916,3.893,5.884.036.072-.018.2-.054.487a3.622,3.622,0,0,0-4.668-.7,2.44,2.44,0,0,1-2.037-.5,16.6,16.6,0,0,1-2.884-2.96,1.969,1.969,0,0,0-2.56-.722c-1.6.5-3.262.884-4.9,1.227a1.732,1.732,0,0,1-1.19-.343c-1.19-.866-2.019-.325-2.794.686,1.154-.487,2.055-.036,3.154.325,1.334.451,3.118-.09,4.614-.559,1.712-.541,2.722-.415,3.7,1.317a7.675,7.675,0,0,0,4.524,3.736,1.8,1.8,0,0,1,.865.74,6.238,6.238,0,0,0,4.182,2.761c.342.036.739.5.9.866,1.694,3.754,3.515,7.454,4.939,11.3a8.808,8.808,0,0,1-.108,4.53c-.144.668-1.154,1.191-1.821,1.7a15.383,15.383,0,0,0-5.317,6.912,8.35,8.35,0,0,1,1.532.559,6.394,6.394,0,0,1,2.2,1.715,2.228,2.228,0,0,0,2.487,1.372,5.777,5.777,0,0,1,1.893.379c1.712-1.39,2.415-3.429,2.92-5.613a2.637,2.637,0,0,1,2.487-1.985,30.6,30.6,0,0,1,7.264-.162c3.353.253,6.723.415,10.04.975a12.794,12.794,0,0,1,4.6,2.112c1.712,1.1,3.208,2.527,4.813,3.79a10.281,10.281,0,0,1,4.128,8.916,10.256,10.256,0,0,0,.288,1.913C269.889,261.522,269.889,263.526,269.889,265.511Z" transform="translate(50.128)" fill="#fff"/><path d="M4.493,233.847a14.1,14.1,0,0,1,7.985-3.754c.595-.108,1.063-.938,1.622-1.462.108.09.433.343.811.632.306-.938.577-1.751.757-2.328,1.244-.162,2.325-.289,3.407-.415.018-.162.036-.307.054-.469-1.5-.253-2.992-.505-4.65-.794.072.812.108,1.227.144,1.66a1.729,1.729,0,0,1-.324,0c-.487-1.408-1.64-1.227-2.614-.9a9.5,9.5,0,0,1-5.245.487,6.879,6.879,0,0,1-1.388-.722c.054.451.072.722.144,1.245-.739-.253-1.388-.469-2.019-.668.036.108.09.235.126.343-.937.217-1.857.451-2.794.668a9.907,9.907,0,0,1-.487-2.545A8.964,8.964,0,0,1,1,222.44c.595.65.937,1.011,1.442,1.552.667-3.646,3.461-4.44,6.363-5.468v2.4c2.686.018,3.713-.92,3.389-3.176.27.289.757.541.811.866.306,2.094,1.334,3.05,3.407,2.779,1.352-.162,2.668-.523,4.092-.812-.541-1.317-1.748-.884-2.758-.993a6.554,6.554,0,0,1-1.136-.289,5.991,5.991,0,0,0,.577-1.119,12.758,12.758,0,0,0,.613-3.032c0-.307-.9-.614-1.37-.957-.451-.307-.865-.65-1.316-.993a5.228,5.228,0,0,1,1.5-.668,6.919,6.919,0,0,0,4.434-1.787c.5-.487,1.46-.541,2.145-.758a2.078,2.078,0,0,1-.252-3.086c.5-.632,1.8-.7,2.758-.848,1.19-.162,2.4-.108,3.6-.162.541-.018,1.172-.325,1.6-.126,3.172,1.372,5.48-1.372,8.309-1.624a7.745,7.745,0,0,0,1.3-.18,3.6,3.6,0,0,0,1.55-.559,5.2,5.2,0,0,1,4.867-1.372,2.44,2.44,0,0,0,.721.144c.126,0,.234-.2.829-.74-2.127-.217-3.821-.4-5.227-.541-.126-1.047-.252-2.256-.415-3.592a2.877,2.877,0,0,0-2.163,1.949,21.328,21.328,0,0,1-3.082,4.44c-.144.18-.487.217-.739.307-1.027.4-2.055.83-3.1,1.191a6.707,6.707,0,0,1-1.226.144c-.162-.2-.306-.415-.469-.614.6-.253,1.19-.487,1.784-.74l-.27-.379c-1.37.253-2.758.848-4.074.686-1.334-.162-3.1-.307-3.443-2.473-.054,1.877-1.244,2.057-2.541,2.436-1.136.325-2.055,1.372-3.19,1.733a35.179,35.179,0,0,1-4.614.794c-.072-.144-.144-.271-.216-.415.36-.307.667-.758,1.081-.9,3.317-1.209,5.5-3.718,7.588-6.389.415-.523,1.352-.614,2.037-.939.523-.253,1.3-.433,1.478-.866,1.027-2.473,1.73-5.089,3.713-7.039a3.678,3.678,0,0,0,.451-.776h-3.19c1.316-2.382,2.541-4.638,3.8-6.876.433-.794.973-1.534,1.352-2.364.4-.9.811-1.119,1.766-.614a9.6,9.6,0,0,0,2.7.686c.108.018.306-.433.631-.957,1.3.018,3.082-2.184,4.524.523.144-1.065.252-1.967.379-2.906-.5-.126-1.172-.307-2.055-.541.649-.794,1.154-1.408,1.658-2.021-.018-.144-.018-.289-.036-.433-1.712.325-3.425.758-5.155.957-3.335.361-6.687.577-10.04.83-1.388.108-1.676-.92-1.857-2.473-.162.758-.144,1.119-.306,1.318a4.046,4.046,0,0,1-.955.65c-.108-.361-.415-.83-.288-1.047.613-1.137-.126-2.743,1.226-3.628.054-.036-.126-.451-.216-.722-.613.451-1.154.83-1.676,1.209a3,3,0,0,0-.234-.253c.216-.6.433-1.191.631-1.787-.18-.108-.361-.235-.523-.343a15.321,15.321,0,0,0-1.6,2c-.973,1.715-1.586,1.913-3.262.993a7.766,7.766,0,0,0-1.8-.5c-.054-1.3-.054-1.3,2.776-3.122-.27-.361-.523-.7-.775-1.029-.415.217-.829.433-1.406.74V166.6l-.667-.56a5.081,5.081,0,0,1-.559,1.354c-.4.469-1.009,1.119-1.478,1.083-.667-.054-1.3-.668-1.947-1.065-.379-.235-.685-.632-1.081-.722a6.145,6.145,0,0,0-1.37.126c-.4.036-.775,0-1.172,0,.162-2.22,1.839-1.606,3.244-1.787-1.514-1.263-1.28-3.772-3.623-4.6,1.586-.289,3.172-.578,4.777-.866-.216-.4-.433-.776-.865-1.534.973,0,1.64.018,2.307,0,.7-.036,1.406-.108,2.109-.162-.072-.6-.2-1.191-.216-1.8-.018-1.5-.379-3.194.2-4.44.36-.776,2.127-1.119,3.3-1.281a45.717,45.717,0,0,1,4.723-.09,5.763,5.763,0,0,0,1.532-.56c-1.406-.848-2.65-1.552-.811-2.942.288-.217.162-1.029.234-1.7a33.9,33.9,0,0,0-4.632-.162c-1.009.108-1.947.848-2.974,1.137-.811.235-1.893.993-2.253-.74-.072-.343-1.081-.523-1.676-.74a2.189,2.189,0,0,1-1.478-3c-1.965-.2-3.749-.361-5.876-.559,2.722-2.292,5.606-1.931,8.616-2.22.234,1.642.487,3.3.685,4.729.469-.469,1.009-1.462,1.568-1.48.721-.018,1.442.758,2.415,1.354-.379-.578-.721-1.1-1.081-1.642a12.55,12.55,0,0,1-2-3.285c-.2-.758.613-1.787.991-2.689a2.2,2.2,0,0,0,.288-1.354,13.876,13.876,0,0,1-.973,1.083c-.487.451-1.009.848-1.532,1.281-.36-.487-.739-.957-1.226-1.606.775-.361,1.3-.614,1.947-.92-1.568-1.065.415-3.862-2.271-4.386-.27,1.859-2.92,3-1.514,5.4-1.154.343-1.929.072-1.694-1.047a44.291,44.291,0,0,1,1.442-4.584c-.126-.09-.451-.307-1.045-.722,1.063-1.1,2.055-2.13,2.83-2.942.955.632,1.766,1.1,2.505,1.66a1.041,1.041,0,0,1,.4.812,1.333,1.333,0,0,1-.685.83,3.906,3.906,0,0,1-1.3-.036c.991,1.065,2.343.993,2.469-.253.144-1.534.775-2.184,2.56-1.787-.072-.162-.144-.325-.2-.469-.288-.162-.595-.307-.865-.487-.324-.217-.883-.5-.865-.722a1.289,1.289,0,0,1,.721-.957c.775-.162,1.821-.451,2.325-.09,1.748,1.245,3.749.487,5.57.993a13.83,13.83,0,0,0,3.353.343,5.838,5.838,0,0,0,2.127-.343c2.992.938,4.074,2.581,3.371,4.692.721.794,1.388,1.516,2.037,2.238.487-1.119,1.045-2.455,1.622-3.808a3,3,0,0,1,4.6-1.245,3.588,3.588,0,0,0,3.425.6c.955-.253,2.974-.92,3.8,1.191a2.194,2.194,0,0,0,2.65,1.354l-2.037-2.094c.036-.2.09-.415.126-.614,1.045-.126,2.109-.235,3.533-.4-.991-.632-1.694-1.083-2.379-1.516.036-.072.072-.162.108-.235l1.478.235c-1.154-1.281-1.712-1.336-3.641-.433-.865-.993-1.244-1.787.523-2.31a7.249,7.249,0,0,0,2.758-1.516,9.627,9.627,0,0,0,1.5-2.328c1.568-.361,3.172-.7,4.759-1.083a.809.809,0,0,0,.469-.415c.991-1.9,1.965-3.79,2.938-5.667.415.126.739.235,1.226.379-.036-.4.018-.7-.09-.776-.4-.253-.955-.7-1.28-.6a31.925,31.925,0,0,0-3.281,1.516c.036-.686.054-1.137.108-2.057-1.622,1.408-2.974,2.563-4.308,3.736-.126-.108-.234-.217-.361-.325.613-.614,1.208-1.245,1.947-1.985a2.1,2.1,0,0,0-.649-.18,16.658,16.658,0,0,1-6.128,0,6.842,6.842,0,0,1-2.848-1.3,9.24,9.24,0,0,1-1.586-2.292c.433.271.865.541,1.3.794a19.272,19.272,0,0,1,1.208-2.87c1.334-2.112,3.281-1.534,5.173-.993a2.592,2.592,0,0,0,1.514.144c-.541-.289-1.1-.577-1.64-.866.036-.108.09-.217.126-.325.883.343,1.748.686,2.632,1.047.036-.054.072-.09.108-.144-1.154-.884-2.289-1.769-3.911-3.032,2.145-.235,3.857-.433,5.5-.614a.908.908,0,0,1-.4-.289,1.331,1.331,0,0,1-.2-.686,17.843,17.843,0,0,1,1.857-.686c-.559-.253-1.045-.7-1.406-.614-1.694.361-2.253-.018-2.181-1.751.487-.144.991-.307,1.514-.469-.541-.83-1.027-1.588-1.442-2.22,1.154-1.372,2.253-2.6,3.244-3.9.234-.307.108-.9.108-1.354A1.981,1.981,0,0,1,63.019,87.3a11.335,11.335,0,0,0,2.4-.415c-.018.144-.018.4-.054.632a2.183,2.183,0,0,0-.108.614c1.334-1.462,3.641-1.985,3.821-4.512.162.036.306.054.469.09,1.009,1.318,2.037,2.635,3.1,4.043a1.627,1.627,0,0,0,.288-2.346c-.847-.993-.973-1.516.4-1.985.234-.072.324-.65.469-.975.18.144.36.289.541.415a5.7,5.7,0,0,1-.234.993c-.469,1.065-.649,1.715.973,2,.9.162,1.6,1.354,2.379,2.075a8.609,8.609,0,0,0-.018-1.66,22.294,22.294,0,0,0-.883-2.635v1.949c-.252.09-.379.18-.415.144-2.163-1.733-2.109-1.877.577-3.194a9.531,9.531,0,0,0,1.766-1.588c.288.812.793,1.516.667,2.094-.36,1.678.7,2.6,1.5,3.772,1.334,1.985,1.244,2.346-.577,3.934-.379.325-.757.632-1.154.957.5.235,1.009.487,1.514.722-.36.433-.757.866-1.1,1.318a4.54,4.54,0,0,0-.847,1.534l4.38-3.411c.108-.09.234-.325.18-.433-.775-1.859.4-4.277-1.46-5.775-.973-.794-.7-1.48-.5-2.436.306-1.444.577-2.689,2.523-2.364a1.721,1.721,0,0,0,1.172-.541c.811-.776,1.3-.9,1.766.343.126.307.955.361,1.586.559-1.226-1.552-2.271-2.888-3.335-4.241,1.172-.541,4.921.307,5.552,1.552,1.172,2.328,3.425,2.707,5.462,3.537a7.536,7.536,0,0,1,1.136.722c-.288.415-.469.993-.847,1.245-1.316.884-2.7,1.678-4.074,2.473-1.821,1.065-2.56,2.852-3.335,4.53,1.424.2,2.541.559,3.713.74a2,2,0,0,0,2.361-1.57c.559-1.751,1.172-3.483,1.766-5.2a18.863,18.863,0,0,0,3.064.668,5.47,5.47,0,0,0,3.515-.993c1.586-1.1,3.407-2.292,5.245-2.491,1.983-.217,4.236-.307,6.183.9a2.4,2.4,0,0,0,1.8.18,3.124,3.124,0,0,1,4.236,3.176c-.054,1.209-.18,2.4-.27,3.61,2.542.541,2.542.541,1.983,3.357,2.307,1.949,4.236,4.025,4.686,7.147.072.451.7.812,1.063,1.209l.379-.325c-.324-.5-.631-1.011-1.208-1.949.9.162,1.46.09,1.821.343a3.3,3.3,0,0,1,1.316,3.664,4.2,4.2,0,0,1-2.073,2.256c-1.514.776-2.974,1.5-3.407,3.3a10.831,10.831,0,0,0-.126,1.877l.433.108c.27-.379.541-.776.829-1.155,1.063-1.354,2.271-2.4,4.2-2.021a3.054,3.054,0,0,0,1.442-.162c1.694-.523,2.7.181,3.263,1.877.739,2.22,1.73,4.35,2.6,6.515a1.459,1.459,0,0,1,.144.776c-.415,1.967-.847,3.916-1.352,5.866-.072.253-.6.379-1.118.7.09,1.949-1.388,3.393-2.542,4.368a34.655,34.655,0,0,0-4.164.036c-1.622.2-2.019.993-1.929,2.617.108,2.076-.144,4.061-2.109,5.378-.829.541-1.514,1.318-2.343,1.823a2.116,2.116,0,0,1-1.532.108c-.162-.036-.18-.74-.234-1.029-1.334-.577-2.632-1.137-3.929-1.715-.09.162-.162.325-.252.487,1.027.83,2.091,1.606,3.082,2.473a1.907,1.907,0,0,1,.721,1.173,1.165,1.165,0,0,1-.793.866,5.623,5.623,0,0,1-2.2-.072,25.5,25.5,0,0,1-2.938-1.209,40.613,40.613,0,0,0-.829,3.989,2.512,2.512,0,0,0,2.253,2.96c.937.18,1.3.487,1.28,1.624a39.536,39.536,0,0,0,.5,6.678,6.842,6.842,0,0,0,3.136,4.458c1.37.975,1.658,1.715,1.154,3.3-.433,1.39-1.658,2.707-.793,4.314A16.624,16.624,0,0,0,122.2,168c.144-.072.306-.126.451-.2-.144.379-.288.74-.433,1.137-1.784-1.209-1.784-1.209-4.308.776,1.009.866,1.965,1.642,2.884,2.473a2.467,2.467,0,0,1,.775,1.065c.487,1.859.937,3.736,1.352,5.613a21.384,21.384,0,0,1,.685,3.808c.036,1.48-.451,2.978.937,4.151a.893.893,0,0,1,.162.848,61.319,61.319,0,0,0-2.668,5.613c-1.1,3.086-1.947,6.281-2.884,9.439a.414.414,0,0,0,.036.325c1.568,3.158-.379,5.414-1.911,7.869a47.08,47.08,0,0,0-2.325,4.873c-.2.054-.865.2-1.532.361a11.807,11.807,0,0,0,.541,1.769c.036.072.685-.126.7-.126a25.893,25.893,0,0,0,1.586,2.527c.541.686.072,3.375-.793,3.573-.234.054-.6-.415-1.19-.866h-2.091c-.6.289-1.712.812-2.776,1.336-1.839-1.57-1.8-2-6-1.57.342-.668.631-1.263,1.009-2-1.118.65-1.8,1.263-1.6,2.581.072.433-.541,1.029-.955,1.444-.667.686-1.424,1.263-2.253,1.985a9.112,9.112,0,0,0,.631-2.834,4.7,4.7,0,0,0-1.55-2.581v2.852c-.342,1.733-1.586,2.455-3.425,2.148.018-.505.054-1.065.072-1.336-1.37.541-2.65,1.516-3.857,1.444a15.4,15.4,0,0,0-9.066,2.076c-.4.235-1.045.09-1.821.469.577.433,1.154.848,1.839,1.336-.865,1.444-1.388,3.592-4.02,3.465-.162,0-.433.072-.451.144-.379,1.8-1.766,1.408-2.866,1.173-1.784-.379-1.839,1.354-2.794,2.039.234.343.487.668.757,1.065-1.063,1.3-4.164-.289-3.767,3.032-1.929.325-3.875.7-5.84.939-.342.036-.847-.469-1.1-.848a7.627,7.627,0,0,1-.577-1.7c.469-.74.9-.776,2.145.235.27-.469.541-.92.937-1.588-1.622.271-2.974.487-4.218.7.306,1.155.973,2.382.811,3.483a4.947,4.947,0,0,1-1.766,3.339c-1.262.722-2.7,1.8-4.8,1.516-.18.866-.433,2.075-.6,2.852-.955-.181-2.2-.83-3.01-.469-.757.325-1.063,1.715-1.712,2.888a24.261,24.261,0,0,0-3.064-.722,2.193,2.193,0,0,0-1.5.541,27.169,27.169,0,0,0-2.181,2.166c-.577-1.714-1.6-1.931-3.046-1.534-.613.162-1.388-.253-2.2-.415.757,1.552.252,2.238-1.514,2.31-.433.018-.811,1.011-1.28,1.66a2.175,2.175,0,0,0-2.9.09c-.324.289-1.334.415-1.46.235a9.583,9.583,0,0,1-1.027-2.364,5.5,5.5,0,0,1-.162-1.119c-2.073.92-3.839,1.715-5.678,2.527q-.324-.406-.811-1.029c-.541.379-1.406.65-1.532,1.119-.487,1.877-1.983,1.426-3.262,1.751-.216-.523-.4-.957-.577-1.39q3.947-2.815,7.9-5.649c-.09-.144-.162-.307-.252-.451-2.56,1.119-5.1,2.238-7.661,3.357,2.379-2.906,5.5-4.422,8.85-5.577,1.658-.559,1.893-.83,2.2-2.617-1.712,1.047-2.073-.361-2.578-1.751a4.322,4.322,0,0,1-4.164,3.808,42.2,42.2,0,0,0-5.8,1.1c-.847.235-1.478,1.173-2.325,1.462a26.226,26.226,0,0,1-3.587.686,4.675,4.675,0,0,1-1.893.217,5.726,5.726,0,0,1,1.28-1.029c1.929-.758,1.965-.776.721-2.364,1.262-.361,2.523-.74,3.785-1.1-.036-.163-.072-.343-.108-.505-.306-.2-.6-.4-1.118-.74a13.078,13.078,0,0,1,3.118-1.642,5.282,5.282,0,0,0,2.74-1.372c.973-1.029,1.676-2.473,3.479-2.509a8.128,8.128,0,0,0,2.433-.993c-1.821-.307-1.839-.325-5.317,1.516-1.46.776-3.118.722-4.6,1.317-1.712.686-3.317,1.606-4.831,2.364-1.009-.6-1.929-1.137-2.848-1.66.991-.469,1.568-1.155.847-2.364-.577-.957-1.136-1.047-1.911-.2-.721.794-1.55,1.48-2.325,2.2-.847-.993.973-2.87-1.478-2.852-.054-2.8,2.992-1.5,4-3.14a23.338,23.338,0,0,1-1.43-2.131Zm129.6-112.854c.108-1.751.523-3.483.234-5.072-.342-1.841-2-2.761-3.839-3.321a7.527,7.527,0,0,0,.937,3.194c1.55,2.184,1.1,4.187-.306,6.533,1.133-.522,2-.9,2.972-1.334Z" transform="translate(0 61.822)" fill="#fff"/><path d="M59.1,29.334c1.172,1.227,1.875.668,2.632-.343.469-.614,1.208-.938,1.424-1.841.054-.217,1.244-.162,2.145-.253a3.46,3.46,0,0,0-2.866-1.949,3.109,3.109,0,0,1-2.487-1.769,8.425,8.425,0,0,0-1.532-1.7c.072-.144.144-.271.234-.415.415.144.811.307,1.226.451s.811.271,1.226.415c-.018-.379.108-.884-.072-1.137a5,5,0,0,1-.6-5.523,2.129,2.129,0,0,0,.09-.559c.324.036.631.09.883.108.18-.758.342-1.516.559-2.436,1.352.559,2.5,1.029,3.767,1.552V11.3c.613.848.973,1.336,1.334,1.823.09-.036.2-.072.288-.108a14.6,14.6,0,0,1-.09-1.534c.018-.325.054-.848.27-.957,1.334-.722,2.7-1.354,4.056-2a12.217,12.217,0,0,0,2.019-.957C75.377,6.25,77.09,4.824,78.82,3.434c.5-.415.991-.866,1.5-1.336a4.046,4.046,0,0,1,1.208,5.017,8.941,8.941,0,0,0-.216,2.617c-1.081,1.191-2.505,2.779-3.857,4.277,2.163,2.346,3.028-1.011,4.723-1.029a3.178,3.178,0,0,1-1.965,3.12c-.342.162-1.045-.433-1.712-.722-.451.018-1.063.054-1.622.09v2.4c-1.011.563-1.879,1.03-2.759,1.52,0,.054.018.108.018.18.631-.126,1.244-.253,2.163-.433a25.858,25.858,0,0,1,.379,3.447c0,.307-.18,1.462-1.244.848-.09-.054-.757.487-.775.776-.09,1.137-.451,2.039-1.622,2.31a16.326,16.326,0,0,1-2.668.325,9.108,9.108,0,0,1-1.3-.072c.252.975.487,1.823.7,2.671a3.675,3.675,0,0,1-.234.325c-.865-.722-1.712-1.462-2.578-2.184-.162.09-.342.18-.5.271.4.884.775,1.769,1.009,2.274-1.947,1.426-3.767,2.761-5.624,4.133C60.8,32.818,59.7,31.32,58.6,29.8a4.2,4.2,0,0,0,.5-.466Z" transform="translate(46.867 1.698)" fill="#fff"/><path d="M67.809,48.027c1.172-.235,2.037-.162,2.848-1.119,1.136-1.354,3.479-.505,4.326,1.263.216.433.649.83.685,1.281.216,2.22,1.875,2.509,3.551,3.14a18.236,18.236,0,0,1,4.146,2.888c.162.126.126.614.09.939-.27,1.8-3.028,4.512-4.813,4.692a3.144,3.144,0,0,1-1.063-.307c.342-.469.6-.83.973-1.354-.415-.036-.721-.144-.883-.054A31.326,31.326,0,0,1,74.3,61.3a13.9,13.9,0,0,1-2.92.451,15.117,15.117,0,0,1-3.172.523,9.367,9.367,0,0,1-2.6-.993c.415-.866.613-1.859,1.208-2.256.361-.235,1.334.433,2.145.74,0,.018.072-.235.144-.505,2.343.668,5.281-.2,5.444-1.534-1.045.271-2.109.559-3.19.776a3.543,3.543,0,0,1-1.136-.126c.162-.469.18-1.119.5-1.39,1.027-.866,1.478-2.509,3.3-2.436.433.018.9-.74,1.262-1.227C70,54.257,70,54.257,68.127,52.6c1.208.144,2.415.307,3.821.469A3.582,3.582,0,0,0,69,51.4c-.469.018-.973-.415-1.442-.632.234-.433.469-.866.793-1.48a11.622,11.622,0,0,1-.542-1.261Z" transform="translate(52.637 37.222)" fill="#fff"/><path d="M63.04,73.786c.09-.487.126-.993.252-1.462.433-1.552,1.027-3.068,1.334-4.656.2-1.047.415-1.66,1.658-1.715.541-.018,1.063-.722,1.8-1.245-.162.957-.306,1.715-.5,2.815a8.623,8.623,0,0,1,5.353-4.4c.126,1.751.108,3.393.379,4.963.216,1.281.865,2.509,1.208,3.772.757,2.815-1.352,4.927-4.272,4.313-1.052,2.109-1.48,2.29-3.552,1.153a20.422,20.422,0,0,0,1.929-2.346,1.979,1.979,0,0,0,.036-1.57,7.691,7.691,0,0,0-1.442-1.642c.667-.614,1.388-1.263,2.163-1.967-1.154-.577-1.911-.668-2.632.74a22.5,22.5,0,0,1-2.83,3.646C63.617,74.039,63.328,73.913,63.04,73.786Z" transform="translate(50.575 50.806)" fill="#fff"/><path d="M84.61,115.109c.5-1.787.847-3.411,1.442-4.945.415-1.047.631-2.184,1.965-2.834a5.017,5.017,0,0,0,2-2.707,6.128,6.128,0,0,1,5.606-4.4c.955,1.48-2.415,4.061,1.424,4.837a18.99,18.99,0,0,0-2.073,3.3c-.955,2.635-3.064,3.971-5.263,5.306-.577.361-.739,1.372-1.766,1.047-.144-.054-.523.162-.541.126-.757-1.39-1.37-.289-2.055.072A2.286,2.286,0,0,1,84.61,115.109Z" transform="translate(67.884 80.664)" fill="#fff"/><path d="M57.312,33c-.234-.289-.415-.74-.721-.866a1.635,1.635,0,0,1-.937-2.31c.487-1.1,1.622-.812,2.56-.487.306.108.541.433.955.758-.108-.7-.18-1.209-.216-1.534-2.055-1.552-4.056-3.05-6-4.512.9-1.57,1.658-3.1,3.7-2.617-.126.253-.306.6-.451.848.991-.235,1.839-.433,2.65-.65.451-.126.9-.343,1.334-.5.379-.144.919-.523,1.1-.4a3.678,3.678,0,0,1,.757,1.137c.5.253,1.244.415,1.532.848.216.325-.108,1.029-.2,1.733-.9-.668-1.478-1.119-2.073-1.552-.126.108-.234.217-.36.343.559.686,1.136,1.354,1.821,2.184-1.19.578.306,3.628-2.7,3.375.451.036.883.054,1.442.09-.18.469-.306.83-.469,1.245-.5-.126-.919-.235-1.118-.289-.162.523-.306,1.029-.487,1.642.072.036.4.235.721.415.018.18.018.361.036.541l-2.938.541Z" transform="translate(42.478 16.672)" fill="#fff"/><path d="M85.285,76.066c-.451.379-.757.668-.865.758.252,1.011.5,1.787.649,2.6.18.993-.126,1.462-1.3,1.534-3.136.18-3.983-.235-5.047-3.068a5.041,5.041,0,0,1-.018-1.281,6.065,6.065,0,0,0-.324-2c-1.082-2.112.234-5.559,2.523-5.7.919-.054,2.253,1.155,2.776,2.13a6.094,6.094,0,0,1,.18,3.7C84.311,75.163,84.78,75.6,85.285,76.066Z" transform="translate(62.577 55.457)" fill="#fff"/><path d="M129.92,191.226c.577-2,2.578-1.9,3.965-2.671a11.7,11.7,0,0,1,2.235-1.209,5.231,5.231,0,0,1,2.307-.036c.559.108,1.045.776,1.568.776a3.458,3.458,0,0,1,3.371,2.238,8.91,8.91,0,0,0-1.081.812c-.577.578-1.352,1.119-1.586,1.823a2.716,2.716,0,0,1-4.272,1.281,30.4,30.4,0,0,0-4.308-2.96C131.56,190.955,130.659,191.226,129.92,191.226Z" transform="translate(104.245 150.664)" fill="#fff"/><path d="M71.989,73.264c-1.748.036-2.92-.307-3.082-2.057-.252-2.689.739-4.133,3.551-4.945-.433-.325-.775-.578-1.154-.866,1.406-3.555,5.155-4.458,7.3-7.075.216.09.415.18.631.271a8.972,8.972,0,0,1-.523,2.256c-1.28,2.418-2.65,4.783-4.038,7.129-.523.9-.487,2.13-1.929,2.563C72.277,70.683,72.241,72.289,71.989,73.264Z" transform="translate(55.252 46.943)" fill="#fff"/><path d="M56.713,27.49c.7.812,1.406,1.606,2.181,2.509-.09.09-.306.289-.559.541.306.541,1.045,1.3.883,1.642a16.486,16.486,0,0,1-1.839,2.671c.108,1.336.18,2.473.27,3.592a3.5,3.5,0,0,1-.433.036c.288.325.739.614.829.993.072.271-.324.938-.523.938a5.932,5.932,0,0,1-2.325-.361,2.107,2.107,0,0,1-1.154-1.336c-.36-2.436-.9-4.855.451-7.291.5-.9.072-2.328.072-3.88h2.2Z" transform="translate(43.022 22.132)" fill="#fff"/><path d="M65.71,38.222a16.874,16.874,0,0,1,3.39-1.678c.4-.108,1.442.794,1.586,1.39a3.022,3.022,0,0,1-1.838,3.826C67.963,40.731,66.99,39.648,65.71,38.222Z" transform="translate(52.717 29.411)" fill="#fff"/><path d="M64.2,49.123H62.74c.054.144.108.271.162.415a8.222,8.222,0,0,0-1.748.975,12.764,12.764,0,0,0-1.442,1.877c-.433-.217-.991-.5-1.568-.794a3.723,3.723,0,0,1,.036-1.48c.27-.578,1.045-1.516,1.226-1.444,1.5.65,2.7-.56,4.074-.469.324.018.631.307.955.487C64.366,48.816,64.294,48.978,64.2,49.123Z" transform="translate(46.599 38.797)" fill="#fff"/><path d="M61.75,49.847c2.091-1.624,3.5-4.061,6.723-4.927C67.374,48.4,65.211,49.847,61.75,49.847Z" transform="translate(49.54 36.159)" fill="#fff"/><path d="M52.759,40.13c-.2.451-.379.92-.613,1.354-.018.036-.649-.144-.649-.235a4.254,4.254,0,0,1,.18-2.112,20.357,20.357,0,0,1,2.181-2.328,5.866,5.866,0,0,0,.613-1.3c.4,1.047.775,2.021,1.19,3.122-.775.505-1.676,1.1-2.6,1.715a3.375,3.375,0,0,0-.3-.216Z" transform="translate(41.281 28.586)" fill="#fff"/><path d="M73.9,26.485c-.18.559-.2,1.263-.559,1.642-.991,1.083-.613,2.2-.433,3.393a3.872,3.872,0,0,1-.342,1.769c-.054.162-.829.235-.847.18a7.474,7.474,0,0,1-.5-1.751,2.37,2.37,0,0,1,.072-1.281c.595-1.444,1.28-2.852,1.929-4.277C73.431,26.268,73.665,26.377,73.9,26.485Z" transform="translate(57.091 21.061)" fill="#fff"/><path d="M70.412,58.51c-1.081,2.039-1.983,3.718-3.01,5.685C66.267,61.686,67.258,59.882,70.412,58.51Z" transform="translate(53.711 47.096)" fill="#fff"/><path d="M16.12,135.686c-.847.523-.847.523-5.57-1.967C11.758,133.286,12.5,133.539,16.12,135.686Z" transform="translate(8.453 107.481)" fill="#fff"/><path d="M70.409,39.41c.721.6.775,2.364-.036,2.707a1.356,1.356,0,0,1-1.244-.307,1.324,1.324,0,0,1,0-1.245,5.668,5.668,0,0,1,1.28-1.155Z" transform="translate(55.337 31.725)" fill="#fff"/><path d="M11.87,132.234c.577-.722,1.154-1.462,1.73-2.184.252.108.5.217.757.343,0,.686.252,1.769-.054,1.949a6.29,6.29,0,0,1-2.325.379Q11.924,132.45,11.87,132.234Z" transform="translate(9.512 104.671)" fill="#fff"/><path d="M76.33,52.253C77.5,51.116,78.691,50,79.863,48.86c.216.217.415.433.631.632-1.19,1.1-2.379,2.2-3.551,3.3C76.745,52.632,76.528,52.433,76.33,52.253Z" transform="translate(61.24 39.33)" fill="#fff"/><path d="M30.16,88.18c.2-1.029.324-1.624.469-2.31,1.063.343,1.821.884,1.352,1.967C31.854,88.126,30.917,88.072,30.16,88.18Z" transform="translate(24.189 69.115)" fill="#fff"/><path d="M11.8,172.888c-1.136.2-2.271.415-3.407.614l-.108-.542c.937-1.155,2.253-.487,3.407-.632C11.733,172.509,11.769,172.707,11.8,172.888Z" transform="translate(6.639 138.645)" fill="#fff"/><path d="M10.28,117.391c-.919.144-1.748.289-2.83.469C8.712,115.911,9.4,115.8,10.28,117.391Z" transform="translate(5.965 93.597)" fill="#fff"/><path d="M65.379,80.318c-.108-1.39-.847-1.769-2.2-1.263.721-1.624,1.712-.758,2.451-.632.162.036.18,1.1.252,1.678C65.7,80.174,65.541,80.246,65.379,80.318Z" transform="translate(50.687 62.846)" fill="#fff"/><path d="M75.42,56.57c.144,2.87.144,2.87-1.55,2.671C74.357,58.393,74.843,57.563,75.42,56.57Z" transform="translate(59.266 45.535)" fill="#fff"/><path d="M75.51,31.676l4.578.433c-1.875,1.173-2.974,1.065-4.542-.469Z" transform="translate(60.582 25.472)" fill="#fff"/><path d="M76.36,24.974a5.869,5.869,0,0,0,1.406.668,7.321,7.321,0,0,1,2.433.614,26.019,26.019,0,0,1-3.317.415c-.162,0-.324-1.1-.487-1.7C76.4,24.956,76.36,24.974,76.36,24.974Z" transform="translate(61.264 20.1)" fill="#fff"/><path d="M76,105.032c-.973.433-1.839.83-2.974,1.336,1.406-2.364,1.857-4.368.306-6.533A7.451,7.451,0,0,1,72.4,96.64c1.839.559,3.5,1.48,3.839,3.321C76.546,101.549,76.113,103.282,76,105.032Z" transform="translate(58.086 77.783)" fill="#fff"/></g><circle cx="6" cy="6" r="6" transform="translate(738 756)" fill="#b59124"/><circle cx="6" cy="6" r="6" transform="translate(612 949)" fill="#b59124"/></g></svg>