<svg xmlns="http://www.w3.org/2000/svg" width="14" height="20" viewBox="0 0 14 20"><g transform="translate(-467.479 -2939.907)"><path d="M474.246,2959.537a1.776,1.776,0,0,1-.816-.38.56.56,0,0,1-.189-.481c.111-1.729.207-3.457.309-5.186.071-1.209.146-2.418.217-3.627.007-.129,0-.259,0-.417-.066.025-.127.049-.189.075-1.441.61-2.877,1.235-4.326,1.827a11.71,11.71,0,0,1-1.429.427.99.99,0,0,1-.345-.042,1.026,1.026,0,0,1,.137-.322,9.406,9.406,0,0,1,.951-.92c1.314-1.025,2.646-2.027,3.972-3.038.016-.01.034-.015.078-.036a1.931,1.931,0,0,0,.806,1.781,1.792,1.792,0,0,0,1.154.33,1.9,1.9,0,0,0,1.774-2.1.865.865,0,0,1,.118.066c1.245.943,2.5,1.878,3.731,2.84a12.538,12.538,0,0,1,1.131,1.067,1.069,1.069,0,0,1,.149.337,1.27,1.27,0,0,1-.365.04,12.98,12.98,0,0,1-2.531-.861c-1.074-.449-2.138-.927-3.2-1.392-.058-.025-.117-.049-.207-.085.021.4.04.763.06,1.129q.108,1.834.216,3.666.125,2.127.243,4.252a.771.771,0,0,1-.682.973c-.1.031-.2.056-.3.082Z" transform="translate(0 0.37)" fill="#ea5938"/><path d="M475.4,2946.547a1.915,1.915,0,0,0-2.326,0c.056-.57.1-1.115.168-1.656.143-1.116.287-2.232.458-3.345a11.956,11.956,0,0,1,.331-1.362c.03-.1.138-.188.21-.281.071.094.182.178.208.283a16.756,16.756,0,0,1,.4,1.766c.207,1.495.371,2.995.552,4.494a.9.9,0,0,1,0,.1" transform="translate(0.243 0)" fill="#ea5938"/><path d="M475.481,2947.712a1.242,1.242,0,1,1-1.226-1.255,1.256,1.256,0,0,1,1.226,1.255" transform="translate(0.24 0.323)" fill="#ea5938"/></g></svg>