<svg xmlns="http://www.w3.org/2000/svg" width="167" height="60" viewBox="0 0 167 60"><g transform="translate(-19.553 -191.72)"><g transform="translate(19.553 191.72)"><path d="M282.293,207a15.252,15.252,0,1,0-15.252,15.279A15.285,15.285,0,0,0,282.293,207Zm-.728,0a14.53,14.53,0,1,1-14.525-14.561A14.529,14.529,0,0,1,281.565,207Zm-.924,0c0-4.832-2.455-9.826-7.735-11.426a10.09,10.09,0,0,0-3.085-.555c-2.444,0-2.531,1.393-3.672,1.393A1.006,1.006,0,0,1,265.1,195.4c0-.969,1.141-1.731,2.955-1.731a9.178,9.178,0,0,1,3.248.544l.044-.12a12.435,12.435,0,0,0-4.3-.729c-4.867,0-9.809,2.5-11.406,7.748a10.2,10.2,0,0,0-.554,3.09c0,2.459,1.391,2.579,1.391,3.722a1,1,0,0,1-1.01,1.022c-.967,0-1.727-1.11-1.727-2.971a11.133,11.133,0,0,1,.5-3.254l-.119-.043a14.723,14.723,0,0,0-.684,4.32c0,4.908,2.5,9.86,7.734,11.47a10.119,10.119,0,0,0,3.085.545c2.455,0,2.531-1.437,3.672-1.437a1.051,1.051,0,0,1,1.065,1.056c0,.935-1.109,1.7-2.966,1.7a10.253,10.253,0,0,1-3.248-.511l-.044.131a12.251,12.251,0,0,0,4.313.675c4.856,0,9.842-2.46,11.407-7.748a9.855,9.855,0,0,0,.543-3.047c0-2.492-1.39-2.579-1.39-3.722a.988.988,0,0,1,1.01-1.056c.978,0,1.738,1.143,1.738,3a11.142,11.142,0,0,1-.51,3.254l.13.044a13.683,13.683,0,0,0,.673-4.353Zm-5.117,4.059a4.023,4.023,0,0,1-4.052,3.9,4.439,4.439,0,0,1-4.389-4.657,5.268,5.268,0,0,1,3-4.865,1.524,1.524,0,0,1-.423-.512,40.116,40.116,0,0,1-3.889,2.46,16.568,16.568,0,0,1-.554,3.853c-.717,2.155-2.194,3.722-4.139,3.722a2.327,2.327,0,0,1-2.444-2.46,4.393,4.393,0,0,1,1.521-3,20.9,20.9,0,0,1,4.433-2.754c.043-.25.087-.5.13-.805a2.588,2.588,0,0,1-1.695.6,1.931,1.931,0,0,1-1.771-1.567,2.227,2.227,0,0,1-2.119-2.285c0-.969.38-1.818,1.021-1.818a.341.341,0,0,1,.337.381,8.065,8.065,0,0,0-.217,1.263c0,.555.261,1.273.934,1.273,0-2.2,1.608-5.038,3.509-5.038a1.288,1.288,0,0,1,1.434,1.36c0,1.991-1.988,4.19-3.6,4.733a.778.778,0,0,0,.728.643,2.79,2.79,0,0,0,1.771-1.067c.163-.882.8-2.155,1.651-2.155a.5.5,0,0,1,.5.555,3.754,3.754,0,0,1-1.184,1.98,7.622,7.622,0,0,0-.119,1.273,39.341,39.341,0,0,0,3.335-2.155,3.568,3.568,0,0,1-.087-.979c0-1.98,1.314-4.19,3.042-4.19a1.388,1.388,0,0,1,1.477,1.447c0,1.437-1.227,2.7-2.955,4.016a1.443,1.443,0,0,0,.674.805,2.32,2.32,0,0,1,1.053-.174c.511,0,1.227.131,1.227.643,0,.587-.8.718-1.434.718a3.262,3.262,0,0,1-.891-.087,3.9,3.9,0,0,0-2.705,4.016c0,1.828,1.141,3.515,2.922,3.515a2.49,2.49,0,0,0,2.488-2.58c0-1.011-.424-2.078-1.434-2.078a.942.942,0,0,0-.967.935c-.044.849.587.936.587,1.48a.544.544,0,0,1-.587.555,1.716,1.716,0,0,1-1.488-1.9,2.432,2.432,0,0,1,2.542-2.329c1.858,0,2.825,1.611,2.825,3.341Zm-3.118-10.664c0-.207-.043-.468-.3-.468-.63,0-1.64,1.36-1.64,3.091,1.26-1.1,1.944-2.035,1.944-2.622Zm-7.484-.174a.264.264,0,0,0-.293-.294c-.891,0-2.151,2.329-2.151,3.722a4.961,4.961,0,0,0,2.444-3.428Zm-.5,7.923c-1.9.925-4.313,2.579-4.313,4.4,0,.674.337,1.1.967,1.1,1.858,0,3-2.96,3.346-5.5ZM161.312,241.966a3.756,3.756,0,0,0-2.385.749.254.254,0,0,0-.057.368l.226.325c.113.155.2.17.353.056a2.89,2.89,0,0,1,1.764-.565c1.34,0,1.594.862,1.594,1.7v.566a4.348,4.348,0,0,0-1.594-.269c-1.863,0-2.7.9-2.7,2.092a2.013,2.013,0,0,0,2.258,2.049,2.5,2.5,0,0,0,2.1-.989v.594c0,.184.07.254.254.254h.522c.184,0,.254-.071.254-.254v-4.212A2.268,2.268,0,0,0,161.312,241.966Zm1.5,5.2a2.157,2.157,0,0,1-1.849.976c-1.044,0-1.326-.622-1.326-1.187,0-.707.452-1.216,1.722-1.216a4.294,4.294,0,0,1,1.453.213Zm11.981-3.265h-2.85c-.183,0-.254.071-.254.255v.452c0,.184.071.255.254.255H173.9v2.7a4.389,4.389,0,0,1-2.145.509c-2.272,0-3.147-1.569-3.147-3.8,0-2.12.889-3.873,2.977-3.873a3.616,3.616,0,0,1,2.342.834c.141.113.24.1.339-.042l.324-.41a.233.233,0,0,0-.028-.368,4.325,4.325,0,0,0-2.935-1.017c-2.921,0-4.205,2.332-4.205,4.9s1.242,4.735,4.332,4.735a6.2,6.2,0,0,0,3.076-.791.433.433,0,0,0,.212-.382v-3.7C175.043,243.974,174.972,243.9,174.788,243.9Zm7.284-4.368h-5c-.183,0-.254.071-.254.255v8.849c0,.184.071.254.254.254h5c.184,0,.254-.071.254-.254v-.452c0-.184-.07-.255-.254-.255H177.98v-3.421h3.641c.184,0,.254-.071.254-.254V243.8c0-.184-.071-.255-.254-.255H177.98V240.5h4.092c.184,0,.254-.071.254-.254v-.452C182.326,239.606,182.256,239.535,182.073,239.535Zm6.392,3.364a2.2,2.2,0,0,1,1.355.452c.2.142.254.127.367-.028l.268-.4a.235.235,0,0,0-.056-.368,2.861,2.861,0,0,0-1.919-.594c-2.06,0-3.119,1.654-3.119,3.576,0,2.036,1.045,3.491,3.02,3.491a3.087,3.087,0,0,0,1.99-.678.244.244,0,0,0,.057-.368l-.212-.325c-.1-.155-.2-.169-.339-.057a2.318,2.318,0,0,1-1.411.5c-1.327,0-1.961-1.032-1.961-2.587C186.5,244.03,187.167,242.9,188.465,242.9Zm5.764-.933c-2.173,0-3.119,1.71-3.119,3.534s.9,3.534,3.119,3.534c2.173,0,3.119-1.71,3.119-3.534S196.444,241.966,194.229,241.966Zm0,6.191c-1.411,0-1.975-1.258-1.975-2.658s.565-2.657,1.975-2.657S196.2,244.1,196.2,245.5,195.64,248.158,194.229,248.158Zm11.66-6.191a2.991,2.991,0,0,0-2.244,1.06,2.012,2.012,0,0,0-1.9-1.06,2.642,2.642,0,0,0-2.032.933v-.537c0-.184-.071-.255-.254-.255h-.522c-.184,0-.254.07-.254.255v6.276c0,.184.071.254.254.254h.593c.184,0,.254-.071.254-.254v-4.877a2.26,2.26,0,0,1,1.707-.876c1,0,1.4.791,1.4,1.71v4.043c0,.184.071.254.254.254h.592c.184,0,.254-.071.254-.254v-4.891a2.236,2.236,0,0,1,1.679-.862c1.031,0,1.425.791,1.425,1.71v4.043c0,.184.071.254.254.254h.593c.184,0,.254-.071.254-.254v-4.085C208.189,243.126,207.512,241.966,205.889,241.966Zm7.084,0a2.679,2.679,0,0,0-2.046.933v-.537c0-.184-.071-.255-.254-.255h-.522c-.184,0-.254.07-.254.255v9.1c0,.184.07.255.254.255h.593c.184,0,.254-.071.254-.255v-3.194a2.476,2.476,0,0,0,1.863.763c1.693,0,2.878-1.385,2.878-3.6C215.738,243.239,214.68,241.966,212.973,241.966Zm-.254,6.177a2.178,2.178,0,0,1-1.721-.891v-3.477a2.285,2.285,0,0,1,1.806-.919c1.072,0,1.792.848,1.792,2.6C214.6,247.253,213.791,248.144,212.719,248.144Zm6.732-6.177a3.756,3.756,0,0,0-2.385.749.254.254,0,0,0-.057.368l.226.325c.113.155.2.17.352.056a2.891,2.891,0,0,1,1.764-.565c1.34,0,1.594.862,1.594,1.7v.566a4.349,4.349,0,0,0-1.594-.269c-1.863,0-2.7.9-2.7,2.092a2.013,2.013,0,0,0,2.258,2.049,2.5,2.5,0,0,0,2.1-.989v.594c0,.184.071.254.254.254h.522c.184,0,.254-.071.254-.254v-4.212A2.268,2.268,0,0,0,219.451,241.966Zm1.5,5.2a2.157,2.157,0,0,1-1.848.976c-1.045,0-1.327-.622-1.327-1.187,0-.707.451-1.216,1.722-1.216a4.294,4.294,0,0,1,1.453.213Zm5.948-5.2a2.813,2.813,0,0,0-2.116.948v-.551c0-.184-.071-.255-.254-.255H224c-.183,0-.254.07-.254.255v6.276c0,.184.071.254.254.254h.593c.184,0,.254-.071.254-.254V243.8a2.342,2.342,0,0,1,1.806-.919c1.044,0,1.454.82,1.454,1.71v4.043c0,.184.071.254.254.254h.593c.183,0,.254-.071.254-.254v-4.085C229.209,243.126,228.5,241.966,226.894,241.966Zm8.746.141h-.564c-.2,0-.268.085-.3.226a22.235,22.235,0,0,1-1.806,5.329,23.518,23.518,0,0,1-1.778-5.315c-.028-.184-.113-.241-.3-.241h-.663c-.155,0-.212.07-.212.17a1.608,1.608,0,0,0,.042.255,25.567,25.567,0,0,0,2.328,6.205,7.766,7.766,0,0,1-2.06,2.12.268.268,0,0,0-.141.2.294.294,0,0,0,.071.17l.282.382a.228.228,0,0,0,.2.113.339.339,0,0,0,.2-.071,11.189,11.189,0,0,0,3.669-5.258,22.723,22.723,0,0,0,1.2-3.873,1.5,1.5,0,0,0,.042-.255C235.852,242.15,235.781,242.108,235.64,242.108Z" transform="translate(-115.293 -191.72)" fill="#fff"/><path d="M85.252,250.608c-5.645,0-9.529-3.964-9.529-9.327v-.052a9.306,9.306,0,0,1,9.5-9.379,9.954,9.954,0,0,1,7.493,2.862L89.76,237.4A6.7,6.7,0,0,0,85.1,235.6a5.308,5.308,0,0,0-5.115,5.574v.052a5.265,5.265,0,0,0,5.4,5.633,6.31,6.31,0,0,0,3.755-.97V243.3H85.122v-3.446h7.872v7.876A11.761,11.761,0,0,1,85.252,250.608Zm-1.634-24.269h-9.3v-3.885h7.154v-3.426H74.316v-3.48h8.846v-3.555h-13.1v17.925h13.56Zm-36.036,3.58H52.17l-6.387-17.925H40.967L34.3,229.918h4.588l1.191-4.23h6.336Zm-6.641-7.429c.938-2.768,1.648-4.124,2.332-6.358.634,2.234,1.268,3.463,2.231,6.358Zm-9.983-2.016A4.013,4.013,0,0,0,34,216.538a4.166,4.166,0,0,0-2.1-3.91,10.388,10.388,0,0,0-4.41-.635H19.553v17.925h7.629c2.585,0,4.081-.228,5.221-.939a4.883,4.883,0,0,0,2.205-4.164A4.085,4.085,0,0,0,30.959,220.473Zm-7.148-5.027h3.244c2.154,0,2.636.711,2.636,1.777,0,1.193-.811,1.8-2.585,1.8h-3.3Zm3.244,10.968H23.811v-3.961h3.4c2.357,0,2.915.762,2.915,2.006S29.362,226.414,27.055,226.414Zm68.532,3.5H100.5l-4.74-7.414a4.916,4.916,0,0,0,4.055-5.078,5.439,5.439,0,0,0-1.115-3.479c-.938-1.143-2.585-1.955-5.373-1.955H85.12v17.925h4.258v-7.465h2.231Zm-6.21-10.892v-3.58H92.74c2.154,0,2.636.711,2.636,1.777,0,1.193-.811,1.8-2.585,1.8Zm9.592,23.707h6.869V250.2H110.1V232.273h-4.258v6.7H98.97v-6.7H94.712V250.2H98.97Zm-46.036-3.758H46.109v-6.7H41.851V250.2h4.258v-7.465h6.824v20.116h4.3V211.993h-4.3Zm16.117-9.057-6.373-9.178,6.373-8.748H63.906l-6.669,8.748,6.669,9.178Zm5.265,12.54V232.272H70.058v10.363c0,3.25-1.191,4.215-3.32,4.215-1.876,0-3.219-.914-3.219-4.189V232.272H59.26v10.135c0,5.433,1.977,8.2,7.4,8.2C71.883,250.608,74.316,248.044,74.316,242.458Zm51.361,4.16h-9.3v-3.885h7.154v-3.424h-7.154v-3.482h8.846v-3.555h-13.1V250.2h13.56Zm10.45-7.028-2.56-.889c-1.774-.609-2.155-1.117-2.155-1.9,0-.813.735-1.346,1.85-1.346a5.752,5.752,0,0,1,4.664,2.412l3.194-2.717a8.913,8.913,0,0,0-7.173-3.326c-4,0-6.919,2.209-6.919,5.459,0,2.666,1.368,4.113,4.106,5.154l2.256.863c2.433.939,3.118,1.219,3.118,2.133,0,.762-.659,1.473-2.611,1.473a5.789,5.789,0,0,1-4.512-2.514l-3.295,2.869a10.213,10.213,0,0,0,7.705,3.377c4.638,0,7.2-2.463,7.2-5.713C140.993,242.23,139.422,240.732,136.127,239.59Z" transform="translate(-19.553 -205.676)" fill="#fff"/></g></g></svg>