<svg xmlns="http://www.w3.org/2000/svg" width="88" height="76" viewBox="0 0 88 76"><path d="M348.227,249.586c-5.468,4.033-11.316,6.471-18.149,6.471-14.048,0-26.2-10.128-33.028-21.856a16.2,16.2,0,0,0,5.086,2.664,27.186,27.186,0,0,0,7.442,1.144c8.049,0,11.389-3.048,11.541-7.237.076-3.65-2.658-5.708-7.746-6.014l-5.238-.3c-2.429-.152-2.96-.914-2.96-1.907a2.359,2.359,0,0,1,.943-1.786,3.66,3.66,0,0,1,1.609-.748,14.405,14.405,0,0,0,1.7.1c5.922,0,9.261-3.576,9.261-7.842a7.856,7.856,0,0,0-1.9-5.1,35.655,35.655,0,0,1,4.481.306v-3.045a17.62,17.62,0,0,1-4.481.454,12.335,12.335,0,0,1-3.418-.533,15.3,15.3,0,0,0-4.09-.684c-5.948,0-9.624,3.662-9.624,8.394a7.857,7.857,0,0,0,5.136,7.292c-2.277,1.066-3.493,2.59-3.493,4.345,0,1.976,1.6,4.033,4.709,4.336,1.972.152,2.96.229,5.77.383s3.722.229,4.783.609a2.609,2.609,0,0,1,1.673,2.281,3.634,3.634,0,0,1-2.581,3.354,18.565,18.565,0,0,1-5.621.684c-8.2,0-14.2-4.263-17.537-11.725a31.116,31.116,0,0,1-2.658-13.253,22.5,22.5,0,0,1,2.048-9.292c8.657-17.97,35.613-21.017,53.075-21.017a72.543,72.543,0,0,1,12.147.76c11.544,1.829,20.73,7.465,20.73,20.183,0,16.98-16.553,38.837-29.61,48.586M309.56,217.673c-3.72,0-5.755-2.742-5.755-6.245,0-3.123,1.918-5.25,5.108-5.25,3.641,0,5.6,2.722,5.6,6.147C314.513,215.451,312.825,217.673,309.56,217.673Zm55.522,9.369c-1.29,0-3.418-.909-6.225-3.958-3.645-4.037-7.519-8.607-7.519-8.607l6.454-6.092c3.8-3.578,4.861-3.805,5.165-3.882h-6a22.243,22.243,0,0,1-2.579,2.818l-6.91,6.474V193.383l-5.239,1.37c.686.917.91,2.44.91,5.865v21.1c0,4.261-.224,4.72-.681,5.937h5.619c-.38-.991-.609-1.677-.609-5.937v-6.1s3.114,3.731,6.987,8.376c2.428,2.892,4.4,4.188,6.755,4.188a7.921,7.921,0,0,0,4.634-1.3A2.614,2.614,0,0,1,365.082,227.042ZM333.19,214.706c-3.035-1.521-5.921-2.9-5.921-5.332,0-2.053,2.2-2.967,4.479-2.967a10.207,10.207,0,0,1,6.378,2.284v-3.428a12.932,12.932,0,0,0-6.3-1.6c-4.1,0-8.656,2.056-8.656,6.778,0,3.883,3.419,5.556,6.606,7.079,2.886,1.373,5.543,2.59,5.543,5.1s-2.658,3.046-4.786,3.046a17.991,17.991,0,0,1-7.592-2.206v3.5a19.121,19.121,0,0,0,7.442,1.524c4.253,0,9.337-1.753,9.337-6.857C339.72,218.134,336.38,216.309,333.19,214.706Z" transform="translate(-289.837 -180.057)" fill="#fff"/></svg>