<svg xmlns="http://www.w3.org/2000/svg" width="112" height="120" viewBox="0 0 112 120"><g transform="translate(-64.667 -46.636)"><g transform="translate(64.727 122.683)"><path d="M67.053,391.537H64.917V364.2h2.136Z" transform="translate(-64.917 -363.807)" fill="#fff"/><path d="M172.663,390.762a9.385,9.385,0,0,1-8.346-4.912l1.661-1.189a8.024,8.024,0,0,0,6.883,4.239c3.52,0,6.369-2.179,6.369-5.744s-3.639-4.912-5.222-5.546-3.362-1.386-4.47-1.981a7.111,7.111,0,0,1-3.955-6.338c0-3.961,3.441-6.734,8.03-6.734a8.6,8.6,0,0,1,7.121,3.565l-1.5,1.307a6.842,6.842,0,0,0-5.776-2.971c-3.164,0-5.7,1.664-5.7,4.754s2.136,4.318,4.075,5.15,4.984,2.1,5.617,2.456a7.24,7.24,0,0,1,3.956,6.338C181.406,387.316,177.964,390.762,172.663,390.762Z" transform="translate(-140.424 -362.557)" fill="#fff"/><path d="M327.913,391.537H316.046V364.2h2.137V389.6h9.731Z" transform="translate(-255.681 -363.807)" fill="#fff"/><path d="M451.654,391.287h-2.492l-3.362-8.2H432.785l-3.4,8.2h-2.255L438.8,363.874h1.187Zm-6.685-10.181-5.7-13.984-5.7,13.984Z" transform="translate(-340.063 -363.557)" fill="#fff"/></g><g transform="translate(66.517 46.636)"><path d="M263.458,150.65a2.378,2.378,0,0,1,2.083-.89l.019.5-.878.377-.877.373Zm3.454,2.677a1.808,1.808,0,0,0-.914.214,2.385,2.385,0,0,1-.225.827l-.284-.133a2.117,2.117,0,0,0,.192-.683,1.622,1.622,0,0,0-.457.336.5.5,0,0,0-.774-.3.891.891,0,0,0-.4-.605s.594.063.785-.351a.352.352,0,0,0,.59.052.812.812,0,0,0,.258.5,1.946,1.946,0,0,0-.42-.993c-1.419.554-1.416-1.008-1.416-1.008l.907-.388.892-.384s1.058,1-.1,1.643a2.253,2.253,0,0,1,.442,1.089,1.309,1.309,0,0,0-.015-.6.355.355,0,0,0,.417-.425c.409.188.818-.247.818-.247a.9.9,0,0,0,.092.724A.494.494,0,0,0,266.913,153.327Zm5.073-1.828s2.4.354.822,1.285c-1.058.986-1.084-.085-1.018-.746a4.465,4.465,0,0,0-.133,2.079l-.3.085a5.047,5.047,0,0,1,.192-2.477c-.453.388-1.445,1.085-1.3-.34-.225-1.924,1.372-.2,1.515-.037a.012.012,0,0,0,.008,0c-.03-.214-.284-2.3,1.043-1.093,1.512.912-.494,1.174-.859,1.215,0,0-.007.026-.022.066Zm6.08,1.185a.355.355,0,0,0,.594-.052c.192.414.785.351.785.351a.893.893,0,0,0-.4.605.5.5,0,0,0-.774.3,1.587,1.587,0,0,0-.461-.336,2.128,2.128,0,0,0,.2.683l-.284.133a2.4,2.4,0,0,1-.228-.827,1.786,1.786,0,0,0-.911-.214.494.494,0,0,0-.391-.731.894.894,0,0,0,.089-.724s.409.436.826.247a.352.352,0,0,0,.413.425,1.343,1.343,0,0,0-.018.6,2.253,2.253,0,0,1,.446-1.089c-1.154-.646-.1-1.643-.1-1.643l.9.384.907.388s0,1.562-1.416,1.008a1.959,1.959,0,0,0-.42.993A.8.8,0,0,0,278.065,152.684Zm1.622-1.676-.878-.373-.877-.377.018-.5a2.378,2.378,0,0,1,2.083.89Z" transform="translate(-217.525 -124.927)" fill="none"/><path d="M271.216,207.456l-4.08-4.077-2.04-2.038c-.746-.613-1.476-1.242-2.235-1.842.6.759,1.23,1.489,1.844,2.235l2.04,2.038,4.08,4.077.117.117.392-.391Z" transform="translate(-217.072 -162.702)" fill="#ad7e15"/><path d="M301.678,238.629l2.038,2.04c.737.622,1.475,1.243,2.237,1.841-.6-.761-1.22-1.5-1.843-2.236l-2.041-2.037-3.571-3.568-.391.391Z" transform="translate(-243.845 -189.407)" fill="#ad7e15"/><path d="M302.694,203.771l2.042-2.037c.622-.737,1.244-1.475,1.843-2.236-.761.6-1.5,1.219-2.237,1.841l-2.038,2.04-4.08,4.077-.117.117.391.391.117-.117Z" transform="translate(-243.845 -162.702)" fill="#ad7e15"/><path d="M269.348,238.237l-2.04,2.038c-.614.745-1.244,1.475-1.844,2.234.759-.6,1.489-1.229,2.235-1.842l2.04-2.038,3.572-3.569-.392-.391Z" transform="translate(-219.048 -189.407)" fill="#ad7e15"/><path d="M296.478,233.435l.391.391.391-.391-.391-.391Z" transform="translate(-242.607 -188.173)" fill="#ad7e15"/><path d="M264.681,150.634l.877-.375-.018-.5a2.364,2.364,0,0,0-2.083.89l.347.357Z" transform="translate(-217.524 -124.928)" fill="#c48e18"/><path d="M265.067,153.287s0,1.562,1.415,1.009a1.918,1.918,0,0,1,.421.995.8.8,0,0,1-.257-.5.353.353,0,0,1-.592-.052c-.191.413-.784.351-.784.351a.891.891,0,0,1,.4.6.494.494,0,0,1,.772.3,1.558,1.558,0,0,1,.46-.337,2.092,2.092,0,0,1-.195.681l.285.135a2.379,2.379,0,0,0,.227-.828,1.81,1.81,0,0,1,.912-.214.494.494,0,0,1,.391-.731.893.893,0,0,1-.09-.722s-.409.434-.822.245a.356.356,0,0,1-.416.428,1.3,1.3,0,0,1,.018.6,2.252,2.252,0,0,0-.444-1.09c1.153-.647.1-1.642.1-1.642l-.894.383Z" transform="translate(-218.747 -127.03)" fill="#c48e18"/><path d="M325.435,151.009l.347-.357a2.364,2.364,0,0,0-2.083-.89l-.018.5.877.375Z" transform="translate(-263.272 -124.928)" fill="#c48e18"/><path d="M316.816,155.429a1.811,1.811,0,0,1,.912.214,2.378,2.378,0,0,0,.227.828l.285-.135a2.079,2.079,0,0,1-.195-.683,1.587,1.587,0,0,1,.46.338.494.494,0,0,1,.772-.3.891.891,0,0,1,.4-.6s-.593.062-.785-.351a.355.355,0,0,1-.593.052.8.8,0,0,1-.257.5,1.949,1.949,0,0,1,.421-.995c1.42.553,1.415-1.009,1.415-1.009l-.905-.387-.9-.383s-1.055.995.1,1.642a2.25,2.25,0,0,0-.444,1.09,1.3,1.3,0,0,1,.018-.6.355.355,0,0,1-.414-.428c-.414.19-.823-.245-.823-.245a.9.9,0,0,1-.089.722A.493.493,0,0,1,316.816,155.429Z" transform="translate(-257.76 -127.03)" fill="#c48e18"/><path d="M299.07,158.31c1.58-.928-.821-1.285-.821-1.285l-.048.034c-.03.092-.087.271-.147.5C297.988,158.225,298.014,159.3,299.07,158.31Z" transform="translate(-243.788 -130.453)" fill="#c48e18"/><path d="M298.062,151.816c0,.01-.007.017-.011.026l.073.027c.365-.039,2.371-.3.86-1.215-1.327-1.21-1.072.88-1.043,1.1a.077.077,0,0,1,.038-.016A.082.082,0,0,1,298.062,151.816Z" transform="translate(-243.69 -125.331)" fill="#c48e18"/><path d="M292.961,154.044c.061-.209.11-.347.117-.366l.075.027a.075.075,0,0,1,.025-.037c-.142-.158-1.737-1.888-1.513.036C291.516,155.13,292.507,154.431,292.961,154.044Z" transform="translate(-238.935 -127.247)" fill="#c48e18"/><path d="M298.068,156.457v0l0,.036.074.027Z" transform="translate(-243.813 -130.02)" fill="#c48e18"/><path d="M298.035,156.384l-.009,0,.011.012Z" transform="translate(-243.783 -129.966)" fill="#c48e18"/><path d="M298.066,156.351h0v0l.072.061.035.013c0-.009.011-.016.011-.026a.083.083,0,0,0-.083-.083.079.079,0,0,0-.038.016l0,.016Z" transform="translate(-243.811 -129.917)" fill="#c48e18"/><path d="M297.922,156.436l.035.013,0-.036h0l-.011-.012A.077.077,0,0,0,297.922,156.436Z" transform="translate(-243.704 -129.977)" fill="#c48e18"/><path d="M298.072,156.45h0Z" transform="translate(-243.818 -130.016)" fill="#c48e18"/><path d="M296.563,156.823a.067.067,0,0,1-.107.027l0,.047s-.089.087-.22.2a5.079,5.079,0,0,0-.192,2.477l.3-.084a4.463,4.463,0,0,1,.131-2.081c.025-.251.062-.443.062-.443l.086-.061c.014-.041.023-.066.023-.068h0l-.056.006Z" transform="translate(-242.207 -130.299)" fill="#c48e18"/><path d="M298.119,157.67c.06-.233.117-.412.148-.5l-.086.061S298.143,157.42,298.119,157.67Z" transform="translate(-243.854 -130.561)" fill="#c48e18"/><path d="M298.5,156.783l.023.02.056-.006-.074-.027A.091.091,0,0,1,298.5,156.783Z" transform="translate(-244.141 -130.259)" fill="#c48e18"/><path d="M297.348,156.559a.078.078,0,0,1-.042-.066c0-.01.007-.017.011-.026l-.075-.027c-.007.019-.056.157-.117.366.131-.112.22-.2.22-.2Z" transform="translate(-243.099 -130.008)" fill="#c48e18"/><path d="M298.092,156.7a.077.077,0,0,0,.067-.044l-.03-.025-.073-.027,0,.079A.078.078,0,0,0,298.092,156.7Z" transform="translate(-243.802 -130.134)" fill="#c48e18"/><path d="M298.407,156.73l-.035-.013.03.025A.083.083,0,0,0,298.407,156.73Z" transform="translate(-244.046 -130.219)" fill="#c48e18"/><path d="M297.919,156.645l0-.079-.035-.013c0,.009-.011.016-.011.026A.078.078,0,0,0,297.919,156.645Z" transform="translate(-243.67 -130.094)" fill="#c48e18"/><path d="M425.3,174.236c.17-.085.328-.174.479-.262C425.629,174.063,425.467,174.148,425.3,174.236Z" transform="translate(-340.462 -143.322)" fill="none"/><path d="M447.325,207.825c-.037.2-.085.406-.14.62A6.188,6.188,0,0,0,447.325,207.825Z" transform="translate(-357.088 -169.024)" fill="none"/><path d="M155.734,237.564c-.011-.07-.03-.151-.052-.244C155.7,237.412,155.719,237.5,155.734,237.564Z" transform="translate(-135.655 -191.42)" fill="none"/><path d="M447.967,203.373a3.312,3.312,0,0,0,.007-1.008A3.43,3.43,0,0,1,447.967,203.373Z" transform="translate(-357.682 -164.879)" fill="none"/><path d="M411.244,83.051a.445.445,0,0,0-.276-.247,4.347,4.347,0,0,0-.615-.188q-.166-.039-.332-.089a2.287,2.287,0,0,0,.616,1.215,1.16,1.16,0,0,0,.262.185.992.992,0,0,0,.144.063l.044.015.14.048.258.085c-.033-.122-.062-.247-.092-.373C411.336,83.528,411.284,83.292,411.244,83.051Z" transform="translate(-328.857 -73.888)" fill="none"/><path d="M420.887,95.061a.852.852,0,0,1-.044-.225,1,1,0,0,1-.008-.181,1.6,1.6,0,0,1,.041-.329c.011-.048.029-.092.044-.137s.029-.1.048-.151c-.129-.033-.254-.074-.38-.114,0,.085.011.174.018.269.026.362.048.746.077.886l.21,0Z" transform="translate(-336.885 -82.541)" fill="none"/><path d="M372.766,153.433c.022-.247.052-.491.085-.724a7.526,7.526,0,0,1,.253-1.346l-1.9-.285-.011,2.5,1.513.685C372.718,153.979,372.74,153.7,372.766,153.433Z" transform="translate(-299.363 -125.937)" fill="#c48e18"/><path d="M217.609,151.428l1.309-.672.04-.033v-2.029l-1.812.332a9.123,9.123,0,0,1,.459,2.4Z" transform="translate(-182.345 -124.127)" fill="#ad7e15"/><path d="M228.687,141.254H260.52v3.471l.885.384v-4.741H227.8v3.659l.885-.454Z" transform="translate(-190.439 -117.805)" fill="#ad7e15"/><path d="M260.52,189.327a10.263,10.263,0,0,1-2.021,4.955c-1.825,2.714-5.711,6.8-13.855,10.921-8.189-4.117-12.089-8.208-13.925-10.921a10.215,10.215,0,0,1-2.031-4.958V173.462h2.677l-.122-.443-.122-.443h-2.433v-.55l-.513.513-.041.037-.015.015-.317.306v16.43c0,.343.188,8.562,16.646,16.77l.2.1.2-.1c16.37-8.208,16.562-16.426,16.562-16.77V174.356l-.885-.856Z" transform="translate(-190.44 -141.843)" fill="#ad7e15"/><path d="M259.6,175.2h17.837l.225-.443.229-.443h-18.74l.225.443Z" transform="translate(-214.255 -143.578)" fill="#ad7e15"/><path d="M353.857,174.769l-.015-.015-.446-.443h-1.847l-.122.443-.122.443H354.3Z" transform="translate(-284.256 -143.578)" fill="#ad7e15"/><path d="M198.53,47.191l-8.5,11.853,1.44.674Z" transform="translate(-161.743 -47.058)" fill="#ad7e15"/><path d="M138.392,109.725l1.286-1.2-.565,1.663a9.949,9.949,0,0,1-2.043,3.436,1.59,1.59,0,0,0,1.093-.41l.878-.92-.117,1.266a4.436,4.436,0,0,1-1.732,2.928,2.756,2.756,0,0,0,1.448-.05,1.689,1.689,0,0,0,.972-.959l.485-1.075.342,1.13a2.947,2.947,0,0,1-1.445,3.123c-.427.314-.145,1.475.278,2.488l2.1-4.222.119,1.254c2.184-3.026.235-5.252.235-5.252,1.241-.068,1.42.515,1.445.666-.256-3.247-2.749-3.535-2.749-3.535a4.356,4.356,0,0,0,1.195-1.361c.483-1.2-.186-1.658-.186-1.658-1.07-1.026-.048-2.432.516-3.058a5.784,5.784,0,0,0-3.284,2.792,13.554,13.554,0,0,0-.972,2.06,4.347,4.347,0,0,1-1.008,1.7A2.3,2.3,0,0,0,138.392,109.725Z" transform="translate(-121.223 -90.179)" fill="#c48e18"/><path d="M215.149,160.7l.063-.011-.063.011Z" transform="translate(-180.827 -133.236)" fill="#c48e18"/><path d="M81.272,177.059a2.43,2.43,0,0,1,1.563-.639c-.129,1.566-.258,2.459-.258,2.459a11.954,11.954,0,0,0,1.213-.1c-.125.735.129,1.983,1.15,2.23s.667-.665.667-.665a11.758,11.758,0,0,0,1.419,1.13,2.044,2.044,0,0,1-.158-.362,4.144,4.144,0,0,1,.428-2.935,3.386,3.386,0,0,1-2.426-.28l-.505-.332.468-.384a3.593,3.593,0,0,0,1.184-2.655,2.1,2.1,0,0,1-1.043.214l-.542-.022.129-.528c.026-.111.568-2.422-1.006-3.7a2.09,2.09,0,0,1-.468,2.09l-.387.306-.262-.417c-.07-.107-1.475-2.3-3.215-2.016a3.2,3.2,0,0,1,1.607,2.027l.048.38C82.5,173.641,81.272,177.059,81.272,177.059Z" transform="translate(-77.574 -140.633)" fill="#c48e18"/><path d="M177.24,233.306h-5.835l-1.007-1.851,1.163-4.188-.03-.023c-1.029.357-3.538,1.83-2.481,7.515l.033.055h7.26l.62,2.261h2.856l-.591-1.777Z" transform="translate(-145.617 -183.768)" fill="#c48e18"/><path d="M140.958,113.167s1.567,2.418,7.064-2.359c.284-.247.579-.513.885-.8l.107-.1.7-.284s2.5,1.735,3.8,1.119l-.324-.772-2.525-1.44-.394-.225-1.372.705-.885.454-.3.155-1.512.779-1.124.2-2.717.473-.148-.842h-.007s0,0,.007,0l0-.03.07-.011c.793-.469.7-2.016.7-2.016a9.334,9.334,0,0,0-3.149-5.494,7.629,7.629,0,0,0-2.622-1.277l-.409.07-1.873-1.942.634-.613c-2.137-3.7,1.836-3.456,1.836-3.456a.683.683,0,0,0-.085.879c.35.635,2.2.358,2.2.358a7.366,7.366,0,0,1-.516.6,1.6,1.6,0,0,1-1.633.351c-.092,1.026.28,1.281.841,1.451.387.118,1.862.628,2.4-.229.745-1.185,1.57-.683,1.57-.683s1.541,1.3,2.017.857c.741-.687-.114-1.351-.583-1.636L135.25,93.54v1.341l-2.721-1.341v1.927c0,.055,0,.114,0,.177,0,1.152.2,3.762,1.143,4.53,1.98,1.6,2.293,2.466,2.334,2.625l.214.79-.778-.255a9.151,9.151,0,0,0-1.53-.336c1.364,1.089,3.58,3.131,3.525,4.907l-.037,1.115-.737-.834a2.45,2.45,0,0,0-1.1-.665c.741,1.565,1.272,4.069-.608,5.59l-.564.461-.148-.716a15.869,15.869,0,0,0-.785-2.592,18.421,18.421,0,0,0-1.084,4.309l-.114,1.595-.723-1.425a21.493,21.493,0,0,1-1.176-2.85l-1.644,3.3-.406-.753c-.048-.089-.122-.229-.21-.414-1.29,1.362-4.568,5.066-5.28,8.16h0c-.542,4.722,4.131,5.97,4.131,5.97l-.586,2.285-.394,1.5-.21.8a3.363,3.363,0,0,0,.881,2.411c1.49,1.6,5.42,5.719,5.954,6.9a1.7,1.7,0,0,0,1.777.816l-2.22-3.031-3.716-4.131-.052-2.271,3.573-4.154-.711-4.109-.011.007-.055-.4-.055-.317.007,0-.343-2.311a1.812,1.812,0,0,0-.8-.993c-.177-.1-.369-.207-.564-.306-.074-.041-.144-.078-.218-.111-.276-.14-.542-.262-.741-.351-.066-.03-.122-.056-.173-.077-.085-.041-.147-.067-.173-.078a9.307,9.307,0,0,0,.988.214c.092.015.184.03.276.041s.207.029.306.037.184.019.277.022a8.777,8.777,0,0,0,4.07-.628,22.554,22.554,0,0,0,3.971-2.248c.538-.584.181-.908.026-1.012l-.044,0v-.029h0l-.018-.414-.015-.443.04,0A5.353,5.353,0,0,0,140.958,113.167ZM130.17,124.129c.133,1.037.265,2.027.376,2.813.007.074.018.144.029.214s.019.14.03.207.019.133.026.2c.074.5.125.864.148,1.008a.158.158,0,0,0,0,.018v.015c0-.007,0-.011,0-.019v0c-.011-.041-.022-.1-.041-.185s-.033-.151-.052-.244c-.022-.114-.051-.244-.085-.388-.011-.048-.022-.1-.037-.155l-.011-.055c-.015-.052-.026-.1-.04-.162a.394.394,0,0,0-.015-.063c-.011-.055-.026-.111-.041-.166-.026-.107-.051-.218-.081-.332-.066-.258-.144-.539-.225-.823-.136-.484-.295-.99-.472-1.484-.026-.074-.052-.148-.077-.218a12.6,12.6,0,0,0-.634-1.477,2.664,2.664,0,0,0-.133-.247,4.56,4.56,0,0,0-.572-.838,2.1,2.1,0,0,0-.151-.162S129.867,121.744,130.17,124.129Zm8.259-11.863s2.924-3.179,0-9.319c0,0,4.395,3.866,2.094,8.451C140.523,111.4,139.575,112.687,138.428,112.267Z" transform="translate(-110.659 -82.249)" fill="#c48e18"/><path d="M153.248,106.809s.669.461.186,1.658a4.355,4.355,0,0,1-1.195,1.36s2.493.288,2.749,3.535a.313.313,0,0,1,0,.035c0-.013,0-.023,0-.035-.025-.151-.2-.734-1.445-.666,0,0,1.949,2.226-.235,5.252l.028.291a9.834,9.834,0,0,0,.762,2.474,27.143,27.143,0,0,1,1.266-3.99l.313-.761.462.681a10.629,10.629,0,0,1,1.156,2.917c1.213-1.8-.462-4.527-.482-4.557l-.343-.548.634-.122a2.492,2.492,0,0,1,1.535.2,13.878,13.878,0,0,0-3.855-3.853l-.735-.5.845-.282a4.419,4.419,0,0,1,2.038,0c-.154-.17-.344-.369-.581-.591s-.519-.472-.857-.745c-1.236-1-1.44-3.7-1.468-4.884-.079.019-.168.045-.262.074C153.2,104.377,152.178,105.783,153.248,106.809Z" transform="translate(-133.039 -89.946)" fill="#ad7e15"/><path d="M163.675,143.913c0,.012,0,.023,0,.035A.326.326,0,0,0,163.675,143.913Z" transform="translate(-141.727 -120.497)" fill="#ad7e15"/><path d="M182.683,105.079c-.476.443-2.017-.857-2.017-.857s-.826-.5-1.57.683c-.538.856-2.013.347-2.4.229-.56-.17-.933-.425-.841-1.451a1.6,1.6,0,0,0,1.633-.351,7.371,7.371,0,0,0,.516-.6s-1.847.277-2.2-.358a.683.683,0,0,1,.085-.879s-3.956-.155-1.811,3.426l.015.07-.041-.041,1.549,1.6,3.37-.583,2.212.694a1.821,1.821,0,0,0,1.681-.159,3.286,3.286,0,0,0,.892-2.289l-1.659-.775C182.569,103.728,183.424,104.392,182.683,105.079Z" transform="translate(-149.147 -88.291)" fill="#ad7e15"/><path d="M174.02,104.917c-2.146-3.581,1.81-3.426,1.81-3.426s-3.974-.246-1.836,3.456l.041.041Z" transform="translate(-149.085 -88.284)" fill="#ad7e15"/><path d="M139.685,265.725c-.535-1.178-4.465-5.295-5.955-6.9a3.364,3.364,0,0,1-.881-2.411l-.741,2.839,5.468,5.047,2.043,2.71v2.319h3.241l-.9-2.119-.494-.672A1.7,1.7,0,0,1,139.685,265.725Z" transform="translate(-117.747 -205.919)" fill="#ad7e15"/><path d="M84.525,188.244a4.672,4.672,0,0,0-.14,1.211l.011.454H82.611l-.1-.041a1.7,1.7,0,0,1-.7-.716,11.763,11.763,0,0,1-1.419-1.13s.35.912-.667.665-1.276-1.5-1.15-2.23a11.952,11.952,0,0,1-1.213.1s.129-.893.258-2.459a2.43,2.43,0,0,0-1.563.639s1.224-3.419-.395-4.194l.015.111-2.072.015a4.172,4.172,0,0,1,1.707,1.739.9.9,0,0,1-.088.731l-.169.284-.321-.085a5.345,5.345,0,0,0-2.374-.118,3.541,3.541,0,0,1,1.674,1.484,1.027,1.027,0,0,1-.037.853l-.022.044c-.033.052-.288.543.734,1.229l.719.476-.807.3a5.1,5.1,0,0,1-1.644.31c.3.484,1.143,1.241,3.491,1.735l1.508.318-1.445.532a7.421,7.421,0,0,0-.708.318,9.9,9.9,0,0,0,3.322-.114,2.52,2.52,0,0,1,1.545-.019c.077.019.162.041.262.066a9.979,9.979,0,0,0,1.718.221h1.692L84.451,193c.255,2.158,3.2,3.36,3.233,3.367l.387.137.586-2.285S83.982,192.967,84.525,188.244Z" transform="translate(-72.365 -148.306)" fill="#ad7e15"/><path d="M126.946,218.518s-4.673-1.248-4.131-5.97h0C122.271,217.271,126.946,218.518,126.946,218.518Z" transform="translate(-110.653 -172.61)" fill="#ad7e15"/><path d="M154.91,190.216a22.554,22.554,0,0,1-3.971,2.249,8.778,8.778,0,0,1-4.07.628c-.092,0-.184-.015-.277-.022a3.073,3.073,0,0,1-.306-.037c-.092-.011-.184-.026-.276-.041a9.323,9.323,0,0,1-.988-.214c.026.011.088.037.173.078.052.022.107.048.173.078.2.089.465.21.741.351.074.033.144.07.218.111.2.1.387.2.564.306a1.812,1.812,0,0,1,.8.993l.343,2.311,10.272-7.923-3.366.122C155.091,189.307,155.449,189.632,154.91,190.216Z" transform="translate(-127.557 -154.793)" fill="#ad7e15"/><path d="M157.8,223.723l-.066-.391.055.4Z" transform="translate(-137.216 -180.799)" fill="#ad7e15"/><path d="M203.637,162.858v0s0,0-.007,0Z" transform="translate(-172.077 -134.878)" fill="#ad7e15"/><path d="M188.616,132.206s.092,1.547-.7,2.016l2.7-.469.048-.17a8.061,8.061,0,0,0-.45-2.234c-.081-.233-.17-.454-.266-.672a12.309,12.309,0,0,0-5.608-5.479h0l-1.486.236a7.629,7.629,0,0,1,2.621,1.277A9.334,9.334,0,0,1,188.616,132.206Z" transform="translate(-156.289 -106.287)" fill="#ad7e15"/><path d="M215.211,160.19c0-.052-.011-.1-.015-.159l-.048.17Z" transform="translate(-180.828 -132.735)" fill="#ad7e15"/><path d="M166,220.4l-2.773-2.171-1.712,1.289.815,4.7-.6.77,1.785,2.924C162.464,222.227,164.972,220.754,166,220.4Z" transform="translate(-140.087 -176.922)" fill="#ad7e15"/><path d="M197.019,161.927l.9-.893,2.021,1.1.431,1.591.122.443.122.443h2.515l-.229-.443-.225-.443-.557-1.089-.483-1.148c-1.305.617-3.8-1.119-3.8-1.119l-.7.284-.107.1c-.306.288-.6.554-.885.8-5.5,4.778-7.064,2.359-7.064,2.359a5.353,5.353,0,0,1-2.957,2.607l6.434-.236,3.34-3.227.247-.247Z" transform="translate(-158.771 -132.992)" fill="#ad7e15"/><path d="M189.987,141.073c2.3-4.586-2.094-8.451-2.094-8.451,2.924,6.14,0,9.319,0,9.319C189.04,142.362,189.987,141.073,189.987,141.073Z" transform="translate(-160.123 -111.924)" fill="#ad7e15"/><path d="M145.127,210.181a4.553,4.553,0,0,1,.572.838,2.663,2.663,0,0,1,.133.247,12.592,12.592,0,0,1,.634,1.477c.026.07.052.144.077.218.177.495.335,1,.472,1.484.081.284.159.565.225.823.03.115.055.225.081.332.015.055.03.111.041.166a.4.4,0,0,1,.015.063c.015.059.026.111.04.163l.011.055c.015.055.026.107.037.155.033.144.062.273.085.388.022.092.041.174.052.244s.03.144.041.185v-.011c-.022-.144-.074-.506-.148-1.008-.007-.063-.015-.129-.026-.2s-.019-.137-.03-.207-.022-.14-.029-.214c-.111-.786-.243-1.776-.376-2.813-.3-2.385-2.057-2.551-2.057-2.551A2.068,2.068,0,0,1,145.127,210.181Z" transform="translate(-127.522 -170.69)" fill="#ad7e15"/><path d="M156.07,239.133v-.015a0,0,0,0,1,0,0C156.066,239.122,156.07,239.126,156.07,239.133Z" transform="translate(-135.947 -192.782)" fill="#ad7e15"/><path d="M156.066,239.069a0,0,0,0,0,0,0,.163.163,0,0,1,0-.018v.015Z" transform="translate(-135.947 -192.736)" fill="#ad7e15"/><path d="M392.488,241.406l-.922,2.653h-5.335l-1.989,1.991-.591,1.777h2.856l.62-2.261h6.633A6.809,6.809,0,0,0,392.488,241.406Z" transform="translate(-308.826 -194.522)" fill="#c48e18"/><path d="M480.676,211.972l1.113-.879c-1.253-.956-3.458-.221-3.48-.214l-.111.04h.022C479.684,211.924,480.281,212.031,480.676,211.972Z" transform="translate(-380.647 -171.134)" fill="#c48e18"/><path d="M471.5,231.737l-.693.831A5.7,5.7,0,0,0,471.5,231.737Z" transform="translate(-375.031 -187.18)" fill="#c48e18"/><path d="M401.783,127.962l-.1.011-.071.053-.019.015Z" transform="translate(-322.458 -108.386)" fill="#c48e18"/><path d="M369.387,92.729c4.52-.842,5.217-6.467,5.39-8.18a18.714,18.714,0,0,0-3.82-5.355,9.6,9.6,0,0,0-5.7-1.625c-.1,0-.2,0-.3.007-.262.011-.512.03-.748.052-.055.007-.107.011-.159.019-.158.018-.31.037-.453.059l-.14.022c-.439.074-.8.155-1.058.221l-.085.022c-.155.041-.265.074-.321.092.428-.17.8-.34,1.139-.513.17-.089.332-.174.479-.262s.291-.174.42-.262.247-.166.357-.251c0,0,.007,0,.007-.007.111-.081.21-.166.3-.247a2.746,2.746,0,0,0,1.1-1.824l-.019-.059c-.553-1.85-.025-4.05-.052-5.719a31.774,31.774,0,0,0-.806-7.2c-.1-.284-.271-1.168-.271-1.168V57.926l-1.5,1.227-.029-.278,0,0h0s0-.019,0-.026a.175.175,0,0,1,0-.063.751.751,0,0,1,.022-.151,1.67,1.67,0,0,1,.144-.329,2.629,2.629,0,0,1,.535-.628,5.416,5.416,0,0,1,.7-.531c.254-.151.535-.3.819-.451.063-.029.125-.066.188-.1a9.062,9.062,0,0,0,3.031-2.3,6.867,6.867,0,0,0,1.276-2.655,5.923,5.923,0,0,0,.645-.118,2.63,2.63,0,0,0,.782-.343,2.535,2.535,0,0,0,.922-1.355,7.144,7.144,0,0,0,.258-1.536c.015-.255.015-.509.026-.764l-.015-.764-.07.757c-.037.251-.067.5-.111.753a6.806,6.806,0,0,1-.405,1.432,2.1,2.1,0,0,1-.87,1.045,2.445,2.445,0,0,1-1.032.229c.022-.148.04-.292.055-.435.022-.288.03-.572.03-.853a3.085,3.085,0,0,0,.3-.325,2.607,2.607,0,0,0,.273-.4,1.632,1.632,0,0,0,.236-.9,1.518,1.518,0,0,1-.428.764,2.953,2.953,0,0,1-.328.281.827.827,0,0,0-.074.048,10.664,10.664,0,0,0-.472-2.514c.019.613.026,1.222.015,1.828a4.489,4.489,0,0,1-1.272-.443,1.278,1.278,0,0,1-.5-.521c-.118-.221-.2-.473-.343-.69.107.236.148.487.232.739a1.467,1.467,0,0,0,.468.661,4.984,4.984,0,0,0,1.394.727c-.011.162-.015.329-.03.491-.026.347-.062.69-.118,1.034-.026.177-.063.355-.1.528h-.007v.022a6.236,6.236,0,0,1-1.353,2.769,6.879,6.879,0,0,1-1.239,1.093,3.129,3.129,0,0,0,.066-.325,4.7,4.7,0,0,0,.015-1.137,11.8,11.8,0,0,0-.4-2.141,11.922,11.922,0,0,1,.048,2.145,3.965,3.965,0,0,1-.188,1c-.055.155-.125.3-.2.48a2.121,2.121,0,0,0-.14.484q-.475.266-.973.51c-.287.148-.582.292-.885.473a5.906,5.906,0,0,0-.5.362,5.237,5.237,0,0,1-.454-1.388,11.669,11.669,0,0,1-.21-2.071v0h-.007v0a12.144,12.144,0,0,0-.155,2.112,6.353,6.353,0,0,0,.107,1.082,4.036,4.036,0,0,0,.2.72,3.685,3.685,0,0,0-.247.284c-.3-.085-.616-.181-.929-.277-.147-.044-.291-.089-.435-.137l-.052-.019-.446-.148-.258-.085-.14-.048-.044-.015a.985.985,0,0,1-.144-.063,1.16,1.16,0,0,1-.262-.185,2.287,2.287,0,0,1-.616-1.215c0-.022-.015-.048-.018-.07-.033-.151-.056-.306-.078-.465a8.1,8.1,0,0,1-.062-1.126,4.92,4.92,0,0,0-.2,1.063c-.011.159-.018.314-.015.473,0,.033,0,.066,0,.1a2.82,2.82,0,0,0,.457,1.517c.033.048.066.1.1.14a1.872,1.872,0,0,0,.328.281l.044.033a1.521,1.521,0,0,0,.214.118l.192.085c.251.111.5.222.756.314.066.026.136.048.2.074.2.074.409.14.62.207.125.04.251.081.38.114-.019.048-.03.1-.048.151a1.4,1.4,0,0,0-.044.137,1.6,1.6,0,0,0-.041.329,1.008,1.008,0,0,0,.007.181.862.862,0,0,0,.044.225l.007.015-.21,0-.763.007-.262,0h-.008l-.14,0c-.228,0-.242-.155-.245-.381v-.148l-.011-.731-7.036,5.379c-.406.879-1.014,2.551.262,2.488,1.253-.063.232-1.314.232-1.314a2.726,2.726,0,0,1,2.43.491c.763.668,2.279.14,2.647-.015,1.464-.624,1.906-2.267.631-2.215-.328.015-.741.45-1.32.037-.162-.114-.623-.539-.623-.539s2.039.384,2.592-.89c.269-.616,1.15.506,1.15.506,1.217,2.326.067,3.268.067,3.268l-.022,0-.564.679-.535.639-1.858.266-.018.007c-.221.174-1.091.845-1.961,1.477-1.239.9-2.076,1.831-2.846,4.781a2.467,2.467,0,0,0-.011,1.2,1.836,1.836,0,0,0,.571.934,2.214,2.214,0,0,0,.383.277l-.033.081-.1.879-2.739-.3-2.7-1.17-.885-.384-2.028-.879-2.647,1.506-.24.8.03-.048c1.113.572,3.311-.953,3.311-.953l.608.244c.336.321.66.613.966.875s.6.506.885.72c3.927,3,5.084,1.211,5.084,1.211a4.456,4.456,0,0,0,2.382,2.178l.2.007-.03.886c-.387.273-1.459.884,3.787,2.634,3.687,1.229,6.407.224,6.492-.788a11.268,11.268,0,0,1-.557,3.046l-.494,1.381-2.164,6.38,3.433,3.991,2,2.529-3.823,4.257-1.364,2.887a1.214,1.214,0,0,0,1.545-.587c.535-1.181.582-2.444,4.955-6.28.586-.517-.369-3.6-.7-4.6l-.6-1.037A1.749,1.749,0,0,1,369.387,92.729ZM355.7,74.537a3.45,3.45,0,0,1-.288-2.411c.011-.052.026-.1.041-.155a3.966,3.966,0,0,1,.169-.487c.019-.048.041-.1.063-.144.033-.074.07-.148.107-.221a5.786,5.786,0,0,1,.925-1.285.566.566,0,0,1,.048-.048l.048-.048a.143.143,0,0,1,.033-.033.608.608,0,0,1,.063-.059,8.918,8.918,0,0,0-.42,1.052c-.03.085-.056.174-.077.255s-.044.155-.063.229c-.044.177-.081.347-.107.51-.015.085-.026.166-.037.247-.015.1-.022.2-.03.3s-.011.192-.015.28c0,.162,0,.314.011.462.007.107.018.214.033.314a4.207,4.207,0,0,0,.118.558,2.19,2.19,0,0,0,.077.247,3.184,3.184,0,0,0,.207.48c.022.044.044.089.067.126.044.078.088.14.122.192a1.548,1.548,0,0,0,.118.151C356.254,75.283,355.7,74.537,355.7,74.537Zm3.112-5.826c-.085.174-.162.351-.233.528-.066.162-.125.329-.177.495-.03.089-.059.177-.081.266s-.044.144-.063.214-.044.174-.066.258c-.059.259-.111.51-.151.753a11.081,11.081,0,0,0-.1,2.876,7.316,7.316,0,0,1-.35-3.751,4.773,4.773,0,0,1,.133-.624,2.511,2.511,0,0,1,.092-.3.152.152,0,0,0,.011-.026c.041-.111.085-.214.133-.314.022-.048.048-.1.073-.144a2.537,2.537,0,0,1,.155-.262q.083-.127.166-.233a1.242,1.242,0,0,1,.085-.107,1.113,1.113,0,0,1,.085-.1,1.081,1.081,0,0,1,.085-.092.907.907,0,0,1,.085-.085c.03-.03.059-.055.085-.078a.635.635,0,0,1,.081-.07,2.747,2.747,0,0,1,.553-.365l.077-.037a.452.452,0,0,1,.052-.022.028.028,0,0,1,.015,0A7.062,7.062,0,0,0,358.816,68.711Zm9.77,16.419c-.011.1-.03.2-.048.306a6.188,6.188,0,0,1-.14.62.412.412,0,0,1-.015.052c-.059.214-.125.439-.2.665-.041.118-.081.236-.122.358-.022.059-.044.118-.066.181s-.044.118-.066.181-.048.118-.07.181c-.041.1-.081.2-.122.306-.074.177-.147.358-.225.539-.037.085-.074.166-.111.251-.018.037-.033.07-.048.107-.055.122-.111.24-.162.358-.085.177-.166.351-.247.524-.029.059-.059.118-.085.174-.044.089-.085.174-.129.259-.03.055-.055.114-.085.17-.207.414-.409.8-.6,1.156-.044.081-.085.159-.126.233-.059.107-.114.207-.166.3-.041.074-.081.144-.118.21-.177.317-.328.576-.435.764-.015.022-.026.045-.04.066s-.026.048-.037.067l-.055.092c-.026.041-.04.07-.051.085s-.008.011-.008.015a.323.323,0,0,1,.015-.044.061.061,0,0,1,.011-.03c.007-.029.022-.066.037-.111.044-.118.1-.3.181-.509.018-.052.041-.107.059-.166.133-.369.3-.831.475-1.333.048-.133.1-.269.144-.406.207-.572.424-1.178.631-1.743.059-.159.114-.318.173-.469.085-.236.166-.458.243-.661.037-.1.074-.2.107-.288s.066-.17.1-.247a16.778,16.778,0,0,0,.822-4.1.894.894,0,0,1,.284.207,1.123,1.123,0,0,1,.2.3,1.41,1.41,0,0,1,.111.373A3.305,3.305,0,0,1,368.587,85.13Z" transform="translate(-278.302 -46.636)" fill="#c48e18"/><path d="M456.163,244.269l-.513.22Z" transform="translate(-363.519 -196.696)" fill="#c48e18"/><path d="M423.264,165.03c-.092.081-.192.166-.3.247,0,0,0,0-.008.007-.111.085-.229.17-.357.251s-.269.177-.42.262-.31.177-.479.262c-.336.174-.712.343-1.139.513.055-.019.166-.052.321-.092l.085-.022c.258-.066.619-.148,1.058-.221l.14-.022c.144-.022.295-.041.453-.059.052-.007.1-.011.159-.019.236-.022.487-.041.748-.052.1,0,.2-.007.3-.007a9.6,9.6,0,0,1,5.7,1.625,51.735,51.735,0,0,0-5.01-4.327l-.14-.17A2.746,2.746,0,0,1,423.264,165.03Z" transform="translate(-336.862 -135.146)" fill="#ad7e15"/><path d="M459.928,207.358l-.759-.266.033-.029c-.395.059-.992-.048-2.456-1.052h-.022l-.2.066-.015.007-.277.092-.117-.676a6.285,6.285,0,0,0-.469-1.364c-.173,1.713-.87,7.338-5.39,8.18a1.749,1.749,0,0,0,.026,2.138l.78-.337.241-.1.513-.22a13.2,13.2,0,0,0,3.13-2.186l.693-.831a3.285,3.285,0,0,0,.527-1.669v-.022l.085-2.031h.2l.218,0h.041a2.191,2.191,0,0,1,2.087,1.54l.011.055c.114.7.94.923,1.493,1a.915.915,0,0,1,.114-.3,2.352,2.352,0,0,1,1.563-.834A6.814,6.814,0,0,0,459.928,207.358Z" transform="translate(-359.173 -166.223)" fill="#ad7e15"/><path d="M451.4,245.619l1.021-.437-.241.1Z" transform="translate(-360.293 -197.389)" fill="#ad7e15"/><path d="M418.408,226.176h.564l.7-2-1.539-1.787,2.051-6.04-1.095-.486-2.994,2.38,1.326,2.934-.289.833A6.808,6.808,0,0,1,418.408,226.176Z" transform="translate(-333.475 -175.131)" fill="#ad7e15"/><path d="M401.24,191.227c-.085,1.012-2.294,2.394-5.981,1.165-5.246-1.75-5.831-2.768-5.444-3.041l1.147.03-2.658-.07a9.707,9.707,0,0,0,1.067,1.438l10.819,4.906.494-1.381A11.271,11.271,0,0,0,401.24,191.227Z" transform="translate(-312.36 -154.967)" fill="#ad7e15"/><path d="M399.731,192.518c3.687,1.229,5.9-.153,5.981-1.165-.085,1.012-2.805,2.017-6.492.788-5.246-1.75-4.174-2.361-3.787-2.634l-1.147-.03C393.9,189.75,394.484,190.768,399.731,192.518Z" transform="translate(-316.832 -155.093)" fill="#ad7e15"/><path d="M383.086,138.472a1.837,1.837,0,0,1-.571-.934,2.47,2.47,0,0,1,.011-1.2c.77-2.95,1.607-3.88,2.846-4.781.87-.631,1.74-1.3,1.961-1.477,0,0-1.8.713-2.381,1a4.683,4.683,0,0,0-.82.491,5.739,5.739,0,0,0-1.923,2.293,5.858,5.858,0,0,0-.3.668,10.469,10.469,0,0,0-.642,2.544c-.033.233-.055.476-.077.727s-.033.506-.037.771l2.282.255.033-.081A2.222,2.222,0,0,1,383.086,138.472Z" transform="translate(-306.929 -109.991)" fill="#ad7e15"/><path d="M394.126,147.279c-.022-.037-.044-.081-.067-.126a3.166,3.166,0,0,1-.206-.48,2.216,2.216,0,0,1-.078-.247,4.213,4.213,0,0,1-.118-.558c-.015-.1-.026-.207-.033-.314-.011-.148-.015-.3-.011-.462,0-.089.008-.184.015-.28s.015-.2.03-.3c.011-.081.022-.163.037-.248.026-.162.063-.332.107-.51.018-.074.04-.151.063-.229s.048-.17.077-.255a8.894,8.894,0,0,1,.42-1.052.58.58,0,0,0-.063.059.143.143,0,0,0-.033.033l-.048.048a.57.57,0,0,0-.048.048,5.784,5.784,0,0,0-.925,1.285c-.037.074-.074.148-.107.221-.022.048-.044.1-.063.144a3.969,3.969,0,0,0-.17.487c-.015.052-.03.1-.041.155a3.45,3.45,0,0,0,.288,2.411s.549.746,1.213.506a1.554,1.554,0,0,1-.118-.151A2.191,2.191,0,0,1,394.126,147.279Z" transform="translate(-315.75 -119.214)" fill="#ad7e15"/><path d="M398.425,163.222a2.2,2.2,0,0,0,.122.192C398.514,163.362,398.469,163.3,398.425,163.222Z" transform="translate(-320.049 -135.158)" fill="#ad7e15"/><path d="M389.44,107.7s-.881-1.122-1.15-.506c-.553,1.274-2.592.89-2.592.89s.461.425.623.539c.579.414.992-.022,1.32-.037,1.276-.052.833,1.591-.63,2.215-.369.155-1.884.683-2.647.015a2.726,2.726,0,0,0-2.43-.491s1.021,1.252-.232,1.314c-1.276.063-.667-1.61-.262-2.489l-1.364,1.075a3.011,3.011,0,0,0,.568,2.023,2.825,2.825,0,0,0,2.1.934l.582-.244.011,0,1.906-.8,0,0h0l.02-.015.07-.053.1-.011.863-.362,1.633-.233.878-1.056.682.569.022,0S390.657,110.023,389.44,107.7Z" transform="translate(-306.106 -92.474)" fill="#ad7e15"/><path d="M401.593,128.242l.019-.015-.02.015Z" transform="translate(-322.454 -108.587)" fill="#ad7e15"/><path d="M432.023,255.906c-4.373,3.836-4.42,5.1-4.955,6.28a1.214,1.214,0,0,1-1.545.587l-.417.886-.929,1.794h3.182l-.022-2.182,1.121-2.5,5.468-5.047-2.6-4.42C431.654,252.31,432.609,255.389,432.023,255.906Z" transform="translate(-339.611 -202.041)" fill="#ad7e15"/><path d="M351.241,167.223s-1.158,1.787-5.084-1.211q-.42-.321-.885-.72c-.306-.262-.631-.554-.966-.875l-.608-.244s-2.2,1.525-3.311.952l-.03.048-.284.949-.251.491-.225.443-.225.443h1.954l.118-.443.122-.443.262-.964,1.8-.982,1.641,1.632.14.137.745.724,2.113,2.042,5.353.2A4.455,4.455,0,0,1,351.241,167.223Z" transform="translate(-275.192 -135.88)" fill="#ad7e15"/><path d="M436.7,199.593a1.415,1.415,0,0,0-.111-.373,1.123,1.123,0,0,0-.2-.3.893.893,0,0,0-.284-.207,16.786,16.786,0,0,1-.822,4.1c-.03.078-.063.159-.1.247s-.07.188-.107.288c-.077.2-.158.425-.243.661-.059.151-.114.31-.173.469-.207.565-.424,1.171-.631,1.743-.048.137-.1.273-.144.406-.18.5-.343.964-.475,1.333-.018.059-.041.115-.059.166-.077.214-.136.391-.18.509-.015.044-.03.081-.037.111a.061.061,0,0,0-.011.03.116.116,0,0,0-.007.03c.011-.015.026-.044.051-.085l.055-.092c.011-.018.022-.041.037-.067s.026-.044.04-.066c.107-.188.258-.447.435-.764.037-.066.077-.136.118-.21.052-.1.107-.2.166-.3.041-.074.081-.151.125-.233.192-.354.395-.742.6-1.156.03-.055.055-.114.085-.17.044-.085.085-.17.129-.259.026-.055.055-.114.085-.174.081-.174.162-.347.247-.524.052-.118.107-.236.162-.358.015-.037.03-.07.048-.107.037-.085.074-.166.111-.251.078-.181.151-.362.225-.539.041-.1.081-.207.122-.306.022-.063.048-.122.07-.181s.044-.122.066-.181.044-.122.066-.181c.041-.122.081-.24.122-.358.074-.225.14-.451.2-.665a.4.4,0,0,0,.015-.052c.055-.214.1-.421.14-.62.018-.107.037-.207.048-.306A3.424,3.424,0,0,0,436.7,199.593Z" transform="translate(-346.404 -162.107)" fill="#ad7e15"/><path d="M433.089,240.57s0-.007.007-.015a.115.115,0,0,1,.007-.03A.308.308,0,0,0,433.089,240.57Z" transform="translate(-346.381 -193.854)" fill="#ad7e15"/><path d="M403.868,133.323l-.077.037a2.745,2.745,0,0,0-.553.365.635.635,0,0,0-.081.07c-.026.022-.055.048-.085.077a.906.906,0,0,0-.085.085,1.093,1.093,0,0,0-.085.092,1.112,1.112,0,0,0-.085.1,1.24,1.24,0,0,0-.085.107q-.083.105-.166.233a2.559,2.559,0,0,0-.155.262c-.026.048-.051.1-.074.144-.048.1-.092.2-.133.314a.161.161,0,0,1-.011.026,2.516,2.516,0,0,0-.092.3,4.778,4.778,0,0,0-.133.624,7.316,7.316,0,0,0,.35,3.751,11.086,11.086,0,0,1,.1-2.876c.041-.244.089-.495.151-.753.022-.085.044-.173.066-.258s.037-.14.063-.214.051-.177.081-.266c.052-.166.111-.332.177-.495.07-.177.147-.355.232-.528a7.059,7.059,0,0,1,.745-1.215.028.028,0,0,0-.015,0A.442.442,0,0,0,403.868,133.323Z" transform="translate(-322.675 -112.436)" fill="#ad7e15"/><path d="M404.266,145.659c-.063.258-.111.51-.151.753C404.155,146.169,404.207,145.917,404.266,145.659Z" transform="translate(-324.371 -121.823)" fill="#ad7e15"/><path d="M403.481,71.924a.843.843,0,0,1-.247-.133,2.678,2.678,0,0,1-.715-1.071,7.787,7.787,0,0,1-.413-1.307,7.894,7.894,0,0,0,.24,1.366,3.808,3.808,0,0,0,.236.668,2.066,2.066,0,0,0,.409.62,1.346,1.346,0,0,0,.328.24,3.015,3.015,0,0,0,.317.137c0-.159,0-.314.015-.473C403.6,71.957,403.536,71.942,403.481,71.924Z" transform="translate(-322.845 -63.93)" fill="#ad7e15"/><path d="M403.764,78.935c-.21-.066-.417-.133-.619-.207-.066-.026-.137-.048-.2-.074-.258-.092-.505-.2-.756-.314l-.192-.085a1.53,1.53,0,0,1-.214-.118l-.044-.033a1.866,1.866,0,0,1-.328-.281c-.037-.044-.07-.092-.1-.14-.2-.037-.387-.078-.579-.125-.144-.037-.284-.077-.42-.122-.07-.026-.14-.048-.206-.074l-.173-.085a2.951,2.951,0,0,1-.992-1.366,8.669,8.669,0,0,1-.494-1.728,8.838,8.838,0,0,0,.321,1.791,3.2,3.2,0,0,0,.959,1.61l.221.137c.074.04.144.07.214.1.144.063.288.122.431.174.291.107.586.2.885.281l.033.011.848.218c.144.037.284.078.417.118a1.454,1.454,0,0,1,.166.059,11.214,11.214,0,0,1,.149,1.414l.777-.007c-.03-.14-.052-.524-.077-.886C403.775,79.109,403.768,79.02,403.764,78.935Z" transform="translate(-320.06 -67.552)" fill="#ad7e15"/><path d="M408.89,55.287c.11.033.221.063.332.089a4.351,4.351,0,0,1,.616.188.445.445,0,0,1,.276.247c.041.24.092.476.148.713.029.125.059.251.092.373l.446.148.052.019c.144.048.288.092.435.137-.026-.107-.055-.218-.077-.325a11.4,11.4,0,0,1-.313-1.425,7.75,7.75,0,0,1,.026-2.828,5.379,5.379,0,0,1,.207-.679c.026-.078.051-.151.074-.229l.085-.114a2.8,2.8,0,0,1,.984-.875,1.319,1.319,0,0,1,.3-.118l.188-.055a1.62,1.62,0,0,0,.225-.078,2.179,2.179,0,0,0,.719-.528,4.236,4.236,0,0,0,.826-1.41A6.982,6.982,0,0,0,414.921,47a10.357,10.357,0,0,1-.671,1.4,5.15,5.15,0,0,1-.671.912,2.636,2.636,0,0,1,.2-1.259,2.817,2.817,0,0,0-.553,1.562,1.651,1.651,0,0,1-.475.251c-.052.011-.1.029-.148.037l-.192.033a2.178,2.178,0,0,0-.435.129,2.374,2.374,0,0,0-.45.24c.033-.207.066-.414.088-.624a15.993,15.993,0,0,0,.048-3.028c-.063.5-.125,1-.214,1.488s-.17.982-.284,1.462a14.586,14.586,0,0,1-.4,1.418.336.336,0,0,1-.018.055c-.033.048-.063.092-.092.144l-.015.022a6.773,6.773,0,0,1-.87-1.772,7.534,7.534,0,0,1-.391-2.44,7.757,7.757,0,0,0,.055,2.525c0,.011,0,.019,0,.026a1.757,1.757,0,0,1-.907-.572,1.882,1.882,0,0,0,.933.941l.059.026a8.471,8.471,0,0,0,.236.827,8.843,8.843,0,0,0,.52,1.2l.051.1c-.04.111-.077.218-.114.329A7.067,7.067,0,0,0,410,54.944a4.99,4.99,0,0,0-.675-.111c-.184-.022-.358-.048-.531-.081.022.159.044.314.078.465C408.875,55.239,408.886,55.265,408.89,55.287Z" transform="translate(-327.727 -46.647)" fill="#ad7e15"/><path d="M425.27,97.471v0h0Z" transform="translate(-340.438 -85.231)" fill="#c28c16"/><g transform="translate(53.318 35.476)"><path d="M296,194.014a.029.029,0,0,1,.032.032v.172a.029.029,0,0,1-.032.032l-.564.055a.029.029,0,0,0-.032.032v3.823a.029.029,0,0,0,.032.032l.564.052q.032,0,.032.036v.172a.029.029,0,0,1-.032.033h-1.786a.029.029,0,0,1-.032-.033v-.172c0-.024.011-.036.032-.036l.564-.052a.029.029,0,0,0,.032-.032v-3.823a.029.029,0,0,0-.032-.032l-.564-.055a.029.029,0,0,1-.032-.032v-.172a.029.029,0,0,1,.032-.032Z" transform="translate(-294.18 -194.014)" fill="#c28c16"/></g><g transform="translate(51.919 50.134)"><path d="M291.265,259.491a.029.029,0,0,1-.032-.033v-.172c0-.024.011-.036.032-.036l.518-.052a.026.026,0,0,0,.026-.013.041.041,0,0,0,0-.032l-.492-1.3c-.009-.013-.017-.019-.026-.019h-1.445a.039.039,0,0,0-.026.019l-.525,1.318c-.011.028,0,.043.032.045l.5.039a.032.032,0,0,1,.032.036v.172a.029.029,0,0,1-.032.033H288.39a.029.029,0,0,1-.032-.033v-.172c0-.024.011-.036.032-.036l.544-.052a.038.038,0,0,0,.026-.02l1.688-4.254c.009-.013.017-.019.026-.019h.165a.039.039,0,0,1,.026.019l1.552,4.248a.028.028,0,0,0,.029.019l.528.058c.02,0,.029.012.029.036v.172c0,.022-.012.033-.036.033Zm-.645-3.576c-.009-.013-.017-.019-.026-.019a.025.025,0,0,0-.026.019l-.625,1.59c-.013.03,0,.046.029.046h1.2c.034,0,.046-.015.036-.046Z" transform="translate(-288.358 -254.906)" fill="#c28c16"/></g><g transform="translate(45.207 42.188)"><path d="M262.664,223.127c-.022,0-.032-.008-.032-.026l-.133-.747c0-.013-.01-.024-.029-.033a1.5,1.5,0,0,0-.616-.127.938.938,0,0,0-.583.182.638.638,0,0,0-.266.536.723.723,0,0,0,.237.545,2,2,0,0,0,.519.315l.431.2a2.454,2.454,0,0,1,.736.474,1.043,1.043,0,0,1,.288.75,1.207,1.207,0,0,1-.512,1.038,1.906,1.906,0,0,1-1.147.331,3.74,3.74,0,0,1-.813-.1,1.587,1.587,0,0,1-.236-.071q-.033-.013-.033-.032v-1a.029.029,0,0,1,.033-.032h.272c.022.006.032.015.032.026l.133.75a.032.032,0,0,0,.013.016l.016.02a1.473,1.473,0,0,0,.648.117,1.17,1.17,0,0,0,.684-.191.7.7,0,0,0,.314-.61q0-.545-.726-.886l-.438-.2a2.523,2.523,0,0,1-.713-.458.994.994,0,0,1-.308-.727,1.167,1.167,0,0,1,.256-.743,1.35,1.35,0,0,1,.655-.448,1.758,1.758,0,0,1,.548-.084,3.5,3.5,0,0,1,.791.094c.073.017.153.039.24.065.022,0,.032.015.032.032v1.006a.028.028,0,0,1-.032.032Z" transform="translate(-260.435 -221.897)" fill="#c28c16"/></g><g transform="translate(60.2 42.289)"><path d="M322.809,222.347a.029.029,0,0,1,.033-.032h1.8a.029.029,0,0,1,.032.032v.172a.029.029,0,0,1-.032.032l-.6.055a.029.029,0,0,0-.032.032v3.81a.029.029,0,0,0,.032.032h1.539c.022,0,.033-.009.033-.026l.133-.74q0-.026.032-.026h.246a.029.029,0,0,1,.032.033v1.032a.029.029,0,0,1-.032.033h-3.185a.029.029,0,0,1-.033-.033v-.172c0-.024.011-.036.033-.036l.557-.052a.028.028,0,0,0,.032-.032v-3.823a.029.029,0,0,0-.032-.032l-.557-.055a.029.029,0,0,1-.033-.032Z" transform="translate(-322.809 -222.315)" fill="#c28c16"/></g></g><g transform="translate(64.667 160.001)"><path d="M66.547,517.947h-1.88v6.445h1.88a3.315,3.315,0,0,0,2.345-.892,3.269,3.269,0,0,0,0-4.661A3.316,3.316,0,0,0,66.547,517.947Zm-.933.9h.89a2.354,2.354,0,0,1,1.649.575,2.317,2.317,0,0,1-1.649,4.06h-.89Z" transform="translate(-64.667 -517.86)" fill="#fff"/><path d="M107.776,521.435h2.615v-.9h-2.615v-1.679h2.77v-.9h-3.717v6.445h3.778v-.905h-2.831Z" transform="translate(-96.694 -517.86)" fill="#fff"/><path d="M144.837,522.659l-1.686-4.713h-1.021l2.341,6.453h.7l2.35-6.453h-1Z" transform="translate(-123.509 -517.86)" fill="#fff"/><path d="M186.411,521.435h2.615v-.9h-2.615v-1.679h2.77v-.9h-3.717v6.445h3.778v-.905h-2.831Z" transform="translate(-156.428 -517.86)" fill="#fff"/><path d="M225.01,517.947h-.947v6.445h3.07v-.905H225.01Z" transform="translate(-185.749 -517.86)" fill="#fff"/><path d="M258.635,517.587A3.318,3.318,0,1,0,261.9,520.9,3.184,3.184,0,0,0,258.635,517.587Zm0,5.713a2.411,2.411,0,1,1,2.3-2.4A2.271,2.271,0,0,1,258.635,523.3Z" transform="translate(-209.533 -517.587)" fill="#fff"/><path d="M308.347,518.421h0a2.228,2.228,0,0,0-1.53-.474h-1.6v6.445h.947v-2.783h.657a2.228,2.228,0,0,0,1.531-.474,1.783,1.783,0,0,0,0-2.713Zm-.662,2.061a1.431,1.431,0,0,1-.851.222h-.675v-1.852h.675a1.43,1.43,0,0,1,.85.221.858.858,0,0,1,.317.705A.87.87,0,0,1,307.684,520.482Z" transform="translate(-247.392 -517.86)" fill="#fff"/><path d="M347.253,517.947l-1.891,4.688-1.884-4.688h-.915l-.653,6.445h.951l.422-4.447,1.9,4.55h.363l1.895-4.547.437,4.443h.95l-.653-6.445Z" transform="translate(-275.269 -517.86)" fill="#fff"/><path d="M394.489,521.435H397.1v-.9h-2.615v-1.679h2.77v-.9h-3.717v6.445h3.778v-.905h-2.831Z" transform="translate(-314.489 -517.86)" fill="#fff"/><path d="M436.535,522.618l-3.568-4.672h-.825v6.445h.947v-4.755l3.611,4.755h.782v-6.445h-.947Z" transform="translate(-343.811 -517.86)" fill="#fff"/><path d="M475.877,518.852h1.769v5.54h.947v-5.54h1.769v-.9h-4.485Z" transform="translate(-377.033 -517.86)" fill="#fff"/><path d="M516.1,520.732l-.123.207.118-.21h0c-.11-.062-.437-.2-.923-.409l-.326-.139c-.458-.2-.743-.417-.743-.9,0-.587.518-.8,1-.8a1.257,1.257,0,0,1,1.071.556l.156.2.671-.583-.1-.173a2.1,2.1,0,0,0-1.76-.9,1.806,1.806,0,0,0-1.992,1.71,1.757,1.757,0,0,0,.99,1.6,10.659,10.659,0,0,0,1,.443l.031.012c.334.133.958.381.958.974a1.035,1.035,0,0,1-1.149,1.013,1.511,1.511,0,0,1-1.29-.8l-.13-.239-.756.54.1.187a2.276,2.276,0,0,0,2.033,1.2,1.99,1.99,0,0,0,2.148-1.9A1.785,1.785,0,0,0,516.1,520.732Z" transform="translate(-405.081 -517.587)" fill="#fff"/></g></g></svg>