<svg xmlns="http://www.w3.org/2000/svg" width="107" height="40" viewBox="0 0 107 40"><g transform="translate(-279.852 -197.337)"><g transform="translate(279.852 198.316)"><path d="M279.852,212.911l6.472,6.446,12.86-12.79-6.479-6.443H279.852v12.787Z" transform="translate(-279.852 -200.124)" fill="#fff"/><path d="M292.705,274.12l6.479-6.446-12.86-12.81-6.472,6.456v12.8Z" transform="translate(-279.852 -235.632)" fill="#fff"/><path d="M335.046,267.674l6.473,6.446h12.774v-12.9l-6.379-6.359-12.869,12.81Z" transform="translate(-315.714 -235.632)" fill="#fff"/><path d="M347.915,219.357l6.379-6.347V200.124H341.519l-6.473,6.443,12.869,12.79Z" transform="translate(-315.714 -200.124)" fill="#fff"/></g><g transform="translate(324.594 197.337)"><g transform="translate(0.031 0)"><g transform="translate(0 0.667)"><path d="M571.761,218.08l-.415-1.9a4.684,4.684,0,0,1-1.131.258c-1.086,0-1.392-.411-1.392-1.95v-6.052h2.009l.825-2.2h-2.833v-3.326l-3.144.507v2.818h-1.238v2.2h1.238V215a4.1,4.1,0,0,0,.2,1.849,3.241,3.241,0,0,0,3.247,1.8A7.308,7.308,0,0,0,571.761,218.08Z" transform="translate(-509.535 -201.618)" fill="#fff" fill-rule="evenodd"/><path d="M420.206,216.528l-5.7-8.821,5.132-7.591h-3.914l-4.692,7.489v-7.489h-3.351v16.412h3.351V207.96l4.98,8.567Z" transform="translate(-407.681 -199.806)" fill="#fff" fill-rule="evenodd"/><path d="M455.564,224.1v-8.821a5.4,5.4,0,0,0-.2-1.744,3.065,3.065,0,0,0-2.94-1.745,4.474,4.474,0,0,0-2.165.513,4.24,4.24,0,0,0-1.391,1.13l-.2-1.613-2.686.434V224.1h3.2v-7.13a2.555,2.555,0,0,1,.671-1.9,2.247,2.247,0,0,1,1.5-.618c.877,0,1.132.566,1.132,1.948v7.7Z" transform="translate(-432.564 -207.378)" fill="#fff" fill-rule="evenodd"/><path d="M483.425,224.013V211.655l-3.2.511v11.847Z" transform="translate(-454.817 -207.291)" fill="#fff" fill-rule="evenodd"/><path d="M4.951,17.486A10.012,10.012,0,0,1,.362,16.252l.774-2.2a8.413,8.413,0,0,0,3.658,1.025c1.144,0,1.807-.206,2.152-.667a3.511,3.511,0,0,0,.374-2.05V11.33a2.367,2.367,0,0,1-1.005.821,3.466,3.466,0,0,1-1.47.359,4.879,4.879,0,0,1-2.258-.5,4.119,4.119,0,0,1-1.5-1.33A7.236,7.236,0,0,1,0,6.613,10.648,10.648,0,0,1,.252,4.246a6.822,6.822,0,0,1,.837-2.108A4.383,4.383,0,0,1,2.632.626,4.73,4.73,0,0,1,5,.047a3.5,3.5,0,0,1,1.6.39,3.9,3.9,0,0,1,1.137.874c.051-.256.224-.928.226-.935L10.321,0l-.012,11.894a12.326,12.326,0,0,1-.174,2.476,3.239,3.239,0,0,1-1.062,1.935,4.736,4.736,0,0,1-2.023.956A9.176,9.176,0,0,1,4.951,17.486ZM5.568,2.613a1.681,1.681,0,0,0-1.65.948A6.1,6.1,0,0,0,3.506,6.2a7.555,7.555,0,0,0,.341,2.864,1.691,1.691,0,0,0,1.772.98,1.53,1.53,0,0,0,1.443-.923,3.888,3.888,0,0,0,.259-1.59V3.379A2.368,2.368,0,0,0,5.568,2.613Z" transform="translate(30.503 4.364)" fill="#fff"/><path d="M541.009,215.957v-8.465a4.986,4.986,0,0,0-.31-2.2c-.362-1.077-1.6-1.741-3.145-1.741a4.489,4.489,0,0,0-3.453,1.482c0-.154.05-.871.05-1.231v-4.563l-3.248.524v16.2h3.248v-6.667a3.277,3.277,0,0,1,.516-2.2,2.724,2.724,0,0,1,2.011-.873c.926,0,1.237.513,1.237,1.64v8.1Z" transform="translate(-487.744 -199.235)" fill="#fff" fill-rule="evenodd"/></g><path d="M483.152,199.312a1.969,1.969,0,1,1-1.968-1.975A1.972,1.972,0,0,1,483.152,199.312Z" transform="translate(-454.16 -197.337)" fill="#fff" fill-rule="evenodd"/></g><path d="M9.071,12.97h0L8.7,12.789a3.329,3.329,0,0,1-1.326-1.307l-.089.088a4.046,4.046,0,0,1-.686.588,4.136,4.136,0,0,1-1.827.632h-1.3A3.883,3.883,0,0,1,.883,11.65,3.755,3.755,0,0,1,0,9.027,4.319,4.319,0,0,1,.366,7.188a3.269,3.269,0,0,1,1.1-1.3,5.184,5.184,0,0,1,1.821-.767,11.362,11.362,0,0,1,2.541-.253h.749v-.46a2.4,2.4,0,0,0-.291-1.429A1.341,1.341,0,0,0,5.1,2.555,6.826,6.826,0,0,0,1.472,3.826L.3,1.735A15.585,15.585,0,0,1,2.215.719,7.993,7.993,0,0,1,5.567,0,5.346,5.346,0,0,1,8.124.552,2.775,2.775,0,0,1,9.482,2.1,6.462,6.462,0,0,1,9.69,4.257l-.02,4.1a3.939,3.939,0,0,0,.194,1.493,2.791,2.791,0,0,0,1.006,1.172l-1.63,1.764-.17.181ZM6.339,6.952a4.185,4.185,0,0,0-2.3.448A1.662,1.662,0,0,0,3.4,8.926a1.731,1.731,0,0,0,.387,1.141,1.308,1.308,0,0,0,1,.449,2.331,2.331,0,0,0,1.734-.749l0-2.814Z" transform="translate(16.915 27.03)" fill="#fff"/><path d="M416.51,262.744h-8.916v16.409h3.246v-7.279h4.224v-2.661H410.84v-3.845H416.1Z" transform="translate(-407.593 -239.764)" fill="#fff" fill-rule="evenodd"/><path d="M441.325,274.38a2.621,2.621,0,0,0-1.187-.255,3.971,3.971,0,0,0-2.884,1.9l-.311-1.64-2.579.418v11.737h3.2v-7.5a2.144,2.144,0,0,1,.463-1.526,1.94,1.94,0,0,1,1.4-.565,2.618,2.618,0,0,1,1.086.257Z" transform="translate(-424.987 -247.146)" fill="#fff" fill-rule="evenodd"/><path d="M525.324,262.708V278.8h3.195V262.2Z" transform="translate(-484.088 -239.408)" fill="#fff" fill-rule="evenodd"/><path d="M537.539,280.077,541.456,275h-3.868l-3.143,5.234,4.153,6.87h3.736Z" transform="translate(-490.014 -247.71)" fill="#fff" fill-rule="evenodd"/><path d="M500.663,286.726V277.9a5.29,5.29,0,0,0-.207-1.741,3.065,3.065,0,0,0-2.939-1.744,4.45,4.45,0,0,0-2.164.515,4.212,4.212,0,0,0-1.391,1.125l-.2-1.611-2.683.433v11.844h3.194V279.6a2.58,2.58,0,0,1,.672-1.9,2.259,2.259,0,0,1,1.495-.616c.876,0,1.134.568,1.134,1.951v7.691Z" transform="translate(-461.836 -247.337)" fill="#fff" fill-rule="evenodd"/></g></g></svg>