<svg xmlns="http://www.w3.org/2000/svg" width="108" height="40" viewBox="0 0 108 40"><g transform="translate(-31.361 -204.462)"><path d="M234.284,224.463a19.911,19.911,0,0,1-35.245,12.789c2.712.336,6.584.018,12.092-1.661,8.113-2.473,14.989-8.44,18.977-13.745-.059-.4-.13-.8-.217-1.2-4.58,4.66-11.677,9.555-18.788,11.327-11.546,2.882-14.961-.541-15.877-2.089l-.109-.213a19.939,19.939,0,1,1,39.167-5.211" transform="translate(-129.013 0)" fill="#fff"/><path d="M385.74,210.3l-8.429,13.992V210.3H361.122a24.04,24.04,0,0,1,0,37.553h16.252L400.254,210.3Z" transform="translate(-260.893 -4.613)" fill="#fff"/><path d="M70.46,247.852H54.148l-8.429-13.992v13.992H31.361V210.3h14.48L54.27,224.29V210.3h16.19a24.041,24.041,0,0,0,0,37.553" transform="translate(0 -4.613)" fill="#fff"/></g></svg>