<svg xmlns="http://www.w3.org/2000/svg" width="151" height="40" viewBox="0 0 151 40"><g transform="translate(-22.363 -207.456)"><g transform="translate(22.363 222.042)"><path d="M25.311,273.685V282H22.363V260.4q3.338-.148,4.022-.147,9.359,0,9.366,6.293,0,7.281-8.267,7.289c-.336,0-1.061-.051-2.173-.147m0-10.663v8.035c1.251.1,1.908.147,1.967.147,3.642,0,5.464-1.454,5.464-4.346,0-2.656-1.949-3.98-5.827-3.98a12.178,12.178,0,0,0-1.6.144" transform="translate(-22.363 -259.748)" fill="#fff"/><path d="M85.665,288.463H74.284a5.746,5.746,0,0,0,1.517,4.286,4.737,4.737,0,0,0,3.445,1.31,5.929,5.929,0,0,0,4.016-1.4l1.183,2.006a5.254,5.254,0,0,1-1.995,1.108,10.457,10.457,0,0,1-3.738.621,6.984,6.984,0,0,1-5.066-2.008,7.888,7.888,0,0,1-2.319-5.991,8.445,8.445,0,0,1,2.377-6.272,6.849,6.849,0,0,1,5.024-2.1,7.24,7.24,0,0,1,5.305,1.9,6.482,6.482,0,0,1,1.862,4.838,6.175,6.175,0,0,1-.23,1.706m-6.8-6.1a4.4,4.4,0,0,0-3.16,1.211,4.459,4.459,0,0,0-1.362,2.868h8.768a4.017,4.017,0,0,0-1.063-2.834,4.19,4.19,0,0,0-3.183-1.245" transform="translate(-57.36 -273.869)" fill="#fff"/><path d="M131.108,272.5h-1.853v-2.227h1.853v-3.3l2.784-1.073v4.376h4.348V272.5h-4.348v7.805a4.5,4.5,0,0,0,.666,2.815,2.567,2.567,0,0,0,2.163.851,5.147,5.147,0,0,0,2.222-.564l.415,2.459a15.552,15.552,0,0,1-3.814.442,4.089,4.089,0,0,1-3.157-1.384,4.9,4.9,0,0,1-1.281-3.5Z" transform="translate(-98.764 -263.782)" fill="#fff"/><path d="M182.711,283a3.216,3.216,0,0,0-1.84-.636,3.27,3.27,0,0,0-2.586,1.371,5.045,5.045,0,0,0-1.12,3.3v9.084h-2.782V280.358h2.782v2.456a4.887,4.887,0,0,1,4.548-2.8,13.206,13.206,0,0,1,2.163.264Z" transform="translate(-131.019 -273.866)" fill="#fff"/><path d="M210.476,288.163a8.65,8.65,0,0,1,1.957-5.9,7.3,7.3,0,0,1,10.454-.078,10.451,10.451,0,0,1-.053,12,7.31,7.31,0,0,1-10.48-.013,9.017,9.017,0,0,1-1.879-6.011m2.954,0q0,5.951,4.186,5.946a3.54,3.54,0,0,0,3.069-1.6,7.464,7.464,0,0,0,1.114-4.345q0-5.85-4.183-5.853a3.572,3.572,0,0,0-3.046,1.558,7.191,7.191,0,0,0-1.14,4.3" transform="translate(-156.816 -273.866)" fill="#fff"/><path d="M276.234,261.023a4.8,4.8,0,0,0-1.6-.3,2.664,2.664,0,0,0-2.112.982,3.64,3.64,0,0,0-.823,2.449,6.275,6.275,0,0,0,.059.832h3.18v2.337h-3.18v13.42h-2.8v-13.42h-2.278v-2.337h2.3a7.039,7.039,0,0,1,1.477-4.765,4.912,4.912,0,0,1,3.924-1.727,8.779,8.779,0,0,1,2.622.444Z" transform="translate(-196.989 -258.493)" fill="#fff"/><path d="M315.785,294.277a6.211,6.211,0,0,1-5.156,2.119,4.5,4.5,0,0,1-3.238-1.331,4.554,4.554,0,0,1-1.354-3.358,4.965,4.965,0,0,1,2.091-4.049A8.492,8.492,0,0,1,313.5,286a6.141,6.141,0,0,1,2.019.39q0-3.851-3.425-3.854a5.5,5.5,0,0,0-4.045,1.392l-1.179-2.338a6.517,6.517,0,0,1,2.2-1.113,8.207,8.207,0,0,1,2.7-.456c2.281,0,3.955.509,4.98,1.569,1.027,1.025,1.556,2.692,1.556,4.968v5.668c0,1.4.4,2.315,1.222,2.768v1.4A5.178,5.178,0,0,1,317,295.9a2.743,2.743,0,0,1-1.212-1.628m-.265-5.863a9.293,9.293,0,0,0-1.879-.344,5.383,5.383,0,0,0-3.474,1.087,3.226,3.226,0,0,0-1.353,2.569c0,1.618.977,2.433,2.925,2.433a4.791,4.791,0,0,0,3.781-2.009Z" transform="translate(-225.117 -273.869)" fill="#fff"/></g><g transform="translate(118.753 228.194)"><path d="M373.275,281.591l-1.389,1.948a4.465,4.465,0,0,0-1.52-.8,6.722,6.722,0,0,0-2.143-.37,4.536,4.536,0,0,0-3.64,1.595,6.688,6.688,0,0,0-1.352,4.409,6,6,0,0,0,1.363,4.233,4.96,4.96,0,0,0,3.789,1.459,6.32,6.32,0,0,0,3.795-1.459l1.1,2.345a10,10,0,0,1-5.582,1.451,7.044,7.044,0,0,1-5.309-2.162,8.03,8.03,0,0,1-2.111-5.867,8.447,8.447,0,0,1,2.192-6.072,8.027,8.027,0,0,1,6.022-2.273,7.8,7.8,0,0,1,2.673.509,7.114,7.114,0,0,1,2.114,1.06" transform="translate(-360.273 -280.022)" fill="#fff"/></g><path d="M464.207,208.264a.84.84,0,0,0-1.678,0c0,8.24-13.87,15.665-13.87,26.377,0,7,5.763,12.192,13.447,12.766,0,0,.674.049,1.237.049s1.271-.049,1.271-.049c7.916-.443,13.443-5.764,13.443-12.766C478.057,223.929,464.207,216.5,464.207,208.264Zm8.916,25.015a7.062,7.062,0,0,1-5.134,3.273,24.074,24.074,0,0,1-3.956.157c-.834,4.062-1.6,7.759-1.6,7.759l-6.155-.009,3.586-16.105,5.727.01-.782,4.6A2.892,2.892,0,0,0,467.649,230c.036-.786.007-2-.766-2.474-.547-.355-3.157-.239-3.76-.239h-2.828a3.18,3.18,0,0,1-2.888-1.726,9.348,9.348,0,0,1-1.29-2.758c1.4-.009,3.653-.028,4.225-.028.775,0,2.532-.028,5,0,1.069.019,2.172.028,3.248.133a6.616,6.616,0,0,1,5.125,3.691A7.273,7.273,0,0,1,473.123,233.279Z" transform="translate(-304.694 0)" fill="#fff"/></g></svg>