<svg xmlns="http://www.w3.org/2000/svg" width="86" height="26" viewBox="0 0 86 26"><g transform="translate(-56.984 -402.23)"><path d="M73.341,420.372a3.145,3.145,0,0,0,2.356.7v2.919s-3.96.515-5.739-1.025c-1.281-1.11-5.847-7.171-5.847-7.171H61.9v7.589H56.984V403.547h7.978c5.74,0,9.21,2.1,9.21,5.954,0,2.876-1.779,4.685-4.947,5.577,0,0,2.591,3.562,4.116,5.294M64.59,406.6H61.872v6.3h2.493c3.061,0,4.957-1.123,4.957-3.193,0-1.984-1.643-3.1-4.732-3.1" transform="translate(0 -0.402)" fill="#fff"/><path d="M93.984,426.675c-1.6,3.424-3.656,4.488-7.128,4.488a7.531,7.531,0,0,1-1.643-.143l-.6-2.847a10.529,10.529,0,0,0,2.093.2,3.085,3.085,0,0,0,2.9-1.466l.411-.92L83.5,412.295l4.664-.461,4.175,9.9,4.028-9.693h4.438l-6.824,14.638" transform="translate(-8.148 -2.933)" fill="#fff"/><path d="M119.57,423l-.371-1.927a7.836,7.836,0,0,1-5.514,2.212c-3.774,0-6.8-2.155-6.8-6.843,0-5.177,3.7-7.48,7.871-7.48a16.007,16.007,0,0,1,4.175.52v-6.7l4.478-.546V423H119.57m-.635-10.671a9.05,9.05,0,0,0-3.5-.606c-2.356,0-4.067,1.469-4.067,4.516,0,2.7,1.5,3.97,3.471,3.97a5.747,5.747,0,0,0,4.1-1.9Z" transform="translate(-15.333 0)" fill="#fff"/><path d="M149.263,419.62H137.706c.224,2.7,2.092,3.885,4.849,3.885a12.567,12.567,0,0,0,6.189-1.727l.518,2.7a14.95,14.95,0,0,1-7.2,1.695c-5.035,0-8.8-2.212-8.8-7.217,0-4.516,3.51-7.249,8.2-7.249,5.407,0,7.832,3.136,7.832,7.077,0,.285-.039.631-.039.831m-7.9-5.522a3.517,3.517,0,0,0-3.578,3.367h7.157c-.3-2.157-1.418-3.367-3.579-3.367" transform="translate(-23.438 -2.895)" fill="#fff"/><path d="M169.832,425.892V416.8c0-1.207-.675-2.041-2.308-2.041a6.675,6.675,0,0,0-4.106,1.755v9.376H158.94V412h3.8l.411,1.955a9.927,9.927,0,0,1,6-2.244c3.363,0,5.153,1.584,5.153,4.171v10.01h-4.478" transform="translate(-31.326 -2.895)" fill="#fff"/></g></svg>