<svg xmlns="http://www.w3.org/2000/svg" width="72.5" height="60" viewBox="0 0 72.5 60"><g transform="translate(-606.822 -715.639)"><path d="M615.2,755.386v-8.747h1.265v3.59h4.96v-3.59h1.267v8.747h-1.267v-4.125h-4.96v4.125Z" transform="translate(2.095 6.059)" fill="#fff"/><path d="M623.366,755.386v-8.747h5.661v1.034H624.4v2.669h4.333v1.035H624.4v2.975h4.806v1.035Z" transform="translate(3.186 6.059)" fill="#fff"/><path d="M629.607,755.387v-8.748h3.475a6.994,6.994,0,0,1,1.81.169,2.329,2.329,0,0,1,1.27.845,2.363,2.363,0,0,1,.477,1.511,2.542,2.542,0,0,1-.771,1.915,3.807,3.807,0,0,1-2.681.75h-2.356v3.558h-1.224m1.224-4.59h2.383a2.682,2.682,0,0,0,1.649-.4,1.383,1.383,0,0,0,.523-1.194,1.508,1.508,0,0,0-.261-.886,1.367,1.367,0,0,0-.615-.506,4.3,4.3,0,0,0-1.321-.135h-2.356Z" transform="translate(4.365 6.059)" fill="#fff"/><path d="M644.32,755.5v-8.747h6.666v1.034h-5.445v2.669h5.094v1.035h-5.094v2.975H651.2V755.5Z" transform="translate(7.189 6.082)" fill="#fff"/><path d="M650.707,755.387v-8.748h3.453a3.935,3.935,0,0,1,1.594.242,1.977,1.977,0,0,1,.85.813,2.614,2.614,0,0,1,.331,1.326,2.288,2.288,0,0,1-.56,1.6.905.905,0,1,0-.971,1.27,6.191,6.191,0,0,1,.8,1.115l1.37,2.384h-1.3l-1.042-1.818a11,11,0,0,0-.91-1.44,1.732,1.732,0,0,0-.591-.5,2.039,2.039,0,0,0-.807-.128h-1.187v3.885h-1.034m1.034-4.886h2.211a2.853,2.853,0,0,0,1.1-.166,1.28,1.28,0,0,0,.6-.505,1.49,1.49,0,0,0,.214-.8,1.328,1.328,0,0,0-.417-1.042,1.823,1.823,0,0,0-1.25-.381h-2.458Z" transform="translate(8.413 6.059)" fill="#fff"/><path d="M636.411,755.386v-8.747h1.221v3.59h4.8v-3.59h1.216v8.747h-1.216v-4.125h-4.8v4.125Z" transform="translate(5.663 6.059)" fill="#fff"/><path d="M657.483,755.687V745.622h4.1a10.56,10.56,0,0,1,2.323.189,4.3,4.3,0,0,1,1.807.879A4.351,4.351,0,0,1,666.9,748.3a5.816,5.816,0,0,1,.425,2.3,5.468,5.468,0,0,1-.729,2.9,4.027,4.027,0,0,1-1.854,1.689,7.449,7.449,0,0,1-2.961.5h-4.3m1.574-1.191h2.528a5.9,5.9,0,0,0,2.328-.35,2.441,2.441,0,0,0,1.22-1.115,5,5,0,0,0,.56-2.446,4.175,4.175,0,0,0-.6-2.409,2.882,2.882,0,0,0-1.533-1.166,7.418,7.418,0,0,0-2.011-.2h-2.494Z" transform="translate(9.455 5.819)" fill="#fff"/><path d="M615.283,752.9q0,2.869-4.742,2.87a12.817,12.817,0,0,1-3.076-.334l.323-1.217a10.522,10.522,0,0,0,2.938.45q3.131,0,3.131-1.489a1.536,1.536,0,0,0-.811-1.289,12.519,12.519,0,0,0-2.136-.954,9.462,9.462,0,0,1-2.349-1.155,2.294,2.294,0,0,1,.019-3.7,4.864,4.864,0,0,1,2.994-.806,12.356,12.356,0,0,1,3,.241l-.221,1.232a11.574,11.574,0,0,0-2.975-.372q-2.366,0-2.368,1.335a1.261,1.261,0,0,0,.683,1.077,13.293,13.293,0,0,0,1.952.823,10.335,10.335,0,0,1,2.486,1.2,2.533,2.533,0,0,1,1.151,2.094" transform="translate(0.161 5.737)" fill="#fff"/><path d="M616.008,761.639a3.559,3.559,0,0,1-1.469.264,2.6,2.6,0,0,1-2.75-2.815,2.77,2.77,0,0,1,2.906-2.923,2.99,2.99,0,0,1,1.321.247l-.174.586a2.63,2.63,0,0,0-1.124-.231,2.069,2.069,0,0,0-2.171,2.3,2.023,2.023,0,0,0,2.139,2.238,2.881,2.881,0,0,0,1.173-.231Z" transform="translate(1.242 7.793)" fill="#fff"/><path d="M622.15,758.98c0,1.916-1.164,2.931-2.584,2.931a2.55,2.55,0,0,1-2.5-2.824,2.643,2.643,0,0,1,2.584-2.923,2.533,2.533,0,0,1,2.5,2.815m-4.318.091c0,1.189.644,2.254,1.775,2.254s1.784-1.049,1.784-2.311c0-1.106-.579-2.262-1.775-2.262s-1.784,1.1-1.784,2.32" transform="translate(1.979 7.793)" fill="#fff"/><path d="M628.045,759.359c-.041-.776-.091-1.709-.083-2.4h-.025c-.19.653-.421,1.346-.7,2.114l-.982,2.7h-.545l-.9-2.65c-.265-.784-.487-1.5-.644-2.163h-.016c-.018.694-.059,1.626-.108,2.46l-.149,2.386h-.685l.388-5.565h.916l.95,2.693c.231.685.42,1.295.561,1.874h.025c.14-.563.338-1.172.585-1.874l.991-2.693h.916l.347,5.565h-.7Z" transform="translate(3.157 7.811)" fill="#fff"/><path d="M634.8,759.359c-.041-.776-.091-1.709-.083-2.4h-.025c-.19.653-.421,1.346-.7,2.114l-.982,2.7h-.545l-.9-2.65c-.265-.784-.487-1.5-.644-2.163H630.9c-.016.694-.059,1.626-.108,2.46l-.149,2.386h-.685l.388-5.565h.916l.95,2.693c.231.685.421,1.295.561,1.874h.025c.14-.563.338-1.172.586-1.874l.99-2.693h.916l.348,5.565h-.7Z" transform="translate(4.459 7.811)" fill="#fff"/><path d="M639.718,759.194h-2.162V761.2h2.41v.6h-3.129v-5.564h3.005v.6h-2.286V758.6h2.162Z" transform="translate(5.845 7.811)" fill="#fff"/><path d="M641.533,756.32a7.517,7.517,0,0,1,1.377-.115,2.274,2.274,0,0,1,1.61.454,1.384,1.384,0,0,1,.438,1.057,1.463,1.463,0,0,1-1.049,1.42v.025a1.384,1.384,0,0,1,.819,1.122,8.776,8.776,0,0,0,.429,1.526h-.744a7.325,7.325,0,0,1-.371-1.329c-.165-.767-.463-1.056-1.114-1.081h-.677v2.41h-.717Zm.717,2.535h.735c.768,0,1.255-.421,1.255-1.056,0-.719-.52-1.032-1.28-1.04a3,3,0,0,0-.71.065Z" transform="translate(6.746 7.803)" fill="#fff"/><path d="M650.487,761.639a3.569,3.569,0,0,1-1.471.264,2.6,2.6,0,0,1-2.747-2.815,2.768,2.768,0,0,1,2.9-2.923,2.99,2.99,0,0,1,1.321.247l-.174.586a2.634,2.634,0,0,0-1.123-.231,2.069,2.069,0,0,0-2.171,2.3,2.022,2.022,0,0,0,2.138,2.238,2.877,2.877,0,0,0,1.172-.231Z" transform="translate(7.647 7.793)" fill="#fff"/><rect width="0.718" height="5.564" transform="translate(660.648 764.049)" fill="#fff"/><path d="M655.817,760.052l-.578,1.75H654.5l1.891-5.564h.868l1.9,5.564h-.769l-.594-1.75Zm1.825-.561-.545-1.6c-.124-.364-.206-.694-.289-1.015h-.016c-.084.33-.174.668-.281,1.006l-.545,1.61Z" transform="translate(9.226 7.811)" fill="#fff"/><path d="M660.321,756.238h.719V761.2h2.378v.6h-3.1Z" transform="translate(10.165 7.811)" fill="#fff"/><path d="M606.822,766.225h72.5l-2.059-3.575H608.92Z" transform="translate(0 9.414)" fill="#fff"/><path d="M640.009,715.639,620.441,750.2h38.771Z" transform="translate(3.405 0)" fill="#fff"/></g></svg>